{"glyphs":{"0":{"ha":860,"x_min":61,"x_max":800,"o":"m 429 -19 q 270 17 339 -19 q 155 119 201 53 q 85 281 108 186 q 61 492 61 375 q 85 695 61 603 q 155 856 108 788 q 271 961 201 924 q 431 999 340 999 q 607 954 536 999 q 720 835 678 910 q 781 671 763 761 q 800 489 800 581 q 776 285 800 378 q 706 124 753 192 q 590 18 660 56 q 429 -19 521 -19 m 432 86 q 567 138 511 86 q 651 281 622 190 q 679 489 679 372 q 650 699 679 611 q 565 837 621 788 q 431 889 510 886 q 308 853 357 892 q 232 751 260 814 q 193 620 204 689 q 182 496 182 551 q 210 280 182 372 q 295 137 239 188 q 432 86 351 86 z "},"1":{"ha":429,"x_min":11,"x_max":278,"o":"m 161 0 l 161 875 l 11 875 l 11 983 l 278 983 l 278 0 l 161 0 z "},"2":{"ha":811,"x_min":49,"x_max":711,"o":"m 49 0 l 401 431 q 528 613 489 539 q 568 744 568 686 q 551 815 568 782 q 497 870 535 849 q 396 892 460 892 q 258 842 308 892 q 194 713 208 792 l 65 713 q 125 874 82 811 q 235 969 168 938 q 393 1000 303 1000 q 503 982 450 1000 q 599 930 557 964 q 667 846 642 896 q 692 733 692 796 q 672 633 692 685 q 608 517 651 581 q 493 369 564 453 l 272 106 l 711 106 l 711 0 l 49 0 z "},"3":{"ha":846,"x_min":76,"x_max":746,"o":"m 410 -18 q 199 47 283 -18 q 76 217 114 113 l 172 286 q 261 139 204 190 q 411 88 318 88 q 565 147 503 88 q 628 307 628 206 q 594 433 628 386 q 505 502 561 481 q 379 524 449 524 q 346 523 363 524 q 313 520 329 522 q 279 514 296 518 l 264 576 l 558 892 l 133 892 l 133 997 l 706 997 l 706 894 l 435 614 q 594 576 524 613 q 705 474 664 540 q 746 313 746 407 q 702 146 746 221 q 583 26 658 71 q 410 -18 507 -18 z "},"4":{"ha":860,"x_min":18,"x_max":810,"o":"m 560 0 l 560 213 l 40 213 l 18 318 l 497 989 l 674 989 l 674 314 l 810 314 l 810 213 l 674 213 l 674 0 l 560 0 m 153 314 l 560 314 l 560 882 l 153 314 z "},"5":{"ha":781,"x_min":32,"x_max":690,"o":"m 340 -18 q 169 17 240 -18 q 32 115 99 53 l 100 193 q 210 115 151 143 q 340 86 269 86 q 510 147 449 86 q 572 303 572 207 q 540 411 572 364 q 451 485 507 458 q 325 513 396 513 q 256 506 289 513 q 189 486 222 499 l 99 529 l 143 979 l 658 979 l 649 875 l 238 875 l 207 589 q 282 609 247 601 q 356 617 317 617 q 524 579 449 617 q 645 472 600 542 q 690 308 690 403 q 647 138 690 211 q 524 23 603 64 q 340 -18 446 -18 z "},"6":{"ha":819,"x_min":68,"x_max":747,"o":"m 411 -19 q 239 20 317 -19 q 115 134 161 60 q 68 311 68 208 q 83 406 68 361 q 129 503 99 451 q 203 621 160 556 l 440 981 l 572 981 l 286 554 q 337 582 313 574 q 385 592 361 590 q 438 594 410 594 q 594 558 524 594 q 706 456 664 522 q 747 299 747 390 q 703 135 747 207 q 583 22 658 63 q 411 -19 507 -19 m 410 81 q 567 141 506 81 q 628 296 628 201 q 567 442 628 385 q 410 500 507 500 q 293 472 343 500 q 215 396 243 443 q 188 290 188 349 q 218 183 188 231 q 299 108 249 136 q 410 81 350 81 z "},"7":{"ha":713,"x_min":53,"x_max":718,"o":"m 117 0 l 594 875 l 53 875 l 53 979 l 718 979 l 718 874 l 246 0 l 117 0 z "},"8":{"ha":888,"x_min":100,"x_max":788,"o":"m 443 -17 q 268 20 346 -17 q 145 121 190 57 q 100 264 100 185 q 149 413 100 351 q 290 514 199 475 q 176 605 215 547 q 138 739 138 663 q 179 872 138 814 q 290 964 221 931 q 443 997 360 997 q 595 964 525 997 q 708 871 665 931 q 751 733 751 811 q 707 601 751 656 q 596 513 663 546 q 738 416 688 478 q 788 267 788 354 q 742 118 788 182 q 618 19 696 54 q 443 -17 540 -17 m 443 83 q 560 108 510 83 q 640 176 611 133 q 668 272 668 219 q 605 407 668 354 q 443 460 542 460 q 328 435 379 460 q 249 369 278 411 q 219 272 219 326 q 251 169 219 211 q 335 105 283 126 q 443 83 386 83 m 443 560 q 541 581 497 560 q 610 642 585 603 q 636 731 636 681 q 610 817 636 779 q 541 876 585 854 q 443 897 497 897 q 314 855 361 897 q 267 731 267 813 q 293 639 267 678 q 360 580 319 600 q 443 560 401 560 z "},"9":{"ha":814,"x_min":68,"x_max":746,"o":"m 244 -3 l 528 425 q 458 388 490 397 q 382 378 425 378 q 226 416 297 378 q 111 523 154 454 q 68 681 68 592 q 113 844 68 772 q 233 958 157 917 q 403 1000 308 1000 q 578 959 500 1000 q 701 843 656 918 q 746 665 746 768 q 703 495 746 574 q 610 344 660 417 l 374 -3 l 244 -3 m 406 479 q 519 508 469 479 q 598 583 569 536 q 626 688 626 631 q 596 795 626 747 q 515 871 565 843 q 404 899 464 899 q 292 870 340 899 q 215 794 243 842 q 188 686 188 746 q 215 580 188 626 q 292 506 243 533 q 406 479 342 479 z "},"A":{"ha":940,"x_min":-7,"x_max":947,"o":"m -7 0 l 421 979 l 518 979 l 947 0 l 818 0 l 701 274 l 238 274 l 119 0 l -7 0 m 282 378 l 657 378 l 469 842 l 282 378 z "},"Á":{"ha":940,"x_min":-7,"x_max":947,"o":"m -7 0 l 421 979 l 518 979 l 947 0 l 818 0 l 701 274 l 238 274 l 119 0 l -7 0 m 282 378 l 657 378 l 469 842 l 282 378 m 442 1071 l 568 1278 l 701 1250 l 524 1071 l 442 1071 z "},"Ă":{"ha":940,"x_min":-7,"x_max":947,"o":"m -7 0 l 421 979 l 518 979 l 947 0 l 818 0 l 701 274 l 238 274 l 119 0 l -7 0 m 282 378 l 657 378 l 469 842 l 282 378 m 467 1065 q 366 1089 410 1065 q 296 1156 322 1113 q 261 1258 269 1200 l 336 1258 q 384 1183 349 1210 q 471 1157 419 1157 q 555 1183 521 1157 q 601 1258 589 1210 l 676 1258 q 643 1156 671 1200 q 570 1089 615 1113 q 467 1065 525 1065 z "},"Ǎ":{"ha":940,"x_min":-7,"x_max":947,"o":"m -7 0 l 421 979 l 518 979 l 947 0 l 818 0 l 701 274 l 238 274 l 119 0 l -7 0 m 282 378 l 657 378 l 469 842 l 282 378 m 419 1071 l 264 1269 l 364 1269 l 471 1150 l 579 1269 l 678 1269 l 524 1071 l 419 1071 z "},"Â":{"ha":940,"x_min":-7,"x_max":947,"o":"m -7 0 l 421 979 l 518 979 l 947 0 l 818 0 l 701 274 l 238 274 l 119 0 l -7 0 m 282 378 l 657 378 l 469 842 l 282 378 m 274 1097 l 422 1293 l 524 1293 l 671 1097 l 579 1097 l 471 1211 l 365 1097 l 274 1097 z "},"Ä":{"ha":940,"x_min":-7,"x_max":947,"o":"m -7 0 l 421 979 l 518 979 l 947 0 l 818 0 l 701 274 l 238 274 l 119 0 l -7 0 m 282 378 l 657 378 l 469 842 l 282 378 m 340 1099 q 281 1122 304 1099 q 258 1182 258 1146 q 283 1240 258 1217 q 340 1263 307 1263 q 399 1238 374 1263 q 424 1181 424 1214 q 399 1122 424 1146 q 340 1099 374 1099 m 604 1099 q 548 1122 571 1099 q 525 1182 525 1146 q 547 1239 525 1215 q 604 1263 569 1263 q 663 1238 640 1263 q 686 1181 686 1214 q 663 1122 686 1146 q 604 1099 640 1099 z "},"À":{"ha":940,"x_min":-7,"x_max":947,"o":"m -7 0 l 421 979 l 518 979 l 947 0 l 818 0 l 701 274 l 238 274 l 119 0 l -7 0 m 282 378 l 657 378 l 469 842 l 282 378 m 414 1071 l 239 1250 l 369 1278 l 501 1071 l 414 1071 z "},"Ā":{"ha":940,"x_min":-7,"x_max":947,"o":"m -7 0 l 421 979 l 518 979 l 947 0 l 818 0 l 701 274 l 238 274 l 119 0 l -7 0 m 282 378 l 657 378 l 469 842 l 282 378 m 261 1078 l 261 1157 l 679 1157 l 679 1078 l 261 1078 z "},"Ą":{"ha":940,"x_min":-7,"x_max":1000,"o":"m -7 0 l 421 979 l 518 979 l 947 0 l 818 0 l 701 274 l 238 274 l 119 0 l -7 0 m 282 378 l 657 378 l 469 842 l 282 378 m 906 -274 q 794 -240 839 -274 q 750 -144 750 -207 q 772 -67 750 -104 q 818 0 794 -31 l 901 0 q 860 -67 876 -40 q 844 -128 844 -94 q 867 -183 844 -161 q 925 -204 889 -204 q 953 -201 939 -204 q 986 -193 967 -199 l 1000 -253 q 951 -269 974 -264 q 906 -274 928 -274 z "},"Å":{"ha":940,"x_min":-7,"x_max":947,"o":"m -7 0 l 421 979 l 518 979 l 947 0 l 818 0 l 701 274 l 238 274 l 119 0 l -7 0 m 282 378 l 657 378 l 469 842 l 282 378 m 467 951 q 399 969 431 951 q 347 1019 367 988 q 328 1089 328 1050 q 347 1160 328 1128 q 399 1210 367 1192 q 467 1229 431 1229 q 539 1210 507 1229 q 590 1158 571 1190 q 610 1086 610 1126 q 590 1017 610 1047 q 539 969 571 986 q 467 951 507 951 m 469 1013 q 527 1035 506 1013 q 549 1089 549 1057 q 526 1145 549 1122 q 469 1168 503 1168 q 412 1145 435 1168 q 389 1090 389 1122 q 413 1033 389 1054 q 469 1013 436 1013 z "},"Ǻ":{"ha":913,"x_min":-7,"x_max":919,"o":"m -7 0 l 393 865 q 339 915 360 883 q 318 988 318 947 q 338 1058 318 1026 q 389 1109 357 1090 q 457 1128 421 1128 q 529 1108 497 1128 q 581 1057 561 1089 q 600 985 600 1025 q 578 910 600 943 q 519 863 556 878 l 919 0 l 790 0 l 689 232 l 221 232 l 119 0 l -7 0 m 267 336 l 644 336 l 456 771 l 267 336 m 460 911 q 517 933 496 911 q 539 988 539 956 q 517 1043 539 1019 q 460 1067 494 1067 q 402 1044 425 1067 q 379 989 379 1021 q 402 933 379 954 q 460 911 425 911 m 426 1146 l 553 1353 l 686 1325 l 508 1146 l 426 1146 z "},"ǻ":{"ha":913,"x_min":-7,"x_max":919,"o":"m -7 0 l 393 865 q 339 915 360 883 q 318 988 318 947 q 338 1058 318 1026 q 389 1109 357 1090 q 457 1128 421 1128 q 529 1108 497 1128 q 581 1057 561 1089 q 600 985 600 1025 q 578 910 600 943 q 519 863 556 878 l 919 0 l 790 0 l 689 232 l 221 232 l 119 0 l -7 0 m 267 336 l 644 336 l 456 771 l 267 336 m 460 911 q 517 933 496 911 q 539 988 539 956 q 517 1043 539 1019 q 460 1067 494 1067 q 402 1044 425 1067 q 379 989 379 1021 q 402 933 379 954 q 460 911 425 911 m 426 1146 l 553 1353 l 686 1325 l 508 1146 l 426 1146 z "},"Ã":{"ha":940,"x_min":-7,"x_max":947,"o":"m -7 0 l 421 979 l 518 979 l 947 0 l 818 0 l 701 274 l 238 274 l 119 0 l -7 0 m 282 378 l 657 378 l 469 842 l 282 378 m 318 1074 l 243 1088 q 300 1193 263 1154 q 392 1232 338 1232 q 455 1219 425 1232 q 511 1194 485 1207 q 563 1181 538 1181 q 601 1197 586 1181 q 628 1243 617 1213 l 701 1229 q 651 1124 682 1163 q 571 1086 619 1086 q 513 1099 542 1086 q 457 1125 485 1113 q 400 1138 429 1138 q 352 1123 375 1138 q 318 1074 329 1108 z "},"Æ":{"ha":1286,"x_min":-7,"x_max":1286,"o":"m -7 0 l 597 979 l 1271 979 l 1271 874 l 751 874 l 751 551 l 1231 551 l 1231 446 l 751 446 l 751 106 l 1286 106 l 1286 0 l 632 0 l 632 274 l 286 274 l 119 0 l -7 0 m 350 378 l 632 378 l 632 836 l 350 378 z "},"Ǽ":{"ha":1286,"x_min":-7,"x_max":1286,"o":"m -7 0 l 597 979 l 1271 979 l 1271 874 l 751 874 l 751 551 l 1231 551 l 1231 446 l 751 446 l 751 106 l 1286 106 l 1286 0 l 632 0 l 632 274 l 286 274 l 119 0 l -7 0 m 350 378 l 632 378 l 632 836 l 350 378 m 746 1071 l 872 1278 l 1006 1250 l 828 1071 l 746 1071 z "},"B":{"ha":885,"x_min":111,"x_max":821,"o":"m 111 0 l 111 979 l 390 979 q 555 956 476 979 q 683 878 633 932 q 732 732 732 825 q 697 594 732 653 q 590 508 661 535 q 767 425 713 492 q 821 269 821 358 q 782 135 821 197 q 657 37 743 74 q 429 0 571 0 l 111 0 m 228 103 l 449 103 q 644 147 583 103 q 704 275 704 192 q 637 403 704 358 q 403 447 569 447 l 228 447 l 228 103 m 228 550 l 404 550 q 565 598 514 550 q 615 715 615 646 q 558 838 615 799 q 404 876 500 876 l 228 876 l 228 550 z "},"C":{"ha":981,"x_min":71,"x_max":899,"o":"m 572 -19 q 374 19 465 -19 q 215 126 283 57 q 109 287 147 194 q 71 488 71 379 q 108 688 71 596 q 214 851 146 781 q 374 960 282 921 q 576 999 467 999 q 748 969 676 999 q 879 893 819 939 l 879 760 q 755 856 826 819 q 569 893 683 893 q 373 838 458 893 q 240 692 288 783 q 192 489 192 600 q 240 287 192 378 q 373 142 288 196 q 569 88 458 88 q 697 109 640 88 q 803 167 754 131 q 899 243 851 203 l 899 108 q 754 15 832 50 q 572 -19 676 -19 z "},"Ć":{"ha":981,"x_min":71,"x_max":899,"o":"m 572 -19 q 374 19 465 -19 q 215 126 283 57 q 109 287 147 194 q 71 488 71 379 q 108 688 71 596 q 214 851 146 781 q 374 960 282 921 q 576 999 467 999 q 748 969 676 999 q 879 893 819 939 l 879 760 q 755 856 826 819 q 569 893 683 893 q 373 838 458 893 q 240 692 288 783 q 192 489 192 600 q 240 287 192 378 q 373 142 288 196 q 569 88 458 88 q 697 109 640 88 q 803 167 754 131 q 899 243 851 203 l 899 108 q 754 15 832 50 q 572 -19 676 -19 m 522 1071 l 649 1278 l 782 1250 l 604 1071 l 522 1071 z "},"Č":{"ha":981,"x_min":71,"x_max":899,"o":"m 572 -19 q 374 19 465 -19 q 215 126 283 57 q 109 287 147 194 q 71 488 71 379 q 108 688 71 596 q 214 851 146 781 q 374 960 282 921 q 576 999 467 999 q 748 969 676 999 q 879 893 819 939 l 879 760 q 755 856 826 819 q 569 893 683 893 q 373 838 458 893 q 240 692 288 783 q 192 489 192 600 q 240 287 192 378 q 373 142 288 196 q 569 88 458 88 q 697 109 640 88 q 803 167 754 131 q 899 243 851 203 l 899 108 q 754 15 832 50 q 572 -19 676 -19 m 533 1071 l 378 1269 l 478 1269 l 585 1150 l 693 1269 l 792 1269 l 638 1071 l 533 1071 z "},"Ç":{"ha":981,"x_min":71,"x_max":899,"o":"m 572 -19 q 374 19 465 -19 q 215 126 283 57 q 109 287 147 194 q 71 488 71 379 q 108 688 71 596 q 214 851 146 781 q 374 960 282 921 q 576 999 467 999 q 748 969 676 999 q 879 893 819 939 l 879 760 q 755 856 826 819 q 569 893 683 893 q 373 838 458 893 q 240 692 288 783 q 192 489 192 600 q 240 287 192 378 q 373 142 288 196 q 569 88 458 88 q 697 109 640 88 q 803 167 754 131 q 899 243 851 203 l 899 108 q 754 15 832 50 q 572 -19 676 -19 m 485 -307 q 424 -299 451 -307 q 369 -279 396 -292 l 385 -222 q 421 -233 404 -229 q 453 -236 438 -236 q 490 -231 469 -236 q 527 -211 511 -225 q 543 -174 543 -197 q 527 -141 543 -151 q 486 -131 511 -131 q 465 -133 475 -131 q 443 -140 456 -135 l 419 -122 l 503 0 l 593 0 l 536 -97 l 540 -97 q 588 -105 563 -97 q 633 -132 614 -112 q 651 -187 651 -151 q 624 -257 651 -231 q 559 -295 597 -283 q 485 -307 521 -307 z "},"Ĉ":{"ha":981,"x_min":71,"x_max":899,"o":"m 572 -19 q 374 19 465 -19 q 215 126 283 57 q 109 287 147 194 q 71 488 71 379 q 108 688 71 596 q 214 851 146 781 q 374 960 282 921 q 576 999 467 999 q 748 969 676 999 q 879 893 819 939 l 879 760 q 755 856 826 819 q 569 893 683 893 q 373 838 458 893 q 240 692 288 783 q 192 489 192 600 q 240 287 192 378 q 373 142 288 196 q 569 88 458 88 q 697 109 640 88 q 803 167 754 131 q 899 243 851 203 l 899 108 q 754 15 832 50 q 572 -19 676 -19 m 358 1097 l 507 1293 l 608 1293 l 756 1097 l 664 1097 l 556 1211 l 450 1097 l 358 1097 z "},"Ċ":{"ha":981,"x_min":71,"x_max":899,"o":"m 572 -19 q 374 19 465 -19 q 215 126 283 57 q 109 287 147 194 q 71 488 71 379 q 108 688 71 596 q 214 851 146 781 q 374 960 282 921 q 576 999 467 999 q 748 969 676 999 q 879 893 819 939 l 879 760 q 755 856 826 819 q 569 893 683 893 q 373 838 458 893 q 240 692 288 783 q 192 489 192 600 q 240 287 192 378 q 373 142 288 196 q 569 88 458 88 q 697 109 640 88 q 803 167 754 131 q 899 243 851 203 l 899 108 q 754 15 832 50 q 572 -19 676 -19 m 569 1089 q 511 1114 536 1089 q 486 1171 486 1139 q 510 1231 486 1207 q 569 1256 535 1256 q 630 1232 606 1256 q 654 1171 654 1208 q 630 1114 654 1139 q 569 1089 606 1089 z "},"D":{"ha":1013,"x_min":111,"x_max":940,"o":"m 111 0 l 111 979 l 418 979 q 697 919 581 979 q 877 749 814 858 q 940 490 940 639 q 875 236 940 347 q 692 63 810 125 q 417 0 575 0 l 111 0 m 229 106 l 411 106 q 632 155 542 106 q 769 290 722 204 q 815 488 815 376 q 791 636 815 567 q 721 758 767 706 q 609 842 675 811 q 461 872 543 872 l 229 872 l 229 106 z "},"Ď":{"ha":1013,"x_min":111,"x_max":940,"o":"m 111 0 l 111 979 l 418 979 q 697 919 581 979 q 877 749 814 858 q 940 490 940 639 q 875 236 940 347 q 692 63 810 125 q 417 0 575 0 l 111 0 m 229 106 l 411 106 q 632 155 542 106 q 769 290 722 204 q 815 488 815 376 q 791 636 815 567 q 721 758 767 706 q 609 842 675 811 q 461 872 543 872 l 229 872 l 229 106 m 403 1071 l 247 1269 l 347 1269 l 454 1150 l 563 1269 l 661 1269 l 507 1071 l 403 1071 z "},"Đ":{"ha":1057,"x_min":22,"x_max":985,"o":"m 156 0 l 156 979 l 463 979 q 729 919 611 979 q 916 749 847 858 q 985 490 985 639 q 919 236 985 347 q 737 63 854 125 q 461 0 619 0 l 156 0 m 22 443 l 22 550 l 399 550 l 399 443 l 22 443 m 274 106 l 456 106 q 676 155 586 106 q 813 290 767 204 q 860 488 860 376 q 838 624 860 556 q 774 748 817 692 q 667 838 731 804 q 522 872 604 872 l 274 872 l 274 106 z "},"Ð":{"ha":1057,"x_min":22,"x_max":985,"o":"m 156 0 l 156 979 l 463 979 q 729 919 611 979 q 916 749 847 858 q 985 490 985 639 q 919 236 985 347 q 737 63 854 125 q 461 0 619 0 l 156 0 m 22 443 l 22 550 l 399 550 l 399 443 l 22 443 m 274 106 l 456 106 q 676 155 586 106 q 813 290 767 204 q 860 488 860 376 q 838 624 860 556 q 774 748 817 692 q 667 838 731 804 q 522 872 604 872 l 274 872 l 274 106 z "},"E":{"ha":858,"x_min":111,"x_max":765,"o":"m 111 0 l 111 979 l 750 979 l 750 874 l 231 874 l 231 551 l 710 551 l 710 446 l 231 446 l 231 106 l 765 106 l 765 0 l 111 0 z "},"É":{"ha":858,"x_min":111,"x_max":765,"o":"m 111 0 l 111 979 l 750 979 l 750 874 l 231 874 l 231 551 l 710 551 l 710 446 l 231 446 l 231 106 l 765 106 l 765 0 l 111 0 m 374 1071 l 500 1278 l 633 1250 l 456 1071 l 374 1071 z "},"Ĕ":{"ha":858,"x_min":111,"x_max":765,"o":"m 111 0 l 111 979 l 750 979 l 750 874 l 231 874 l 231 551 l 710 551 l 710 446 l 231 446 l 231 106 l 765 106 l 765 0 l 111 0 m 457 1065 q 356 1089 400 1065 q 286 1156 313 1113 q 251 1258 260 1200 l 326 1258 q 374 1183 339 1210 q 461 1157 410 1157 q 545 1183 511 1157 q 592 1258 579 1210 l 667 1258 q 633 1156 661 1200 q 560 1089 606 1113 q 457 1065 515 1065 z "},"Ě":{"ha":858,"x_min":111,"x_max":765,"o":"m 111 0 l 111 979 l 750 979 l 750 874 l 231 874 l 231 551 l 710 551 l 710 446 l 231 446 l 231 106 l 765 106 l 765 0 l 111 0 m 396 1071 l 240 1269 l 340 1269 l 447 1150 l 556 1269 l 654 1269 l 500 1071 l 396 1071 z "},"Ê":{"ha":858,"x_min":111,"x_max":765,"o":"m 111 0 l 111 979 l 750 979 l 750 874 l 231 874 l 231 551 l 710 551 l 710 446 l 231 446 l 231 106 l 765 106 l 765 0 l 111 0 m 235 1097 l 383 1293 l 485 1293 l 632 1097 l 540 1097 l 432 1211 l 326 1097 l 235 1097 z "},"Ë":{"ha":858,"x_min":111,"x_max":765,"o":"m 111 0 l 111 979 l 750 979 l 750 874 l 231 874 l 231 551 l 710 551 l 710 446 l 231 446 l 231 106 l 765 106 l 765 0 l 111 0 m 306 1099 q 247 1122 269 1099 q 224 1182 224 1146 q 248 1240 224 1217 q 306 1263 272 1263 q 364 1238 339 1263 q 389 1181 389 1214 q 364 1122 389 1146 q 306 1099 339 1099 m 569 1099 q 513 1122 536 1099 q 490 1182 490 1146 q 513 1239 490 1215 q 569 1263 535 1263 q 628 1238 606 1263 q 651 1181 651 1214 q 628 1122 651 1146 q 569 1099 606 1099 z "},"Ė":{"ha":858,"x_min":111,"x_max":765,"o":"m 111 0 l 111 979 l 750 979 l 750 874 l 231 874 l 231 551 l 710 551 l 710 446 l 231 446 l 231 106 l 765 106 l 765 0 l 111 0 m 453 1089 q 394 1114 419 1089 q 369 1171 369 1139 q 394 1231 369 1207 q 453 1256 418 1256 q 513 1232 489 1256 q 538 1171 538 1208 q 513 1114 538 1139 q 453 1089 489 1089 z "},"È":{"ha":858,"x_min":111,"x_max":765,"o":"m 111 0 l 111 979 l 750 979 l 750 874 l 231 874 l 231 551 l 710 551 l 710 446 l 231 446 l 231 106 l 765 106 l 765 0 l 111 0 m 429 1071 l 254 1250 l 385 1278 l 517 1071 l 429 1071 z "},"Ē":{"ha":858,"x_min":111,"x_max":765,"o":"m 111 0 l 111 979 l 750 979 l 750 874 l 231 874 l 231 551 l 710 551 l 710 446 l 231 446 l 231 106 l 765 106 l 765 0 l 111 0 m 225 1078 l 225 1157 l 643 1157 l 643 1078 l 225 1078 z "},"Ę":{"ha":858,"x_min":111,"x_max":864,"o":"m 111 0 l 111 979 l 750 979 l 750 874 l 231 874 l 231 551 l 710 551 l 710 446 l 231 446 l 231 106 l 765 106 l 765 0 l 111 0 m 769 -274 q 658 -240 703 -274 q 614 -144 614 -207 q 636 -67 614 -104 q 682 0 658 -31 l 765 0 q 724 -67 740 -40 q 708 -128 708 -94 q 731 -183 708 -161 q 789 -204 753 -204 q 817 -201 803 -204 q 850 -193 831 -199 l 864 -253 q 815 -269 838 -264 q 769 -274 792 -274 z "},"F":{"ha":818,"x_min":111,"x_max":746,"o":"m 111 0 l 111 979 l 746 979 l 746 874 l 229 874 l 229 540 l 703 540 l 703 435 l 229 435 l 229 0 l 111 0 z "},"G":{"ha":1154,"x_min":71,"x_max":1083,"o":"m 582 -22 q 378 17 471 -22 q 216 128 285 57 q 109 291 147 199 q 71 489 71 383 q 112 688 71 596 q 226 851 153 781 q 395 960 299 921 q 601 999 492 999 q 765 976 685 999 q 921 899 846 953 l 921 768 q 790 857 868 821 q 610 893 711 893 q 449 861 525 893 q 315 773 374 829 q 222 644 256 717 q 189 489 189 571 q 242 283 189 375 q 385 139 294 192 q 590 86 476 86 q 785 131 699 86 q 922 257 872 176 q 972 446 972 338 l 679 446 l 679 554 l 1083 554 l 1083 518 q 1053 311 1083 408 q 962 139 1024 214 q 806 21 900 64 q 582 -22 711 -22 z "},"Ğ":{"ha":1154,"x_min":71,"x_max":1083,"o":"m 582 -22 q 378 17 471 -22 q 216 128 285 57 q 109 291 147 199 q 71 489 71 383 q 112 688 71 596 q 226 851 153 781 q 395 960 299 921 q 601 999 492 999 q 765 976 685 999 q 921 899 846 953 l 921 768 q 790 857 868 821 q 610 893 711 893 q 449 861 525 893 q 315 773 374 829 q 222 644 256 717 q 189 489 189 571 q 242 283 189 375 q 385 139 294 192 q 590 86 476 86 q 785 131 699 86 q 922 257 872 176 q 972 446 972 338 l 679 446 l 679 554 l 1083 554 l 1083 518 q 1053 311 1083 408 q 962 139 1024 214 q 806 21 900 64 q 582 -22 711 -22 m 601 1065 q 501 1089 544 1065 q 431 1156 457 1113 q 396 1258 404 1200 l 471 1258 q 519 1183 483 1210 q 606 1157 554 1157 q 690 1183 656 1157 q 736 1258 724 1210 l 811 1258 q 778 1156 806 1200 q 705 1089 750 1113 q 601 1065 660 1065 z "},"Ĝ":{"ha":1154,"x_min":71,"x_max":1083,"o":"m 582 -22 q 378 17 471 -22 q 216 128 285 57 q 109 291 147 199 q 71 489 71 383 q 112 688 71 596 q 226 851 153 781 q 395 960 299 921 q 601 999 492 999 q 765 976 685 999 q 921 899 846 953 l 921 768 q 790 857 868 821 q 610 893 711 893 q 449 861 525 893 q 315 773 374 829 q 222 644 256 717 q 189 489 189 571 q 242 283 189 375 q 385 139 294 192 q 590 86 476 86 q 785 131 699 86 q 922 257 872 176 q 972 446 972 338 l 679 446 l 679 554 l 1083 554 l 1083 518 q 1053 311 1083 408 q 962 139 1024 214 q 806 21 900 64 q 582 -22 711 -22 m 400 1097 l 549 1293 l 650 1293 l 797 1097 l 706 1097 l 597 1211 l 492 1097 l 400 1097 z "},"Ģ":{"ha":1154,"x_min":71,"x_max":1083,"o":"m 582 -22 q 378 17 471 -22 q 216 128 285 57 q 109 291 147 199 q 71 489 71 383 q 112 688 71 596 q 226 851 153 781 q 395 960 299 921 q 601 999 492 999 q 765 976 685 999 q 921 899 846 953 l 921 768 q 790 857 868 821 q 610 893 711 893 q 449 861 525 893 q 315 773 374 829 q 222 644 256 717 q 189 489 189 571 q 242 283 189 375 q 385 139 294 192 q 590 86 476 86 q 785 131 699 86 q 922 257 872 176 q 972 446 972 338 l 679 446 l 679 554 l 1083 554 l 1083 518 q 1053 311 1083 408 q 962 139 1024 214 q 806 21 900 64 q 582 -22 711 -22 m 500 -318 l 540 -85 l 656 -85 l 589 -318 l 500 -318 z "},"Ġ":{"ha":1154,"x_min":71,"x_max":1083,"o":"m 582 -22 q 378 17 471 -22 q 216 128 285 57 q 109 291 147 199 q 71 489 71 383 q 112 688 71 596 q 226 851 153 781 q 395 960 299 921 q 601 999 492 999 q 765 976 685 999 q 921 899 846 953 l 921 768 q 790 857 868 821 q 610 893 711 893 q 449 861 525 893 q 315 773 374 829 q 222 644 256 717 q 189 489 189 571 q 242 283 189 375 q 385 139 294 192 q 590 86 476 86 q 785 131 699 86 q 922 257 872 176 q 972 446 972 338 l 679 446 l 679 554 l 1083 554 l 1083 518 q 1053 311 1083 408 q 962 139 1024 214 q 806 21 900 64 q 582 -22 711 -22 m 576 1089 q 518 1114 543 1089 q 493 1171 493 1139 q 517 1231 493 1207 q 576 1256 542 1256 q 637 1232 613 1256 q 661 1171 661 1208 q 637 1114 661 1139 q 576 1089 613 1089 z "},"H":{"ha":985,"x_min":111,"x_max":875,"o":"m 111 0 l 111 981 l 228 981 l 228 553 l 758 553 l 758 981 l 875 981 l 875 0 l 758 0 l 758 444 l 228 444 l 228 0 l 111 0 z "},"Ħ":{"ha":1013,"x_min":57,"x_max":957,"o":"m 125 0 l 125 981 l 242 981 l 242 553 l 772 553 l 772 981 l 889 981 l 889 0 l 772 0 l 772 444 l 242 444 l 242 0 l 125 0 m 957 749 l 57 749 l 57 828 l 957 828 l 957 749 z "},"Ĥ":{"ha":985,"x_min":111,"x_max":875,"o":"m 111 0 l 111 981 l 228 981 l 228 553 l 758 553 l 758 981 l 875 981 l 875 0 l 758 0 l 758 444 l 228 444 l 228 0 l 111 0 m 297 1097 l 446 1293 l 547 1293 l 694 1097 l 603 1097 l 494 1211 l 389 1097 l 297 1097 z "},"I":{"ha":338,"x_min":111,"x_max":228,"o":"m 111 0 l 111 979 l 228 979 l 228 0 l 111 0 z "},"Ĳ":{"ha":849,"x_min":111,"x_max":749,"o":"m 111 0 l 111 979 l 228 979 l 228 0 l 111 0 m 490 -15 q 410 -3 450 -15 q 338 31 371 8 l 338 142 q 411 105 374 119 q 493 90 449 90 q 594 134 560 90 q 629 288 629 178 l 629 979 l 749 979 l 749 290 q 718 122 749 190 q 630 19 688 54 q 490 -15 572 -15 z "},"Í":{"ha":338,"x_min":111,"x_max":383,"o":"m 111 0 l 111 979 l 228 979 l 228 0 l 111 0 m 124 1071 l 250 1278 l 383 1250 l 206 1071 l 124 1071 z "},"Ĭ":{"ha":338,"x_min":-39,"x_max":376,"o":"m 111 0 l 111 979 l 228 979 l 228 0 l 111 0 m 167 1065 q 66 1089 110 1065 q -4 1156 22 1113 q -39 1258 -31 1200 l 36 1258 q 84 1183 49 1210 q 171 1157 119 1157 q 255 1183 221 1157 q 301 1258 289 1210 l 376 1258 q 343 1156 371 1200 q 270 1089 315 1113 q 167 1065 225 1065 z "},"Î":{"ha":338,"x_min":-29,"x_max":368,"o":"m 111 0 l 111 979 l 228 979 l 228 0 l 111 0 m -29 1097 l 119 1293 l 221 1293 l 368 1097 l 276 1097 l 168 1211 l 63 1097 l -29 1097 z "},"Ï":{"ha":338,"x_min":-33,"x_max":394,"o":"m 111 0 l 111 979 l 228 979 l 228 0 l 111 0 m 49 1099 q -10 1122 13 1099 q -33 1182 -33 1146 q -9 1240 -33 1217 q 49 1263 15 1263 q 107 1238 82 1263 q 132 1181 132 1214 q 107 1122 132 1146 q 49 1099 82 1099 m 313 1099 q 256 1122 279 1099 q 233 1182 233 1146 q 256 1239 233 1215 q 313 1263 278 1263 q 372 1238 349 1263 q 394 1181 394 1214 q 372 1122 394 1146 q 313 1099 349 1099 z "},"İ":{"ha":338,"x_min":82,"x_max":250,"o":"m 111 0 l 111 979 l 228 979 l 228 0 l 111 0 m 165 1089 q 107 1114 132 1089 q 82 1171 82 1139 q 106 1231 82 1207 q 165 1256 131 1256 q 226 1232 201 1256 q 250 1171 250 1208 q 226 1114 250 1139 q 165 1089 201 1089 z "},"Ì":{"ha":338,"x_min":-58,"x_max":228,"o":"m 111 0 l 111 979 l 228 979 l 228 0 l 111 0 m 117 1071 l -58 1250 l 72 1278 l 204 1071 l 117 1071 z "},"Ī":{"ha":338,"x_min":-40,"x_max":378,"o":"m 111 0 l 111 979 l 228 979 l 228 0 l 111 0 m -40 1078 l -40 1157 l 378 1157 l 378 1078 l -40 1078 z "},"Į":{"ha":338,"x_min":76,"x_max":326,"o":"m 111 0 l 111 979 l 228 979 l 228 0 l 111 0 m 232 -274 q 121 -240 165 -274 q 76 -144 76 -207 q 99 -67 76 -104 q 144 0 121 -31 l 228 0 q 187 -67 203 -40 q 171 -128 171 -94 q 193 -183 171 -161 q 251 -204 215 -204 q 279 -201 265 -204 q 313 -193 293 -199 l 326 -253 q 277 -269 300 -264 q 232 -274 254 -274 z "},"Ĩ":{"ha":338,"x_min":-64,"x_max":394,"o":"m 111 0 l 111 979 l 228 979 l 228 0 l 111 0 m 11 1074 l -64 1088 q -7 1193 -44 1154 q 85 1232 31 1232 q 148 1219 118 1232 q 204 1194 178 1207 q 256 1181 231 1181 q 294 1197 279 1181 q 321 1243 310 1213 l 394 1229 q 344 1124 375 1163 q 264 1086 313 1086 q 206 1099 235 1086 q 150 1125 178 1113 q 93 1138 122 1138 q 45 1123 68 1138 q 11 1074 22 1108 z "},"J":{"ha":511,"x_min":0,"x_max":411,"o":"m 153 -15 q 73 -3 113 -15 q 0 31 33 8 l 0 142 q 74 105 36 119 q 156 90 111 90 q 257 134 222 90 q 292 288 292 178 l 292 979 l 411 979 l 411 290 q 381 122 411 190 q 292 19 350 54 q 153 -15 235 -15 z "},"Ĵ":{"ha":511,"x_min":0,"x_max":551,"o":"m 153 -15 q 73 -3 113 -15 q 0 31 33 8 l 0 142 q 74 105 36 119 q 156 90 111 90 q 257 134 222 90 q 292 288 292 178 l 292 979 l 411 979 l 411 290 q 381 122 411 190 q 292 19 350 54 q 153 -15 235 -15 m 154 1097 l 303 1293 l 404 1293 l 551 1097 l 460 1097 l 351 1211 l 246 1097 l 154 1097 z "},"K":{"ha":788,"x_min":111,"x_max":788,"o":"m 111 0 l 111 979 l 228 979 l 228 568 l 599 979 l 749 979 l 328 521 l 788 0 l 638 0 l 228 458 l 228 0 l 111 0 z "},"Ķ":{"ha":788,"x_min":111,"x_max":788,"o":"m 111 0 l 111 979 l 228 979 l 228 568 l 599 979 l 749 979 l 328 521 l 788 0 l 638 0 l 228 458 l 228 0 l 111 0 m 310 -318 l 350 -85 l 465 -85 l 399 -318 l 310 -318 z "},"L":{"ha":731,"x_min":111,"x_max":708,"o":"m 111 0 l 111 979 l 229 979 l 229 106 l 708 106 l 708 0 l 111 0 z "},"Ĺ":{"ha":731,"x_min":111,"x_max":708,"o":"m 111 0 l 111 979 l 229 979 l 229 106 l 708 106 l 708 0 l 111 0 m 135 1071 l 261 1278 l 394 1250 l 217 1071 l 135 1071 z "},"Ľ":{"ha":731,"x_min":111,"x_max":708,"o":"m 111 0 l 111 979 l 229 979 l 229 106 l 708 106 l 708 0 l 111 0 m 464 822 l 504 1056 l 619 1056 l 553 822 l 464 822 z "},"Ļ":{"ha":739,"x_min":113,"x_max":710,"o":"m 113 0 l 113 979 l 231 979 l 231 106 l 710 106 l 710 0 l 113 0 m 319 -318 l 360 -85 l 475 -85 l 408 -318 l 319 -318 z "},"Ŀ":{"ha":731,"x_min":111,"x_max":708,"o":"m 111 0 l 111 979 l 229 979 l 229 106 l 708 106 l 708 0 l 111 0 m 528 408 q 469 433 494 408 q 444 490 444 458 q 469 551 444 526 q 528 575 493 575 q 588 551 564 575 q 613 490 613 528 q 588 433 613 458 q 528 408 564 408 z "},"Ł":{"ha":725,"x_min":15,"x_max":714,"o":"m 15 263 l 15 368 l 443 660 l 443 554 l 15 263 m 117 0 l 117 979 l 235 979 l 235 106 l 714 106 l 714 0 l 117 0 z "},"M":{"ha":1071,"x_min":39,"x_max":1031,"o":"m 39 0 l 39 972 l 153 972 l 535 388 l 917 972 l 1031 972 l 1031 0 l 914 0 l 914 785 l 535 213 l 156 785 l 156 0 l 39 0 z "},"N":{"ha":1036,"x_min":111,"x_max":925,"o":"m 111 0 l 111 972 l 229 972 l 811 175 l 811 979 l 925 979 l 925 0 l 808 0 l 225 801 l 225 0 l 111 0 z "},"Ń":{"ha":1036,"x_min":111,"x_max":925,"o":"m 111 0 l 111 972 l 229 972 l 811 175 l 811 979 l 925 979 l 925 0 l 808 0 l 225 801 l 225 0 l 111 0 m 444 1071 l 571 1278 l 704 1250 l 526 1071 l 444 1071 z "},"Ň":{"ha":1036,"x_min":111,"x_max":925,"o":"m 111 0 l 111 972 l 229 972 l 811 175 l 811 979 l 925 979 l 925 0 l 808 0 l 225 801 l 225 0 l 111 0 m 469 1071 l 314 1269 l 414 1269 l 521 1150 l 629 1269 l 728 1269 l 574 1071 l 469 1071 z "},"Ņ":{"ha":1035,"x_min":113,"x_max":926,"o":"m 113 0 l 113 972 l 231 972 l 813 175 l 813 979 l 926 979 l 926 0 l 810 0 l 226 801 l 226 0 l 113 0 m 435 -318 l 475 -85 l 590 -85 l 524 -318 l 435 -318 z "},"Ñ":{"ha":1036,"x_min":111,"x_max":925,"o":"m 111 0 l 111 972 l 229 972 l 811 175 l 811 979 l 925 979 l 925 0 l 808 0 l 225 801 l 225 0 l 111 0 m 375 1074 l 300 1088 q 357 1193 319 1154 q 449 1232 394 1232 q 512 1219 482 1232 q 568 1194 542 1207 q 619 1181 594 1181 q 658 1197 643 1181 q 685 1243 674 1213 l 758 1229 q 708 1124 739 1163 q 628 1086 676 1086 q 570 1099 599 1086 q 514 1125 542 1113 q 457 1138 486 1138 q 409 1123 432 1138 q 375 1074 386 1108 z "},"Ŋ":{"ha":1036,"x_min":111,"x_max":925,"o":"m 767 -269 q 729 -267 746 -269 q 697 -260 713 -264 l 697 -165 q 720 -172 708 -169 q 743 -174 732 -174 q 800 -147 788 -174 q 813 -86 813 -119 l 813 -6 l 225 801 l 225 0 l 111 0 l 111 972 l 229 972 l 811 175 l 811 979 l 925 979 l 925 -51 q 915 -160 925 -110 q 871 -240 904 -210 q 767 -269 838 -269 z "},"O":{"ha":1157,"x_min":71,"x_max":1086,"o":"m 579 -19 q 375 19 468 -19 q 214 128 282 58 q 108 291 146 199 q 71 489 71 383 q 109 687 71 594 q 216 849 147 779 q 378 959 285 919 q 582 999 471 999 q 784 959 692 999 q 944 849 876 919 q 1049 688 1011 779 q 1086 492 1086 596 q 1049 293 1086 386 q 942 130 1011 200 q 781 20 874 60 q 579 -19 689 -19 m 581 88 q 780 141 693 88 q 916 285 867 194 q 965 486 965 376 q 938 641 965 568 q 859 770 910 714 q 738 859 808 826 q 581 892 667 892 q 378 838 467 892 q 241 694 290 785 q 192 492 192 603 q 241 286 192 378 q 378 141 290 194 q 581 88 467 88 z "},"Ó":{"ha":1157,"x_min":71,"x_max":1086,"o":"m 579 -19 q 375 19 468 -19 q 214 128 282 58 q 108 291 146 199 q 71 489 71 383 q 109 687 71 594 q 216 849 147 779 q 378 959 285 919 q 582 999 471 999 q 784 959 692 999 q 944 849 876 919 q 1049 688 1011 779 q 1086 492 1086 596 q 1049 293 1086 386 q 942 130 1011 200 q 781 20 874 60 q 579 -19 689 -19 m 581 88 q 780 141 693 88 q 916 285 867 194 q 965 486 965 376 q 938 641 965 568 q 859 770 910 714 q 738 859 808 826 q 581 892 667 892 q 378 838 467 892 q 241 694 290 785 q 192 492 192 603 q 241 286 192 378 q 378 141 290 194 q 581 88 467 88 m 551 1071 l 678 1278 l 811 1250 l 633 1071 l 551 1071 z "},"Ŏ":{"ha":1157,"x_min":71,"x_max":1086,"o":"m 579 -19 q 375 19 468 -19 q 214 128 282 58 q 108 291 146 199 q 71 489 71 383 q 109 687 71 594 q 216 849 147 779 q 378 959 285 919 q 582 999 471 999 q 784 959 692 999 q 944 849 876 919 q 1049 688 1011 779 q 1086 492 1086 596 q 1049 293 1086 386 q 942 130 1011 200 q 781 20 874 60 q 579 -19 689 -19 m 581 88 q 780 141 693 88 q 916 285 867 194 q 965 486 965 376 q 938 641 965 568 q 859 770 910 714 q 738 859 808 826 q 581 892 667 892 q 378 838 467 892 q 241 694 290 785 q 192 492 192 603 q 241 286 192 378 q 378 141 290 194 q 581 88 467 88 m 581 1065 q 480 1089 524 1065 q 410 1156 436 1113 q 375 1258 383 1200 l 450 1258 q 498 1183 463 1210 q 585 1157 533 1157 q 669 1183 635 1157 q 715 1258 703 1210 l 790 1258 q 757 1156 785 1200 q 684 1089 729 1113 q 581 1065 639 1065 z "},"Ô":{"ha":1157,"x_min":71,"x_max":1086,"o":"m 579 -19 q 375 19 468 -19 q 214 128 282 58 q 108 291 146 199 q 71 489 71 383 q 109 687 71 594 q 216 849 147 779 q 378 959 285 919 q 582 999 471 999 q 784 959 692 999 q 944 849 876 919 q 1049 688 1011 779 q 1086 492 1086 596 q 1049 293 1086 386 q 942 130 1011 200 q 781 20 874 60 q 579 -19 689 -19 m 581 88 q 780 141 693 88 q 916 285 867 194 q 965 486 965 376 q 938 641 965 568 q 859 770 910 714 q 738 859 808 826 q 581 892 667 892 q 378 838 467 892 q 241 694 290 785 q 192 492 192 603 q 241 286 192 378 q 378 141 290 194 q 581 88 467 88 m 383 1097 l 532 1293 l 633 1293 l 781 1097 l 689 1097 l 581 1211 l 475 1097 l 383 1097 z "},"Ö":{"ha":1157,"x_min":71,"x_max":1086,"o":"m 579 -19 q 375 19 468 -19 q 214 128 282 58 q 108 291 146 199 q 71 489 71 383 q 109 687 71 594 q 216 849 147 779 q 378 959 285 919 q 582 999 471 999 q 784 959 692 999 q 944 849 876 919 q 1049 688 1011 779 q 1086 492 1086 596 q 1049 293 1086 386 q 942 130 1011 200 q 781 20 874 60 q 579 -19 689 -19 m 581 88 q 780 141 693 88 q 916 285 867 194 q 965 486 965 376 q 938 641 965 568 q 859 770 910 714 q 738 859 808 826 q 581 892 667 892 q 378 838 467 892 q 241 694 290 785 q 192 492 192 603 q 241 286 192 378 q 378 141 290 194 q 581 88 467 88 m 453 1099 q 394 1122 417 1099 q 371 1182 371 1146 q 395 1240 371 1217 q 453 1263 419 1263 q 511 1238 486 1263 q 536 1181 536 1214 q 511 1122 536 1146 q 453 1099 486 1099 m 717 1099 q 660 1122 683 1099 q 638 1182 638 1146 q 660 1239 638 1215 q 717 1263 682 1263 q 776 1238 753 1263 q 799 1181 799 1214 q 776 1122 799 1146 q 717 1099 753 1099 z "},"Ò":{"ha":1157,"x_min":71,"x_max":1086,"o":"m 579 -19 q 375 19 468 -19 q 214 128 282 58 q 108 291 146 199 q 71 489 71 383 q 109 687 71 594 q 216 849 147 779 q 378 959 285 919 q 582 999 471 999 q 784 959 692 999 q 944 849 876 919 q 1049 688 1011 779 q 1086 492 1086 596 q 1049 293 1086 386 q 942 130 1011 200 q 781 20 874 60 q 579 -19 689 -19 m 581 88 q 780 141 693 88 q 916 285 867 194 q 965 486 965 376 q 938 641 965 568 q 859 770 910 714 q 738 859 808 826 q 581 892 667 892 q 378 838 467 892 q 241 694 290 785 q 192 492 192 603 q 241 286 192 378 q 378 141 290 194 q 581 88 467 88 m 531 1071 l 356 1250 l 486 1278 l 618 1071 l 531 1071 z "},"Ő":{"ha":1157,"x_min":71,"x_max":1086,"o":"m 579 -19 q 375 19 468 -19 q 214 128 282 58 q 108 291 146 199 q 71 489 71 383 q 109 687 71 594 q 216 849 147 779 q 378 959 285 919 q 582 999 471 999 q 784 959 692 999 q 944 849 876 919 q 1049 688 1011 779 q 1086 492 1086 596 q 1049 293 1086 386 q 942 130 1011 200 q 781 20 874 60 q 579 -19 689 -19 m 581 88 q 780 141 693 88 q 916 285 867 194 q 965 486 965 376 q 938 641 965 568 q 859 770 910 714 q 738 859 808 826 q 581 892 667 892 q 378 838 467 892 q 241 694 290 785 q 192 492 192 603 q 241 286 192 378 q 378 141 290 194 q 581 88 467 88 m 635 1071 l 775 1278 l 899 1253 l 724 1071 l 635 1071 m 422 1071 l 563 1278 l 686 1256 l 514 1071 l 422 1071 z "},"Ō":{"ha":1157,"x_min":71,"x_max":1086,"o":"m 579 -19 q 375 19 468 -19 q 214 128 282 58 q 108 291 146 199 q 71 489 71 383 q 109 687 71 594 q 216 849 147 779 q 378 959 285 919 q 582 999 471 999 q 784 959 692 999 q 944 849 876 919 q 1049 688 1011 779 q 1086 492 1086 596 q 1049 293 1086 386 q 942 130 1011 200 q 781 20 874 60 q 579 -19 689 -19 m 581 88 q 780 141 693 88 q 916 285 867 194 q 965 486 965 376 q 938 641 965 568 q 859 770 910 714 q 738 859 808 826 q 581 892 667 892 q 378 838 467 892 q 241 694 290 785 q 192 492 192 603 q 241 286 192 378 q 378 141 290 194 q 581 88 467 88 m 379 1078 l 379 1157 l 797 1157 l 797 1078 l 379 1078 z "},"Ø":{"ha":1157,"x_min":71,"x_max":1086,"o":"m 142 -8 l 85 50 l 189 156 q 101 307 131 222 q 71 488 71 392 q 109 687 71 594 q 216 849 147 779 q 378 959 285 919 q 582 999 471 999 q 759 967 678 999 q 907 882 840 936 l 1017 999 l 1076 939 l 964 825 q 1054 673 1022 758 q 1086 492 1086 588 q 1049 294 1086 386 q 942 131 1011 201 q 781 20 874 60 q 579 -19 689 -19 q 397 12 479 -19 q 247 99 314 43 l 142 -8 m 271 239 l 826 801 q 712 869 775 846 q 581 892 649 892 q 378 838 467 892 q 241 694 290 785 q 192 492 192 603 q 213 353 192 417 q 271 239 233 290 m 581 88 q 781 141 694 88 q 916 285 867 194 q 965 486 965 376 q 944 625 965 561 q 882 742 922 689 l 326 179 q 445 110 378 132 q 581 88 513 88 z "},"Ǿ":{"ha":1157,"x_min":71,"x_max":1086,"o":"m 142 -8 l 85 50 l 189 156 q 101 307 131 222 q 71 488 71 392 q 109 687 71 594 q 216 849 147 779 q 378 959 285 919 q 582 999 471 999 q 759 967 678 999 q 907 882 840 936 l 1017 999 l 1076 939 l 964 825 q 1054 673 1022 758 q 1086 492 1086 588 q 1049 294 1086 386 q 942 131 1011 201 q 781 20 874 60 q 579 -19 689 -19 q 397 12 479 -19 q 247 99 314 43 l 142 -8 m 271 239 l 826 801 q 712 869 775 846 q 581 892 649 892 q 378 838 467 892 q 241 694 290 785 q 192 492 192 603 q 213 353 192 417 q 271 239 233 290 m 581 88 q 781 141 694 88 q 916 285 867 194 q 965 486 965 376 q 944 625 965 561 q 882 742 922 689 l 326 179 q 445 110 378 132 q 581 88 513 88 m 575 1071 l 701 1278 l 835 1250 l 657 1071 l 575 1071 z "},"Õ":{"ha":1157,"x_min":71,"x_max":1086,"o":"m 579 -19 q 375 19 468 -19 q 214 128 282 58 q 108 291 146 199 q 71 489 71 383 q 109 687 71 594 q 216 849 147 779 q 378 959 285 919 q 582 999 471 999 q 784 959 692 999 q 944 849 876 919 q 1049 688 1011 779 q 1086 492 1086 596 q 1049 293 1086 386 q 942 130 1011 200 q 781 20 874 60 q 579 -19 689 -19 m 581 88 q 780 141 693 88 q 916 285 867 194 q 965 486 965 376 q 938 641 965 568 q 859 770 910 714 q 738 859 808 826 q 581 892 667 892 q 378 838 467 892 q 241 694 290 785 q 192 492 192 603 q 241 286 192 378 q 378 141 290 194 q 581 88 467 88 m 425 1074 l 350 1088 q 407 1193 369 1154 q 499 1232 444 1232 q 562 1219 532 1232 q 618 1194 592 1207 q 669 1181 644 1181 q 708 1197 693 1181 q 735 1243 724 1213 l 808 1229 q 758 1124 789 1163 q 678 1086 726 1086 q 620 1099 649 1086 q 564 1125 592 1113 q 507 1138 536 1138 q 459 1123 482 1138 q 425 1074 436 1108 z "},"Œ":{"ha":1457,"x_min":71,"x_max":1364,"o":"m 579 -19 q 380 19 472 -19 q 218 126 288 57 q 110 287 149 194 q 71 488 71 379 q 109 687 71 594 q 216 849 147 779 q 378 959 285 919 q 582 999 471 999 q 656 994 619 999 q 725 979 692 989 l 1349 979 l 1349 874 l 829 874 l 829 551 l 1308 551 l 1308 446 l 829 446 l 829 106 l 1364 106 l 1364 0 l 722 0 q 653 -15 690 -10 q 579 -19 615 -19 m 581 88 q 647 93 610 88 q 710 108 683 99 l 710 869 q 647 886 679 881 q 581 892 615 892 q 379 839 467 892 q 242 696 292 786 q 192 492 192 606 q 241 286 192 378 q 378 141 290 194 q 581 88 465 88 z "},"P":{"ha":817,"x_min":111,"x_max":775,"o":"m 111 -3 l 111 979 l 426 979 q 609 945 531 979 q 731 847 688 911 q 775 690 775 782 q 727 526 775 594 q 598 423 679 458 q 417 388 517 388 l 231 388 l 231 -3 l 111 -3 m 231 493 l 414 493 q 592 543 528 493 q 656 685 656 593 q 593 827 656 781 q 417 874 531 874 l 231 874 l 231 493 z "},"Þ":{"ha":668,"x_min":111,"x_max":626,"o":"m 111 0 l 111 981 l 221 981 l 221 799 l 272 799 q 405 786 342 799 q 518 742 468 774 q 597 658 568 711 q 626 522 626 604 q 582 363 626 424 q 463 274 538 301 q 300 247 389 247 l 221 247 l 221 0 l 111 0 m 221 349 l 293 349 q 405 363 354 349 q 486 417 456 378 q 517 525 517 456 q 495 621 517 586 q 437 672 474 656 q 355 692 400 688 q 261 697 310 697 l 221 697 l 221 349 z "},"Q":{"ha":1150,"x_min":71,"x_max":1086,"o":"m 1083 -110 l 858 61 q 771 19 814 38 q 681 -10 728 0 q 579 -19 635 -19 q 375 20 468 -19 q 214 129 282 60 q 108 290 146 199 q 71 486 71 382 q 109 685 71 593 q 216 849 147 778 q 378 959 285 919 q 582 999 471 999 q 784 959 692 999 q 944 849 876 919 q 1049 688 1011 779 q 1086 492 1086 596 q 1051 300 1086 388 q 953 144 1015 213 l 1083 42 l 1083 -110 m 581 88 q 780 141 693 88 q 916 285 867 194 q 965 486 965 376 q 917 688 965 596 q 783 835 869 779 q 581 892 696 892 q 378 838 467 892 q 241 694 290 785 q 192 492 192 603 q 241 286 192 378 q 378 141 290 194 q 581 88 467 88 z "},"R":{"ha":814,"x_min":111,"x_max":803,"o":"m 111 0 l 111 979 l 415 979 q 592 944 515 979 q 711 845 668 908 q 754 699 754 782 q 681 515 754 586 q 485 422 607 443 l 803 0 l 660 0 l 356 415 l 231 415 l 231 0 l 111 0 m 231 511 l 378 511 q 509 529 451 511 q 601 588 567 547 q 635 694 635 628 q 574 831 635 788 q 401 874 514 874 l 231 874 l 231 511 z "},"Ŕ":{"ha":814,"x_min":111,"x_max":803,"o":"m 111 0 l 111 979 l 415 979 q 592 944 515 979 q 711 845 668 908 q 754 699 754 782 q 681 515 754 586 q 485 422 607 443 l 803 0 l 660 0 l 356 415 l 231 415 l 231 0 l 111 0 m 231 511 l 378 511 q 509 529 451 511 q 601 588 567 547 q 635 694 635 628 q 574 831 635 788 q 401 874 514 874 l 231 874 l 231 511 m 351 1071 l 478 1278 l 611 1250 l 433 1071 l 351 1071 z "},"Ř":{"ha":814,"x_min":111,"x_max":803,"o":"m 111 0 l 111 979 l 415 979 q 592 944 515 979 q 711 845 668 908 q 754 699 754 782 q 681 515 754 586 q 485 422 607 443 l 803 0 l 660 0 l 356 415 l 231 415 l 231 0 l 111 0 m 231 511 l 378 511 q 509 529 451 511 q 601 588 567 547 q 635 694 635 628 q 574 831 635 788 q 401 874 514 874 l 231 874 l 231 511 m 347 1071 l 192 1269 l 292 1269 l 399 1150 l 507 1269 l 606 1269 l 451 1071 l 347 1071 z "},"Ŗ":{"ha":814,"x_min":111,"x_max":803,"o":"m 111 0 l 111 979 l 415 979 q 592 944 515 979 q 711 845 668 908 q 754 699 754 782 q 681 515 754 586 q 485 422 607 443 l 803 0 l 660 0 l 356 415 l 231 415 l 231 0 l 111 0 m 231 511 l 378 511 q 509 529 451 511 q 601 588 567 547 q 635 694 635 628 q 574 831 635 788 q 401 874 514 874 l 231 874 l 231 511 m 329 -318 l 369 -85 l 485 -85 l 418 -318 l 329 -318 z "},"S":{"ha":746,"x_min":43,"x_max":683,"o":"m 347 -17 q 185 9 260 -17 q 43 99 110 35 l 43 228 q 151 144 97 175 q 256 100 204 113 q 356 88 308 88 q 450 101 401 88 q 531 148 499 115 q 564 236 564 181 q 537 322 564 285 q 465 389 510 358 q 367 447 421 419 q 260 505 314 475 q 163 572 207 535 q 91 657 118 608 q 64 769 64 706 q 106 892 64 842 q 218 970 149 943 q 365 997 288 997 q 494 978 433 997 q 603 918 554 960 l 603 775 q 526 849 567 824 q 444 883 485 874 q 367 893 404 893 q 235 861 288 893 q 183 767 183 829 q 210 689 183 722 q 282 628 238 656 q 380 574 326 600 q 487 517 433 547 q 585 450 540 488 q 656 363 629 413 q 683 247 683 314 q 655 124 683 175 q 578 42 626 74 q 469 -3 529 11 q 347 -17 410 -17 z "},"Ś":{"ha":746,"x_min":43,"x_max":683,"o":"m 347 -17 q 185 9 260 -17 q 43 99 110 35 l 43 228 q 151 144 97 175 q 256 100 204 113 q 356 88 308 88 q 450 101 401 88 q 531 148 499 115 q 564 236 564 181 q 537 322 564 285 q 465 389 510 358 q 367 447 421 419 q 260 505 314 475 q 163 572 207 535 q 91 657 118 608 q 64 769 64 706 q 106 892 64 842 q 218 970 149 943 q 365 997 288 997 q 494 978 433 997 q 603 918 554 960 l 603 775 q 526 849 567 824 q 444 883 485 874 q 367 893 404 893 q 235 861 288 893 q 183 767 183 829 q 210 689 183 722 q 282 628 238 656 q 380 574 326 600 q 487 517 433 547 q 585 450 540 488 q 656 363 629 413 q 683 247 683 314 q 655 124 683 175 q 578 42 626 74 q 469 -3 529 11 q 347 -17 410 -17 m 306 1071 l 432 1278 l 565 1250 l 388 1071 l 306 1071 z "},"Š":{"ha":746,"x_min":43,"x_max":683,"o":"m 347 -17 q 185 9 260 -17 q 43 99 110 35 l 43 228 q 151 144 97 175 q 256 100 204 113 q 356 88 308 88 q 450 101 401 88 q 531 148 499 115 q 564 236 564 181 q 537 322 564 285 q 465 389 510 358 q 367 447 421 419 q 260 505 314 475 q 163 572 207 535 q 91 657 118 608 q 64 769 64 706 q 106 892 64 842 q 218 970 149 943 q 365 997 288 997 q 494 978 433 997 q 603 918 554 960 l 603 775 q 526 849 567 824 q 444 883 485 874 q 367 893 404 893 q 235 861 288 893 q 183 767 183 829 q 210 689 183 722 q 282 628 238 656 q 380 574 326 600 q 487 517 433 547 q 585 450 540 488 q 656 363 629 413 q 683 247 683 314 q 655 124 683 175 q 578 42 626 74 q 469 -3 529 11 q 347 -17 410 -17 m 306 1071 l 150 1269 l 250 1269 l 357 1150 l 465 1269 l 564 1269 l 410 1071 l 306 1071 z "},"Ş":{"ha":746,"x_min":43,"x_max":683,"o":"m 347 -17 q 185 9 260 -17 q 43 99 110 35 l 43 228 q 151 144 97 175 q 256 100 204 113 q 356 88 308 88 q 450 101 401 88 q 531 148 499 115 q 564 236 564 181 q 537 322 564 285 q 465 389 510 358 q 367 447 421 419 q 260 505 314 475 q 163 572 207 535 q 91 657 118 608 q 64 769 64 706 q 106 892 64 842 q 218 970 149 943 q 365 997 288 997 q 494 978 433 997 q 603 918 554 960 l 603 775 q 526 849 567 824 q 444 883 485 874 q 367 893 404 893 q 235 861 288 893 q 183 767 183 829 q 210 689 183 722 q 282 628 238 656 q 380 574 326 600 q 487 517 433 547 q 585 450 540 488 q 656 363 629 413 q 683 247 683 314 q 655 124 683 175 q 578 42 626 74 q 469 -3 529 11 q 347 -17 410 -17 m 297 -307 q 236 -299 264 -307 q 182 -279 208 -292 l 197 -222 q 233 -233 217 -229 q 265 -236 250 -236 q 303 -231 282 -236 q 340 -211 324 -225 q 356 -174 356 -197 q 340 -141 356 -151 q 299 -131 324 -131 q 278 -133 288 -131 q 256 -140 268 -135 l 232 -122 l 315 0 l 406 0 l 349 -97 l 353 -97 q 401 -105 375 -97 q 445 -132 426 -112 q 464 -187 464 -151 q 437 -257 464 -231 q 372 -295 410 -283 q 297 -307 333 -307 z "},"Ŝ":{"ha":746,"x_min":43,"x_max":683,"o":"m 347 -17 q 185 9 260 -17 q 43 99 110 35 l 43 228 q 151 144 97 175 q 256 100 204 113 q 356 88 308 88 q 450 101 401 88 q 531 148 499 115 q 564 236 564 181 q 537 322 564 285 q 465 389 510 358 q 367 447 421 419 q 260 505 314 475 q 163 572 207 535 q 91 657 118 608 q 64 769 64 706 q 106 892 64 842 q 218 970 149 943 q 365 997 288 997 q 494 978 433 997 q 603 918 554 960 l 603 775 q 526 849 567 824 q 444 883 485 874 q 367 893 404 893 q 235 861 288 893 q 183 767 183 829 q 210 689 183 722 q 282 628 238 656 q 380 574 326 600 q 487 517 433 547 q 585 450 540 488 q 656 363 629 413 q 683 247 683 314 q 655 124 683 175 q 578 42 626 74 q 469 -3 529 11 q 347 -17 410 -17 m 163 1097 l 311 1293 l 413 1293 l 560 1097 l 468 1097 l 360 1211 l 254 1097 l 163 1097 z "},"Ș":{"ha":764,"x_min":82,"x_max":722,"o":"m 386 -17 q 224 9 299 -17 q 82 99 149 35 l 82 228 q 190 144 136 175 q 295 100 243 113 q 394 88 347 88 q 489 101 440 88 q 570 148 538 115 q 603 236 603 181 q 576 322 603 285 q 504 389 549 358 q 406 447 460 419 q 299 505 353 475 q 201 572 246 535 q 130 657 157 608 q 103 769 103 706 q 145 892 103 842 q 257 970 188 943 q 404 997 326 997 q 533 978 472 997 q 642 918 593 960 l 642 775 q 565 849 606 824 q 483 883 524 874 q 406 893 443 893 q 274 861 326 893 q 222 767 222 829 q 249 689 222 722 q 321 628 276 656 q 419 574 365 600 q 526 517 472 547 q 624 450 579 488 q 695 363 668 413 q 722 247 722 314 q 694 124 722 175 q 617 42 665 74 q 508 -3 568 11 q 386 -17 449 -17 m 297 -306 l 338 -72 l 453 -72 l 386 -306 l 297 -306 z "},"ẞ":{"ha":776,"x_min":17,"x_max":728,"o":"m 293 -4 l 293 86 q 529 134 446 86 q 613 290 613 182 q 542 444 613 396 q 349 500 471 492 l 349 586 l 547 783 q 491 902 547 860 q 349 944 435 944 q 225 912 274 944 q 152 828 176 879 q 128 721 128 776 l 128 0 l 17 0 l 17 722 q 53 882 17 808 q 164 1001 89 956 q 354 1046 239 1046 q 513 1013 443 1046 q 622 919 582 981 q 663 768 663 857 l 450 568 q 653 487 578 557 q 728 303 728 417 q 697 166 728 224 q 610 71 667 108 q 473 15 553 33 q 293 -4 393 -4 z "},"T":{"ha":722,"x_min":11,"x_max":711,"o":"m 303 0 l 303 874 l 11 874 l 11 979 l 711 979 l 711 874 l 419 874 l 419 0 l 303 0 z "},"Ŧ":{"ha":722,"x_min":11,"x_max":711,"o":"m 303 0 l 303 874 l 11 874 l 11 979 l 711 979 l 711 874 l 419 874 l 419 0 l 303 0 m 151 542 l 151 621 l 569 621 l 569 542 l 151 542 z "},"Ť":{"ha":722,"x_min":11,"x_max":711,"o":"m 303 0 l 303 874 l 11 874 l 11 979 l 711 979 l 711 874 l 419 874 l 419 0 l 303 0 m 310 1071 l 154 1269 l 254 1269 l 361 1150 l 469 1269 l 568 1269 l 414 1071 l 310 1071 z "},"Ţ":{"ha":722,"x_min":11,"x_max":711,"o":"m 303 0 l 303 874 l 11 874 l 11 979 l 711 979 l 711 874 l 419 874 l 419 0 l 303 0 m 299 -307 q 238 -299 265 -307 q 183 -279 210 -292 l 199 -222 q 235 -233 218 -229 q 267 -236 251 -236 q 304 -231 283 -236 q 341 -211 325 -225 q 357 -174 357 -197 q 341 -141 357 -151 q 300 -131 325 -131 q 279 -133 289 -131 q 257 -140 269 -135 l 233 -122 l 317 0 l 407 0 l 350 -97 l 354 -97 q 402 -105 376 -97 q 447 -132 428 -112 q 465 -187 465 -151 q 438 -257 465 -231 q 373 -295 411 -283 q 299 -307 335 -307 z "},"Ț":{"ha":722,"x_min":11,"x_max":711,"o":"m 303 0 l 303 874 l 11 874 l 11 979 l 711 979 l 711 874 l 419 874 l 419 0 l 303 0 m 267 -318 l 307 -85 l 422 -85 l 356 -318 l 267 -318 z "},"U":{"ha":975,"x_min":99,"x_max":875,"o":"m 489 -21 q 277 31 364 -21 q 144 175 190 82 q 99 394 99 268 l 99 981 l 215 981 l 215 400 q 282 171 215 254 q 488 88 349 88 q 688 164 618 88 q 758 396 758 240 l 758 981 l 875 981 l 875 399 q 832 175 875 269 q 703 30 789 81 q 489 -21 617 -21 z "},"Ú":{"ha":975,"x_min":99,"x_max":875,"o":"m 489 -21 q 277 31 364 -21 q 144 175 190 82 q 99 394 99 268 l 99 981 l 215 981 l 215 400 q 282 171 215 254 q 488 88 349 88 q 688 164 618 88 q 758 396 758 240 l 758 981 l 875 981 l 875 399 q 832 175 875 269 q 703 30 789 81 q 489 -21 617 -21 m 440 1071 l 567 1278 l 700 1250 l 522 1071 l 440 1071 z "},"Ŭ":{"ha":975,"x_min":99,"x_max":875,"o":"m 489 -21 q 277 31 364 -21 q 144 175 190 82 q 99 394 99 268 l 99 981 l 215 981 l 215 400 q 282 171 215 254 q 488 88 349 88 q 688 164 618 88 q 758 396 758 240 l 758 981 l 875 981 l 875 399 q 832 175 875 269 q 703 30 789 81 q 489 -21 617 -21 m 488 1065 q 387 1089 431 1065 q 317 1156 343 1113 q 282 1258 290 1200 l 357 1258 q 405 1183 369 1210 q 492 1157 440 1157 q 576 1183 542 1157 q 622 1258 610 1210 l 697 1258 q 664 1156 692 1200 q 591 1089 636 1113 q 488 1065 546 1065 z "},"Û":{"ha":975,"x_min":99,"x_max":875,"o":"m 489 -21 q 277 31 364 -21 q 144 175 190 82 q 99 394 99 268 l 99 981 l 215 981 l 215 400 q 282 171 215 254 q 488 88 349 88 q 688 164 618 88 q 758 396 758 240 l 758 981 l 875 981 l 875 399 q 832 175 875 269 q 703 30 789 81 q 489 -21 617 -21 m 297 1097 l 446 1293 l 547 1293 l 694 1097 l 603 1097 l 494 1211 l 389 1097 l 297 1097 z "},"Ü":{"ha":975,"x_min":99,"x_max":875,"o":"m 489 -21 q 277 31 364 -21 q 144 175 190 82 q 99 394 99 268 l 99 981 l 215 981 l 215 400 q 282 171 215 254 q 488 88 349 88 q 688 164 618 88 q 758 396 758 240 l 758 981 l 875 981 l 875 399 q 832 175 875 269 q 703 30 789 81 q 489 -21 617 -21 m 351 1099 q 292 1122 315 1099 q 269 1182 269 1146 q 294 1240 269 1217 q 351 1263 318 1263 q 410 1238 385 1263 q 435 1181 435 1214 q 410 1122 435 1146 q 351 1099 385 1099 m 615 1099 q 559 1122 582 1099 q 536 1182 536 1146 q 558 1239 536 1215 q 615 1263 581 1263 q 674 1238 651 1263 q 697 1181 697 1214 q 674 1122 697 1146 q 615 1099 651 1099 z "},"Ù":{"ha":975,"x_min":99,"x_max":875,"o":"m 489 -21 q 277 31 364 -21 q 144 175 190 82 q 99 394 99 268 l 99 981 l 215 981 l 215 400 q 282 171 215 254 q 488 88 349 88 q 688 164 618 88 q 758 396 758 240 l 758 981 l 875 981 l 875 399 q 832 175 875 269 q 703 30 789 81 q 489 -21 617 -21 m 460 1071 l 285 1250 l 415 1278 l 547 1071 l 460 1071 z "},"Ű":{"ha":975,"x_min":99,"x_max":875,"o":"m 489 -21 q 277 31 364 -21 q 144 175 190 82 q 99 394 99 268 l 99 981 l 215 981 l 215 400 q 282 171 215 254 q 488 88 349 88 q 688 164 618 88 q 758 396 758 240 l 758 981 l 875 981 l 875 399 q 832 175 875 269 q 703 30 789 81 q 489 -21 617 -21 m 538 1071 l 678 1278 l 801 1253 l 626 1071 l 538 1071 m 325 1071 l 465 1278 l 589 1256 l 417 1071 l 325 1071 z "},"Ū":{"ha":975,"x_min":99,"x_max":875,"o":"m 489 -21 q 277 31 364 -21 q 144 175 190 82 q 99 394 99 268 l 99 981 l 215 981 l 215 400 q 282 171 215 254 q 488 88 349 88 q 688 164 618 88 q 758 396 758 240 l 758 981 l 875 981 l 875 399 q 832 175 875 269 q 703 30 789 81 q 489 -21 617 -21 m 286 1078 l 286 1157 l 704 1157 l 704 1078 l 286 1078 z "},"Ų":{"ha":975,"x_min":99,"x_max":875,"o":"m 489 -21 q 277 31 364 -21 q 144 175 190 82 q 99 394 99 268 l 99 981 l 215 981 l 215 400 q 282 171 215 254 q 488 88 349 88 q 688 164 618 88 q 758 396 758 240 l 758 981 l 875 981 l 875 399 q 832 175 875 269 q 703 30 789 81 q 489 -21 617 -21 m 536 -274 q 425 -240 469 -274 q 381 -144 381 -207 q 403 -67 381 -104 q 449 0 425 -31 l 532 0 q 491 -67 507 -40 q 475 -128 475 -94 q 497 -183 475 -161 q 556 -204 519 -204 q 583 -201 569 -204 q 617 -193 597 -199 l 631 -253 q 581 -269 604 -264 q 536 -274 558 -274 z "},"Ů":{"ha":975,"x_min":99,"x_max":875,"o":"m 489 -21 q 277 31 364 -21 q 144 175 190 82 q 99 394 99 268 l 99 981 l 215 981 l 215 400 q 282 171 215 254 q 488 88 349 88 q 688 164 618 88 q 758 396 758 240 l 758 981 l 875 981 l 875 399 q 832 175 875 269 q 703 30 789 81 q 489 -21 617 -21 m 490 1079 q 422 1097 454 1079 q 371 1147 390 1115 q 351 1217 351 1178 q 371 1288 351 1256 q 422 1338 390 1319 q 490 1357 454 1357 q 563 1338 531 1357 q 614 1286 594 1318 q 633 1214 633 1254 q 614 1144 633 1175 q 563 1097 594 1114 q 490 1079 531 1079 m 493 1140 q 551 1163 529 1140 q 572 1217 572 1185 q 549 1273 572 1250 q 493 1296 526 1296 q 435 1273 458 1296 q 413 1218 413 1250 q 436 1161 413 1182 q 493 1140 460 1140 z "},"Ũ":{"ha":975,"x_min":99,"x_max":875,"o":"m 489 -21 q 277 31 364 -21 q 144 175 190 82 q 99 394 99 268 l 99 981 l 215 981 l 215 400 q 282 171 215 254 q 488 88 349 88 q 688 164 618 88 q 758 396 758 240 l 758 981 l 875 981 l 875 399 q 832 175 875 269 q 703 30 789 81 q 489 -21 617 -21 m 357 1074 l 282 1088 q 339 1193 301 1154 q 431 1232 376 1232 q 494 1219 464 1232 q 550 1194 524 1207 q 601 1181 576 1181 q 640 1197 625 1181 q 667 1243 656 1213 l 740 1229 q 690 1124 721 1163 q 610 1086 658 1086 q 552 1099 581 1086 q 496 1125 524 1113 q 439 1138 468 1138 q 391 1123 414 1138 q 357 1074 368 1108 z "},"V":{"ha":897,"x_min":-6,"x_max":901,"o":"m 379 0 l -6 979 l 125 979 l 451 122 l 774 979 l 901 979 l 519 0 l 379 0 z "},"W":{"ha":1379,"x_min":6,"x_max":1374,"o":"m 335 0 l 6 979 l 132 979 l 396 175 l 636 981 l 749 981 l 996 175 l 1251 979 l 1374 979 l 1049 0 l 938 0 l 689 808 l 449 0 l 335 0 z "},"Ẃ":{"ha":1379,"x_min":6,"x_max":1374,"o":"m 335 0 l 6 979 l 132 979 l 396 175 l 636 981 l 749 981 l 996 175 l 1251 979 l 1374 979 l 1049 0 l 938 0 l 689 808 l 449 0 l 335 0 m 649 1071 l 775 1278 l 908 1250 l 731 1071 l 649 1071 z "},"Ŵ":{"ha":1379,"x_min":6,"x_max":1374,"o":"m 335 0 l 6 979 l 132 979 l 396 175 l 636 981 l 749 981 l 996 175 l 1251 979 l 1374 979 l 1049 0 l 938 0 l 689 808 l 449 0 l 335 0 m 490 1097 l 639 1293 l 740 1293 l 888 1097 l 796 1097 l 688 1211 l 582 1097 l 490 1097 z "},"Ẅ":{"ha":1379,"x_min":6,"x_max":1374,"o":"m 335 0 l 6 979 l 132 979 l 396 175 l 636 981 l 749 981 l 996 175 l 1251 979 l 1374 979 l 1049 0 l 938 0 l 689 808 l 449 0 l 335 0 m 557 1099 q 498 1122 521 1099 q 475 1182 475 1146 q 499 1240 475 1217 q 557 1263 524 1263 q 615 1238 590 1263 q 640 1181 640 1214 q 615 1122 640 1146 q 557 1099 590 1099 m 821 1099 q 765 1122 788 1099 q 742 1182 742 1146 q 764 1239 742 1215 q 821 1263 786 1263 q 880 1238 857 1263 q 903 1181 903 1214 q 880 1122 903 1146 q 821 1099 857 1099 z "},"Ẁ":{"ha":1379,"x_min":6,"x_max":1374,"o":"m 335 0 l 6 979 l 132 979 l 396 175 l 636 981 l 749 981 l 996 175 l 1251 979 l 1374 979 l 1049 0 l 938 0 l 689 808 l 449 0 l 335 0 m 649 1071 l 474 1250 l 604 1278 l 736 1071 l 649 1071 z "},"X":{"ha":871,"x_min":14,"x_max":856,"o":"m 14 0 l 368 501 l 31 979 l 168 979 l 439 592 l 704 979 l 838 979 l 504 504 l 856 0 l 721 0 l 435 411 l 151 0 l 14 0 z "},"Y":{"ha":863,"x_min":-3,"x_max":865,"o":"m 374 0 l 374 389 l -3 979 l 136 979 l 436 497 l 733 979 l 865 979 l 490 390 l 490 0 l 374 0 z "},"Ý":{"ha":863,"x_min":-3,"x_max":865,"o":"m 374 0 l 374 389 l -3 979 l 136 979 l 436 497 l 733 979 l 865 979 l 490 390 l 490 0 l 374 0 m 364 1071 l 490 1278 l 624 1250 l 446 1071 l 364 1071 z "},"Ŷ":{"ha":863,"x_min":-3,"x_max":865,"o":"m 374 0 l 374 389 l -3 979 l 136 979 l 436 497 l 733 979 l 865 979 l 490 390 l 490 0 l 374 0 m 238 1097 l 386 1293 l 488 1293 l 635 1097 l 543 1097 l 435 1211 l 329 1097 l 238 1097 z "},"Ÿ":{"ha":863,"x_min":-3,"x_max":865,"o":"m 374 0 l 374 389 l -3 979 l 136 979 l 436 497 l 733 979 l 865 979 l 490 390 l 490 0 l 374 0 m 303 1099 q 244 1122 267 1099 q 221 1182 221 1146 q 245 1240 221 1217 q 303 1263 269 1263 q 361 1238 336 1263 q 386 1181 386 1214 q 361 1122 386 1146 q 303 1099 336 1099 m 567 1099 q 510 1122 533 1099 q 488 1182 488 1146 q 510 1239 488 1215 q 567 1263 532 1263 q 626 1238 603 1263 q 649 1181 649 1214 q 626 1122 649 1146 q 567 1099 603 1099 z "},"Ỳ":{"ha":863,"x_min":-3,"x_max":865,"o":"m 374 0 l 374 389 l -3 979 l 136 979 l 436 497 l 733 979 l 865 979 l 490 390 l 490 0 l 374 0 m 404 1071 l 229 1250 l 360 1278 l 492 1071 l 404 1071 z "},"Z":{"ha":892,"x_min":19,"x_max":857,"o":"m 19 0 l 19 100 l 714 875 l 58 875 l 58 979 l 857 979 l 857 878 l 172 104 l 828 104 l 828 0 l 19 0 z "},"Ź":{"ha":892,"x_min":19,"x_max":857,"o":"m 19 0 l 19 100 l 714 875 l 58 875 l 58 979 l 857 979 l 857 878 l 172 104 l 828 104 l 828 0 l 19 0 m 429 1071 l 556 1278 l 689 1250 l 511 1071 l 429 1071 z "},"Ž":{"ha":892,"x_min":19,"x_max":857,"o":"m 19 0 l 19 100 l 714 875 l 58 875 l 58 979 l 857 979 l 857 878 l 172 104 l 828 104 l 828 0 l 19 0 m 413 1071 l 257 1269 l 357 1269 l 464 1150 l 572 1269 l 671 1269 l 517 1071 l 413 1071 z "},"Ż":{"ha":892,"x_min":19,"x_max":857,"o":"m 19 0 l 19 100 l 714 875 l 58 875 l 58 979 l 857 979 l 857 878 l 172 104 l 828 104 l 828 0 l 19 0 m 457 1089 q 399 1114 424 1089 q 374 1171 374 1139 q 398 1231 374 1207 q 457 1256 422 1256 q 517 1232 493 1256 q 542 1171 542 1208 q 517 1114 542 1139 q 457 1089 493 1089 z "},"a":{"ha":761,"x_min":49,"x_max":667,"o":"m 326 -15 q 197 10 261 -15 q 90 92 132 36 q 49 238 49 149 q 74 346 49 303 q 143 415 100 389 q 238 451 186 440 q 342 463 290 463 q 455 452 401 463 q 553 415 508 442 l 553 442 q 497 553 553 521 q 353 586 440 586 q 221 570 286 586 q 93 517 156 554 l 93 625 q 209 665 140 646 q 357 683 278 683 q 508 655 438 683 q 623 570 579 626 q 667 428 667 514 l 667 0 l 550 68 q 450 6 503 26 q 326 -15 397 -15 m 351 79 q 469 103 419 79 q 553 169 518 128 l 553 317 q 472 353 518 336 q 358 369 425 369 q 268 356 314 369 q 192 310 222 342 q 163 224 163 278 q 189 142 163 175 q 258 94 215 110 q 351 79 301 79 z "},"á":{"ha":761,"x_min":49,"x_max":667,"o":"m 326 -15 q 197 10 261 -15 q 90 92 132 36 q 49 238 49 149 q 74 346 49 303 q 143 415 100 389 q 238 451 186 440 q 342 463 290 463 q 455 452 401 463 q 553 415 508 442 l 553 442 q 497 553 553 521 q 353 586 440 586 q 221 570 286 586 q 93 517 156 554 l 93 625 q 209 665 140 646 q 357 683 278 683 q 508 655 438 683 q 623 570 579 626 q 667 428 667 514 l 667 0 l 550 68 q 450 6 503 26 q 326 -15 397 -15 m 351 79 q 469 103 419 79 q 553 169 518 128 l 553 317 q 472 353 518 336 q 358 369 425 369 q 268 356 314 369 q 192 310 222 342 q 163 224 163 278 q 189 142 163 175 q 258 94 215 110 q 351 79 301 79 m 324 856 l 450 1063 l 583 1035 l 406 856 l 324 856 z "},"ă":{"ha":761,"x_min":49,"x_max":667,"o":"m 326 -15 q 197 10 261 -15 q 90 92 132 36 q 49 238 49 149 q 74 346 49 303 q 143 415 100 389 q 238 451 186 440 q 342 463 290 463 q 455 452 401 463 q 553 415 508 442 l 553 442 q 497 553 553 521 q 353 586 440 586 q 221 570 286 586 q 93 517 156 554 l 93 625 q 209 665 140 646 q 357 683 278 683 q 508 655 438 683 q 623 570 579 626 q 667 428 667 514 l 667 0 l 550 68 q 450 6 503 26 q 326 -15 397 -15 m 351 79 q 469 103 419 79 q 553 169 518 128 l 553 317 q 472 353 518 336 q 358 369 425 369 q 268 356 314 369 q 192 310 222 342 q 163 224 163 278 q 189 142 163 175 q 258 94 215 110 q 351 79 301 79 m 382 836 q 281 860 325 836 q 211 927 238 883 q 176 1029 185 971 l 251 1029 q 299 954 264 981 q 386 928 335 928 q 470 954 436 928 q 517 1029 504 981 l 592 1029 q 558 927 586 971 q 485 860 531 883 q 382 836 440 836 z "},"ǎ":{"ha":761,"x_min":49,"x_max":667,"o":"m 326 -15 q 197 10 261 -15 q 90 92 132 36 q 49 238 49 149 q 74 346 49 303 q 143 415 100 389 q 238 451 186 440 q 342 463 290 463 q 455 452 401 463 q 553 415 508 442 l 553 442 q 497 553 553 521 q 353 586 440 586 q 221 570 286 586 q 93 517 156 554 l 93 625 q 209 665 140 646 q 357 683 278 683 q 508 655 438 683 q 623 570 579 626 q 667 428 667 514 l 667 0 l 550 68 q 450 6 503 26 q 326 -15 397 -15 m 351 79 q 469 103 419 79 q 553 169 518 128 l 553 317 q 472 353 518 336 q 358 369 425 369 q 268 356 314 369 q 192 310 222 342 q 163 224 163 278 q 189 142 163 175 q 258 94 215 110 q 351 79 301 79 m 329 842 l 174 1040 l 274 1040 l 381 921 l 489 1040 l 588 1040 l 433 842 l 329 842 z "},"â":{"ha":761,"x_min":49,"x_max":667,"o":"m 326 -15 q 197 10 261 -15 q 90 92 132 36 q 49 238 49 149 q 74 346 49 303 q 143 415 100 389 q 238 451 186 440 q 342 463 290 463 q 455 452 401 463 q 553 415 508 442 l 553 442 q 497 553 553 521 q 353 586 440 586 q 221 570 286 586 q 93 517 156 554 l 93 625 q 209 665 140 646 q 357 683 278 683 q 508 655 438 683 q 623 570 579 626 q 667 428 667 514 l 667 0 l 550 68 q 450 6 503 26 q 326 -15 397 -15 m 351 79 q 469 103 419 79 q 553 169 518 128 l 553 317 q 472 353 518 336 q 358 369 425 369 q 268 356 314 369 q 192 310 222 342 q 163 224 163 278 q 189 142 163 175 q 258 94 215 110 q 351 79 301 79 m 179 868 l 328 1064 l 429 1064 l 576 868 l 485 868 l 376 982 l 271 868 l 179 868 z "},"ä":{"ha":761,"x_min":49,"x_max":667,"o":"m 326 -15 q 197 10 261 -15 q 90 92 132 36 q 49 238 49 149 q 74 346 49 303 q 143 415 100 389 q 238 451 186 440 q 342 463 290 463 q 455 452 401 463 q 553 415 508 442 l 553 442 q 497 553 553 521 q 353 586 440 586 q 221 570 286 586 q 93 517 156 554 l 93 625 q 209 665 140 646 q 357 683 278 683 q 508 655 438 683 q 623 570 579 626 q 667 428 667 514 l 667 0 l 550 68 q 450 6 503 26 q 326 -15 397 -15 m 351 79 q 469 103 419 79 q 553 169 518 128 l 553 317 q 472 353 518 336 q 358 369 425 369 q 268 356 314 369 q 192 310 222 342 q 163 224 163 278 q 189 142 163 175 q 258 94 215 110 q 351 79 301 79 m 251 869 q 192 893 215 869 q 169 951 169 917 q 193 1010 169 986 q 251 1033 217 1033 q 310 1009 285 1033 q 335 951 335 985 q 310 893 335 917 q 251 869 285 869 m 515 869 q 459 893 482 869 q 436 951 436 917 q 459 1009 436 985 q 515 1033 482 1033 q 574 1009 551 1033 q 597 951 597 985 q 574 893 597 917 q 515 869 551 869 z "},"à":{"ha":761,"x_min":49,"x_max":667,"o":"m 326 -15 q 197 10 261 -15 q 90 92 132 36 q 49 238 49 149 q 74 346 49 303 q 143 415 100 389 q 238 451 186 440 q 342 463 290 463 q 455 452 401 463 q 553 415 508 442 l 553 442 q 497 553 553 521 q 353 586 440 586 q 221 570 286 586 q 93 517 156 554 l 93 625 q 209 665 140 646 q 357 683 278 683 q 508 655 438 683 q 623 570 579 626 q 667 428 667 514 l 667 0 l 550 68 q 450 6 503 26 q 326 -15 397 -15 m 351 79 q 469 103 419 79 q 553 169 518 128 l 553 317 q 472 353 518 336 q 358 369 425 369 q 268 356 314 369 q 192 310 222 342 q 163 224 163 278 q 189 142 163 175 q 258 94 215 110 q 351 79 301 79 m 363 856 l 188 1035 l 318 1063 l 450 856 l 363 856 z "},"ā":{"ha":761,"x_min":49,"x_max":667,"o":"m 326 -15 q 197 10 261 -15 q 90 92 132 36 q 49 238 49 149 q 74 346 49 303 q 143 415 100 389 q 238 451 186 440 q 342 463 290 463 q 455 452 401 463 q 553 415 508 442 l 553 442 q 497 553 553 521 q 353 586 440 586 q 221 570 286 586 q 93 517 156 554 l 93 625 q 209 665 140 646 q 357 683 278 683 q 508 655 438 683 q 623 570 579 626 q 667 428 667 514 l 667 0 l 550 68 q 450 6 503 26 q 326 -15 397 -15 m 351 79 q 469 103 419 79 q 553 169 518 128 l 553 317 q 472 353 518 336 q 358 369 425 369 q 268 356 314 369 q 192 310 222 342 q 163 224 163 278 q 189 142 163 175 q 258 94 215 110 q 351 79 301 79 m 165 849 l 165 928 l 583 928 l 583 849 l 165 849 z "},"ą":{"ha":761,"x_min":49,"x_max":765,"o":"m 326 -15 q 197 10 261 -15 q 90 92 132 36 q 49 238 49 149 q 74 346 49 303 q 143 415 100 389 q 238 451 186 440 q 342 463 290 463 q 455 452 401 463 q 553 415 508 442 l 553 442 q 497 553 553 521 q 353 586 440 586 q 221 570 286 586 q 93 517 156 554 l 93 625 q 209 665 140 646 q 357 683 278 683 q 508 655 438 683 q 623 570 579 626 q 667 428 667 514 l 667 0 l 550 68 q 450 6 503 26 q 326 -15 397 -15 m 351 79 q 469 103 419 79 q 553 169 518 128 l 553 317 q 472 353 518 336 q 358 369 425 369 q 268 356 314 369 q 192 310 222 342 q 163 224 163 278 q 189 142 163 175 q 258 94 215 110 q 351 79 301 79 m 671 -274 q 560 -237 604 -274 q 515 -139 515 -201 q 539 -54 515 -99 q 618 43 563 -10 l 667 0 q 626 -65 642 -36 q 610 -124 610 -94 q 630 -180 610 -156 q 690 -204 650 -204 q 718 -201 704 -204 q 751 -193 732 -199 l 765 -253 q 716 -269 739 -264 q 671 -274 693 -274 z "},"å":{"ha":761,"x_min":49,"x_max":667,"o":"m 326 -15 q 197 10 261 -15 q 90 92 132 36 q 49 238 49 149 q 74 346 49 303 q 143 415 100 389 q 238 451 186 440 q 342 463 290 463 q 455 452 401 463 q 553 415 508 442 l 553 442 q 497 553 553 521 q 353 586 440 586 q 221 570 286 586 q 93 517 156 554 l 93 625 q 209 665 140 646 q 357 683 278 683 q 508 655 438 683 q 623 570 579 626 q 667 428 667 514 l 667 0 l 550 68 q 450 6 503 26 q 326 -15 397 -15 m 351 79 q 469 103 419 79 q 553 169 518 128 l 553 317 q 472 353 518 336 q 358 369 425 369 q 268 356 314 369 q 192 310 222 342 q 163 224 163 278 q 189 142 163 175 q 258 94 215 110 q 351 79 301 79 m 364 826 q 296 844 328 826 q 244 894 264 863 q 225 964 225 925 q 244 1035 225 1003 q 296 1085 264 1067 q 364 1104 328 1104 q 436 1085 404 1104 q 488 1033 468 1065 q 507 961 507 1001 q 488 892 507 922 q 436 844 468 861 q 364 826 404 826 m 367 888 q 424 910 403 888 q 446 964 446 932 q 423 1020 446 997 q 367 1043 400 1043 q 309 1020 332 1043 q 286 965 286 997 q 310 908 286 929 q 367 888 333 888 z "},"ã":{"ha":761,"x_min":49,"x_max":667,"o":"m 326 -15 q 197 10 261 -15 q 90 92 132 36 q 49 238 49 149 q 74 346 49 303 q 143 415 100 389 q 238 451 186 440 q 342 463 290 463 q 455 452 401 463 q 553 415 508 442 l 553 442 q 497 553 553 521 q 353 586 440 586 q 221 570 286 586 q 93 517 156 554 l 93 625 q 209 665 140 646 q 357 683 278 683 q 508 655 438 683 q 623 570 579 626 q 667 428 667 514 l 667 0 l 550 68 q 450 6 503 26 q 326 -15 397 -15 m 351 79 q 469 103 419 79 q 553 169 518 128 l 553 317 q 472 353 518 336 q 358 369 425 369 q 268 356 314 369 q 192 310 222 342 q 163 224 163 278 q 189 142 163 175 q 258 94 215 110 q 351 79 301 79 m 232 844 l 157 858 q 214 964 176 925 q 306 1003 251 1003 q 369 990 339 1003 q 425 965 399 978 q 476 951 451 951 q 515 967 500 951 q 542 1014 531 983 l 615 1000 q 565 895 596 933 q 485 857 533 857 q 427 870 456 857 q 371 896 399 883 q 314 908 343 908 q 266 894 289 908 q 232 844 243 879 z "},"æ":{"ha":1243,"x_min":43,"x_max":1197,"o":"m 900 -15 q 749 16 819 -15 q 629 111 679 47 q 489 16 568 47 q 321 -15 410 -15 q 184 16 247 -15 q 82 104 121 47 q 43 238 43 161 q 69 346 43 303 q 138 415 94 389 q 233 451 181 440 q 336 463 285 463 q 449 452 396 463 q 547 415 503 442 l 547 442 q 491 553 547 521 q 347 586 435 586 q 213 569 279 586 q 88 517 146 553 l 88 625 q 203 665 135 646 q 351 683 272 683 q 454 671 403 683 q 550 631 506 658 q 624 558 594 603 q 727 653 664 618 q 874 688 790 688 q 1002 663 946 688 q 1099 593 1058 638 q 1165 492 1140 549 q 1197 369 1189 435 l 676 243 q 758 127 700 172 q 907 82 815 82 q 992 94 953 82 q 1068 128 1032 106 q 1136 183 1104 151 l 1136 61 q 1035 6 1094 28 q 900 -15 975 -15 m 346 79 q 463 103 414 79 q 547 169 513 128 l 547 317 q 466 353 513 336 q 353 369 419 369 q 263 356 308 369 q 187 310 217 342 q 157 224 157 278 q 183 142 157 175 q 253 94 210 110 q 346 79 296 79 m 664 343 l 1082 439 q 1010 547 1064 503 q 878 590 957 590 q 763 556 811 590 q 690 465 715 521 q 664 343 664 408 z "},"ǽ":{"ha":1243,"x_min":43,"x_max":1197,"o":"m 900 -15 q 749 16 819 -15 q 629 111 679 47 q 489 16 568 47 q 321 -15 410 -15 q 184 16 247 -15 q 82 104 121 47 q 43 238 43 161 q 69 346 43 303 q 138 415 94 389 q 233 451 181 440 q 336 463 285 463 q 449 452 396 463 q 547 415 503 442 l 547 442 q 491 553 547 521 q 347 586 435 586 q 213 569 279 586 q 88 517 146 553 l 88 625 q 203 665 135 646 q 351 683 272 683 q 454 671 403 683 q 550 631 506 658 q 624 558 594 603 q 727 653 664 618 q 874 688 790 688 q 1002 663 946 688 q 1099 593 1058 638 q 1165 492 1140 549 q 1197 369 1189 435 l 676 243 q 758 127 700 172 q 907 82 815 82 q 992 94 953 82 q 1068 128 1032 106 q 1136 183 1104 151 l 1136 61 q 1035 6 1094 28 q 900 -15 975 -15 m 346 79 q 463 103 414 79 q 547 169 513 128 l 547 317 q 466 353 513 336 q 353 369 419 369 q 263 356 308 369 q 187 310 217 342 q 157 224 157 278 q 183 142 157 175 q 253 94 210 110 q 346 79 296 79 m 664 343 l 1082 439 q 1010 547 1064 503 q 878 590 957 590 q 763 556 811 590 q 690 465 715 521 q 664 343 664 408 m 593 842 l 719 1049 l 853 1021 l 675 842 l 593 842 z "},"b":{"ha":842,"x_min":93,"x_max":794,"o":"m 463 -14 q 219 99 314 -14 l 93 1 l 93 1017 l 207 1017 l 207 547 q 317 648 251 610 q 465 686 382 686 q 631 642 557 686 q 750 519 706 599 q 794 335 794 440 q 749 152 794 231 q 629 30 704 74 q 463 -14 554 -14 m 442 82 q 565 114 511 82 q 649 203 618 146 q 681 333 681 260 q 651 460 681 403 q 569 551 622 517 q 442 586 515 586 q 322 553 376 586 q 235 465 268 521 q 203 335 203 408 q 235 206 203 264 q 322 115 268 149 q 442 82 376 82 z "},"c":{"ha":653,"x_min":49,"x_max":590,"o":"m 385 -12 q 252 14 314 -12 q 144 87 190 40 q 74 197 99 133 q 49 333 49 260 q 92 510 49 431 q 213 636 135 589 q 394 683 292 683 q 495 669 444 683 q 583 628 546 656 l 583 499 q 497 564 544 540 q 393 588 449 588 q 274 556 326 588 q 193 468 222 524 q 164 343 164 413 q 194 214 164 274 q 278 119 225 154 q 397 83 332 83 q 504 108 456 83 q 590 174 553 133 l 590 49 q 499 6 550 24 q 385 -12 447 -12 z "},"ć":{"ha":653,"x_min":49,"x_max":590,"o":"m 385 -12 q 252 14 314 -12 q 144 87 190 40 q 74 197 99 133 q 49 333 49 260 q 92 510 49 431 q 213 636 135 589 q 394 683 292 683 q 495 669 444 683 q 583 628 546 656 l 583 499 q 497 564 544 540 q 393 588 449 588 q 274 556 326 588 q 193 468 222 524 q 164 343 164 413 q 194 214 164 274 q 278 119 225 154 q 397 83 332 83 q 504 108 456 83 q 590 174 553 133 l 590 49 q 499 6 550 24 q 385 -12 447 -12 m 322 856 l 449 1063 l 582 1035 l 404 856 l 322 856 z "},"č":{"ha":653,"x_min":49,"x_max":590,"o":"m 385 -12 q 252 14 314 -12 q 144 87 190 40 q 74 197 99 133 q 49 333 49 260 q 92 510 49 431 q 213 636 135 589 q 394 683 292 683 q 495 669 444 683 q 583 628 546 656 l 583 499 q 497 564 544 540 q 393 588 449 588 q 274 556 326 588 q 193 468 222 524 q 164 343 164 413 q 194 214 164 274 q 278 119 225 154 q 397 83 332 83 q 504 108 456 83 q 590 174 553 133 l 590 49 q 499 6 550 24 q 385 -12 447 -12 m 314 842 l 158 1040 l 258 1040 l 365 921 l 474 1040 l 572 1040 l 418 842 l 314 842 z "},"ç":{"ha":653,"x_min":49,"x_max":590,"o":"m 385 -12 q 252 14 314 -12 q 144 87 190 40 q 74 197 99 133 q 49 333 49 260 q 92 510 49 431 q 213 636 135 589 q 394 683 292 683 q 495 669 444 683 q 583 628 546 656 l 583 499 q 497 564 544 540 q 393 588 449 588 q 274 556 326 588 q 193 468 222 524 q 164 343 164 413 q 194 214 164 274 q 278 119 225 154 q 397 83 332 83 q 504 108 456 83 q 590 174 553 133 l 590 49 q 499 6 550 24 q 385 -12 447 -12 m 315 -307 q 254 -299 282 -307 q 200 -279 226 -292 l 215 -222 q 251 -233 235 -229 q 283 -236 268 -236 q 321 -231 300 -236 q 358 -211 342 -225 q 374 -174 374 -197 q 358 -141 374 -151 q 317 -131 342 -131 q 296 -133 306 -131 q 274 -140 286 -135 l 250 -122 l 333 0 l 424 0 l 367 -97 l 371 -97 q 419 -105 393 -97 q 463 -132 444 -112 q 482 -187 482 -151 q 455 -257 482 -231 q 390 -295 428 -283 q 315 -307 351 -307 z "},"ĉ":{"ha":653,"x_min":49,"x_max":590,"o":"m 385 -12 q 252 14 314 -12 q 144 87 190 40 q 74 197 99 133 q 49 333 49 260 q 92 510 49 431 q 213 636 135 589 q 394 683 292 683 q 495 669 444 683 q 583 628 546 656 l 583 499 q 497 564 544 540 q 393 588 449 588 q 274 556 326 588 q 193 468 222 524 q 164 343 164 413 q 194 214 164 274 q 278 119 225 154 q 397 83 332 83 q 504 108 456 83 q 590 174 553 133 l 590 49 q 499 6 550 24 q 385 -12 447 -12 m 183 868 l 332 1064 l 433 1064 l 581 868 l 489 868 l 381 982 l 275 868 l 183 868 z "},"ċ":{"ha":613,"x_min":42,"x_max":583,"o":"m 378 -12 q 245 14 307 -12 q 138 87 183 40 q 67 197 92 133 q 42 333 42 260 q 85 510 42 431 q 206 636 128 589 q 388 683 285 683 q 488 669 438 683 q 576 628 539 656 l 576 499 q 490 564 538 540 q 386 588 442 588 q 267 556 319 588 q 186 468 215 524 q 157 343 157 413 q 188 214 157 274 q 272 119 218 154 q 390 83 325 83 q 497 108 449 83 q 583 174 546 133 l 583 49 q 492 6 543 24 q 378 -12 440 -12 m 364 860 q 306 885 331 860 q 281 942 281 910 q 305 1002 281 978 q 364 1026 329 1026 q 424 1003 400 1026 q 449 942 449 979 q 424 885 449 910 q 364 860 400 860 z "},"d":{"ha":842,"x_min":49,"x_max":747,"o":"m 381 -14 q 215 29 290 -14 q 94 151 139 72 q 49 335 49 229 q 94 520 49 442 q 213 642 139 599 q 376 686 288 686 q 526 651 461 686 q 633 553 590 615 l 633 1017 l 747 1017 l 747 1 l 619 107 q 518 19 574 51 q 381 -14 463 -14 m 394 83 q 516 116 461 83 q 604 206 571 149 q 638 338 638 264 q 603 467 638 410 q 514 556 569 524 q 394 589 458 589 q 278 557 331 589 q 195 469 226 525 q 164 336 164 413 q 192 212 164 269 q 271 119 219 154 q 394 83 322 83 z "},"ď":{"ha":842,"x_min":49,"x_max":944,"o":"m 381 -14 q 215 29 290 -14 q 94 151 139 72 q 49 335 49 229 q 94 520 49 442 q 213 642 139 599 q 376 686 288 686 q 526 651 461 686 q 633 553 590 615 l 633 1017 l 747 1017 l 747 1 l 619 107 q 518 19 574 51 q 381 -14 463 -14 m 394 83 q 516 116 461 83 q 604 206 571 149 q 638 338 638 264 q 603 467 638 410 q 514 556 569 524 q 394 589 458 589 q 278 557 331 589 q 195 469 226 525 q 164 336 164 413 q 192 212 164 269 q 271 119 219 154 q 394 83 322 83 m 789 822 l 829 1056 l 944 1056 l 878 822 l 789 822 z "},"đ":{"ha":810,"x_min":49,"x_max":817,"o":"m 381 -14 q 215 29 290 -14 q 94 151 139 72 q 49 335 49 229 q 94 520 49 442 q 213 642 139 599 q 376 686 288 686 q 526 651 461 686 q 633 553 590 615 l 633 1017 l 747 1017 l 747 1 l 619 107 q 518 19 574 51 q 381 -14 463 -14 m 394 83 q 516 116 461 83 q 604 206 571 149 q 638 338 638 264 q 603 467 638 410 q 514 556 569 524 q 394 589 458 589 q 278 557 331 589 q 195 469 226 525 q 164 336 164 413 q 192 212 164 269 q 271 119 219 154 q 394 83 322 83 m 440 811 l 440 918 l 817 918 l 817 811 l 440 811 z "},"ð":{"ha":738,"x_min":49,"x_max":689,"o":"m 369 -15 q 244 10 303 -15 q 142 78 186 35 q 74 181 99 122 q 49 306 49 239 q 88 460 49 388 q 197 579 126 533 q 360 625 267 625 q 458 610 417 625 q 524 574 499 594 q 563 542 550 554 q 472 710 531 633 q 342 853 413 786 l 169 738 l 118 790 l 288 904 q 233 948 271 919 q 125 1021 196 976 l 182 1081 q 255 1034 226 1053 q 308 997 283 1015 q 361 953 332 979 l 540 1072 l 592 1019 l 418 903 q 486 831 442 879 q 577 710 531 782 q 656 544 624 639 q 689 333 689 450 q 660 176 689 242 q 583 67 631 110 q 479 5 535 25 q 369 -15 424 -15 m 371 81 q 484 112 436 81 q 559 194 532 143 q 586 307 586 246 q 560 418 586 367 q 485 501 533 469 q 372 533 438 533 q 259 503 308 533 q 182 422 210 474 q 154 307 154 371 q 182 194 154 246 q 258 112 210 143 q 371 81 307 81 z "},"e":{"ha":740,"x_min":49,"x_max":693,"o":"m 396 -15 q 218 29 297 -15 q 94 152 139 74 q 49 332 49 231 q 88 513 49 432 q 200 640 128 593 q 369 688 272 688 q 498 663 442 688 q 595 593 554 638 q 660 492 636 549 q 693 369 685 435 l 172 243 q 253 127 196 172 q 403 82 311 82 q 488 94 449 82 q 564 128 528 106 q 632 183 600 151 l 632 61 q 530 6 590 28 q 396 -15 469 -15 m 165 333 l 578 439 q 506 547 560 503 q 374 590 453 590 q 256 554 304 590 q 184 463 208 518 q 160 346 160 407 l 165 333 z "},"é":{"ha":740,"x_min":49,"x_max":693,"o":"m 396 -15 q 218 29 297 -15 q 94 152 139 74 q 49 332 49 231 q 88 513 49 432 q 200 640 128 593 q 369 688 272 688 q 498 663 442 688 q 595 593 554 638 q 660 492 636 549 q 693 369 685 435 l 172 243 q 253 127 196 172 q 403 82 311 82 q 488 94 449 82 q 564 128 528 106 q 632 183 600 151 l 632 61 q 530 6 590 28 q 396 -15 469 -15 m 165 333 l 578 439 q 506 547 560 503 q 374 590 453 590 q 256 554 304 590 q 184 463 208 518 q 160 346 160 407 l 165 333 m 329 856 l 456 1063 l 589 1035 l 411 856 l 329 856 z "},"ĕ":{"ha":740,"x_min":49,"x_max":693,"o":"m 396 -15 q 218 29 297 -15 q 94 152 139 74 q 49 332 49 231 q 88 513 49 432 q 200 640 128 593 q 369 688 272 688 q 498 663 442 688 q 595 593 554 638 q 660 492 636 549 q 693 369 685 435 l 172 243 q 253 127 196 172 q 403 82 311 82 q 488 94 449 82 q 564 128 528 106 q 632 183 600 151 l 632 61 q 530 6 590 28 q 396 -15 469 -15 m 165 333 l 578 439 q 506 547 560 503 q 374 590 453 590 q 256 554 304 590 q 184 463 208 518 q 160 346 160 407 l 165 333 m 381 836 q 280 860 324 836 q 210 927 236 883 q 175 1029 183 971 l 250 1029 q 298 954 263 981 q 385 928 333 928 q 469 954 435 928 q 515 1029 503 981 l 590 1029 q 557 927 585 971 q 484 860 529 883 q 381 836 439 836 z "},"ě":{"ha":740,"x_min":49,"x_max":693,"o":"m 396 -15 q 218 29 297 -15 q 94 152 139 74 q 49 332 49 231 q 88 513 49 432 q 200 640 128 593 q 369 688 272 688 q 498 663 442 688 q 595 593 554 638 q 660 492 636 549 q 693 369 685 435 l 172 243 q 253 127 196 172 q 403 82 311 82 q 488 94 449 82 q 564 128 528 106 q 632 183 600 151 l 632 61 q 530 6 590 28 q 396 -15 469 -15 m 165 333 l 578 439 q 506 547 560 503 q 374 590 453 590 q 256 554 304 590 q 184 463 208 518 q 160 346 160 407 l 165 333 m 319 842 l 164 1040 l 264 1040 l 371 921 l 479 1040 l 578 1040 l 424 842 l 319 842 z "},"ê":{"ha":740,"x_min":49,"x_max":693,"o":"m 396 -15 q 218 29 297 -15 q 94 152 139 74 q 49 332 49 231 q 88 513 49 432 q 200 640 128 593 q 369 688 272 688 q 498 663 442 688 q 595 593 554 638 q 660 492 636 549 q 693 369 685 435 l 172 243 q 253 127 196 172 q 403 82 311 82 q 488 94 449 82 q 564 128 528 106 q 632 183 600 151 l 632 61 q 530 6 590 28 q 396 -15 469 -15 m 165 333 l 578 439 q 506 547 560 503 q 374 590 453 590 q 256 554 304 590 q 184 463 208 518 q 160 346 160 407 l 165 333 m 183 868 l 332 1064 l 433 1064 l 581 868 l 489 868 l 381 982 l 275 868 l 183 868 z "},"ë":{"ha":740,"x_min":49,"x_max":693,"o":"m 396 -15 q 218 29 297 -15 q 94 152 139 74 q 49 332 49 231 q 88 513 49 432 q 200 640 128 593 q 369 688 272 688 q 498 663 442 688 q 595 593 554 638 q 660 492 636 549 q 693 369 685 435 l 172 243 q 253 127 196 172 q 403 82 311 82 q 488 94 449 82 q 564 128 528 106 q 632 183 600 151 l 632 61 q 530 6 590 28 q 396 -15 469 -15 m 165 333 l 578 439 q 506 547 560 503 q 374 590 453 590 q 256 554 304 590 q 184 463 208 518 q 160 346 160 407 l 165 333 m 256 869 q 197 893 219 869 q 174 951 174 917 q 197 1010 174 986 q 256 1033 221 1033 q 314 1009 289 1033 q 339 951 339 985 q 314 893 339 917 q 256 869 289 869 m 519 869 q 463 893 486 869 q 440 951 440 917 q 463 1009 440 985 q 519 1033 486 1033 q 578 1009 556 1033 q 601 951 601 985 q 578 893 601 917 q 519 869 556 869 z "},"ė":{"ha":740,"x_min":49,"x_max":693,"o":"m 396 -15 q 218 29 297 -15 q 94 152 139 74 q 49 332 49 231 q 88 513 49 432 q 200 640 128 593 q 369 688 272 688 q 498 663 442 688 q 595 593 554 638 q 660 492 636 549 q 693 369 685 435 l 172 243 q 253 127 196 172 q 403 82 311 82 q 488 94 449 82 q 564 128 528 106 q 632 183 600 151 l 632 61 q 530 6 590 28 q 396 -15 469 -15 m 165 333 l 578 439 q 506 547 560 503 q 374 590 453 590 q 256 554 304 590 q 184 463 208 518 q 160 346 160 407 l 165 333 m 378 860 q 319 885 344 860 q 294 942 294 910 q 319 1002 294 978 q 378 1026 343 1026 q 438 1003 414 1026 q 463 942 463 979 q 438 885 463 910 q 378 860 414 860 z "},"è":{"ha":740,"x_min":49,"x_max":693,"o":"m 396 -15 q 218 29 297 -15 q 94 152 139 74 q 49 332 49 231 q 88 513 49 432 q 200 640 128 593 q 369 688 272 688 q 498 663 442 688 q 595 593 554 638 q 660 492 636 549 q 693 369 685 435 l 172 243 q 253 127 196 172 q 403 82 311 82 q 488 94 449 82 q 564 128 528 106 q 632 183 600 151 l 632 61 q 530 6 590 28 q 396 -15 469 -15 m 165 333 l 578 439 q 506 547 560 503 q 374 590 453 590 q 256 554 304 590 q 184 463 208 518 q 160 346 160 407 l 165 333 m 331 856 l 156 1035 l 286 1063 l 418 856 l 331 856 z "},"ē":{"ha":740,"x_min":49,"x_max":693,"o":"m 396 -15 q 218 29 297 -15 q 94 152 139 74 q 49 332 49 231 q 88 513 49 432 q 200 640 128 593 q 369 688 272 688 q 498 663 442 688 q 595 593 554 638 q 660 492 636 549 q 693 369 685 435 l 172 243 q 253 127 196 172 q 403 82 311 82 q 488 94 449 82 q 564 128 528 106 q 632 183 600 151 l 632 61 q 530 6 590 28 q 396 -15 469 -15 m 165 333 l 578 439 q 506 547 560 503 q 374 590 453 590 q 256 554 304 590 q 184 463 208 518 q 160 346 160 407 l 165 333 m 171 849 l 171 928 l 589 928 l 589 849 l 171 849 z "},"ę":{"ha":740,"x_min":49,"x_max":693,"o":"m 396 -15 q 218 29 297 -15 q 94 152 139 74 q 49 332 49 231 q 88 513 49 432 q 200 640 128 593 q 369 688 272 688 q 498 663 442 688 q 595 593 554 638 q 660 492 636 549 q 693 369 685 435 l 172 243 q 253 127 196 172 q 403 82 311 82 q 488 94 449 82 q 564 128 528 106 q 632 183 600 151 l 632 61 q 530 6 590 28 q 396 -15 469 -15 m 165 333 l 578 439 q 506 547 560 503 q 374 590 453 590 q 256 554 304 590 q 184 463 208 518 q 160 346 160 407 l 165 333 m 556 -274 q 444 -240 489 -274 q 400 -144 400 -207 q 420 -65 400 -101 q 468 0 440 -28 l 632 61 q 548 -18 578 17 q 506 -79 518 -53 q 494 -128 494 -106 q 517 -183 494 -161 q 575 -204 539 -204 q 603 -201 589 -204 q 636 -193 617 -199 l 650 -253 q 601 -269 624 -264 q 556 -274 578 -274 z "},"f":{"ha":447,"x_min":17,"x_max":453,"o":"m 153 0 l 153 574 l 17 574 l 153 672 l 153 774 q 211 965 153 907 q 368 1022 269 1022 q 415 1018 393 1022 q 453 1008 436 1014 l 453 914 q 417 924 435 921 q 382 928 400 928 q 290 887 317 928 q 263 768 263 846 l 263 669 l 431 669 l 431 574 l 263 574 l 263 0 l 153 0 z "},"g":{"ha":849,"x_min":54,"x_max":753,"o":"m 381 -269 q 231 -251 300 -269 q 111 -204 161 -232 l 111 -79 q 192 -131 150 -110 q 282 -162 235 -151 q 381 -172 329 -172 q 575 -114 510 -172 q 640 76 640 -56 l 640 160 q 528 62 592 97 q 381 26 465 26 q 215 68 289 26 q 97 183 140 110 q 54 351 54 257 q 99 527 54 451 q 217 644 143 603 q 381 686 292 686 q 523 655 464 686 q 625 572 582 624 l 753 669 l 753 78 q 706 -113 753 -36 q 574 -230 658 -190 q 381 -269 490 -269 m 403 124 q 522 153 468 124 q 608 235 576 183 q 640 354 640 288 q 608 476 640 424 q 522 559 576 529 q 401 589 468 589 q 283 560 335 589 q 201 479 231 531 q 171 358 171 428 q 200 240 171 293 q 282 155 229 186 q 403 124 335 124 z "},"ğ":{"ha":849,"x_min":54,"x_max":753,"o":"m 381 -269 q 231 -251 300 -269 q 111 -204 161 -232 l 111 -79 q 192 -131 150 -110 q 282 -162 235 -151 q 381 -172 329 -172 q 575 -114 510 -172 q 640 76 640 -56 l 640 160 q 528 62 592 97 q 381 26 465 26 q 215 68 289 26 q 97 183 140 110 q 54 351 54 257 q 99 527 54 451 q 217 644 143 603 q 381 686 292 686 q 523 655 464 686 q 625 572 582 624 l 753 669 l 753 78 q 706 -113 753 -36 q 574 -230 658 -190 q 381 -269 490 -269 m 403 124 q 522 153 468 124 q 608 235 576 183 q 640 354 640 288 q 608 476 640 424 q 522 559 576 529 q 401 589 468 589 q 283 560 335 589 q 201 479 231 531 q 171 358 171 428 q 200 240 171 293 q 282 155 229 186 q 403 124 335 124 m 425 836 q 324 860 368 836 q 254 927 281 883 q 219 1029 228 971 l 294 1029 q 342 954 307 981 q 429 928 378 928 q 513 954 479 928 q 560 1029 547 981 l 635 1029 q 601 927 629 971 q 528 860 574 883 q 425 836 483 836 z "},"ĝ":{"ha":849,"x_min":54,"x_max":753,"o":"m 381 -269 q 231 -251 300 -269 q 111 -204 161 -232 l 111 -79 q 192 -131 150 -110 q 282 -162 235 -151 q 381 -172 329 -172 q 575 -114 510 -172 q 640 76 640 -56 l 640 160 q 528 62 592 97 q 381 26 465 26 q 215 68 289 26 q 97 183 140 110 q 54 351 54 257 q 99 527 54 451 q 217 644 143 603 q 381 686 292 686 q 523 655 464 686 q 625 572 582 624 l 753 669 l 753 78 q 706 -113 753 -36 q 574 -230 658 -190 q 381 -269 490 -269 m 403 124 q 522 153 468 124 q 608 235 576 183 q 640 354 640 288 q 608 476 640 424 q 522 559 576 529 q 401 589 468 589 q 283 560 335 589 q 201 479 231 531 q 171 358 171 428 q 200 240 171 293 q 282 155 229 186 q 403 124 335 124 m 228 868 l 376 1064 l 478 1064 l 625 868 l 533 868 l 425 982 l 319 868 l 228 868 z "},"ģ":{"ha":849,"x_min":54,"x_max":753,"o":"m 381 -269 q 231 -251 300 -269 q 111 -204 161 -232 l 111 -79 q 192 -131 150 -110 q 282 -162 235 -151 q 381 -172 329 -172 q 575 -114 510 -172 q 640 76 640 -56 l 640 160 q 528 62 592 97 q 381 26 465 26 q 215 68 289 26 q 97 183 140 110 q 54 351 54 257 q 99 527 54 451 q 217 644 143 603 q 381 686 292 686 q 523 655 464 686 q 625 572 582 624 l 753 669 l 753 78 q 706 -113 753 -36 q 574 -230 658 -190 q 381 -269 490 -269 m 403 124 q 522 153 468 124 q 608 235 576 183 q 640 354 640 288 q 608 476 640 424 q 522 559 576 529 q 401 589 468 589 q 283 560 335 589 q 201 479 231 531 q 171 358 171 428 q 200 240 171 293 q 282 155 229 186 q 403 124 335 124 m 365 793 l 449 1065 l 540 1065 l 479 793 l 365 793 z "},"ġ":{"ha":849,"x_min":54,"x_max":753,"o":"m 381 -269 q 231 -251 300 -269 q 111 -204 161 -232 l 111 -79 q 192 -131 150 -110 q 282 -162 235 -151 q 381 -172 329 -172 q 575 -114 510 -172 q 640 76 640 -56 l 640 160 q 528 62 592 97 q 381 26 465 26 q 215 68 289 26 q 97 183 140 110 q 54 351 54 257 q 99 527 54 451 q 217 644 143 603 q 381 686 292 686 q 523 655 464 686 q 625 572 582 624 l 753 669 l 753 78 q 706 -113 753 -36 q 574 -230 658 -190 q 381 -269 490 -269 m 403 124 q 522 153 468 124 q 608 235 576 183 q 640 354 640 288 q 608 476 640 424 q 522 559 576 529 q 401 589 468 589 q 283 560 335 589 q 201 479 231 531 q 171 358 171 428 q 200 240 171 293 q 282 155 229 186 q 403 124 335 124 m 421 860 q 363 885 388 860 q 338 942 338 910 q 362 1002 338 978 q 421 1026 386 1026 q 481 1003 457 1026 q 506 942 506 979 q 481 885 506 910 q 421 860 457 860 z "},"h":{"ha":753,"x_min":93,"x_max":668,"o":"m 93 0 l 93 1017 l 196 1017 l 196 578 q 292 653 232 622 q 429 685 353 685 q 564 653 511 685 q 642 563 617 622 q 668 421 668 504 l 668 0 l 554 0 l 554 389 q 517 526 554 481 q 400 572 479 572 q 306 552 350 572 q 235 492 263 532 q 207 389 207 451 l 207 0 l 93 0 z "},"ħ":{"ha":750,"x_min":-62,"x_max":663,"o":"m 88 0 l 88 1017 l 190 1017 l 190 578 q 287 653 226 622 q 424 685 347 685 q 558 653 506 685 q 637 563 611 622 q 663 421 663 504 l 663 0 l 549 0 l 549 389 q 511 526 549 481 q 394 572 474 572 q 301 552 344 572 q 229 492 257 532 q 201 389 201 451 l 201 0 l 88 0 m -62 849 l -62 928 l 356 928 l 356 849 l -62 849 z "},"ĥ":{"ha":753,"x_min":-50,"x_max":668,"o":"m 93 0 l 93 1017 l 196 1017 l 196 578 q 292 653 232 622 q 429 685 353 685 q 564 653 511 685 q 642 563 617 622 q 668 421 668 504 l 668 0 l 554 0 l 554 389 q 517 526 554 481 q 400 572 479 572 q 306 552 350 572 q 235 492 263 532 q 207 389 207 451 l 207 0 l 93 0 m -50 1097 l 99 1293 l 200 1293 l 347 1097 l 256 1097 l 147 1211 l 42 1097 l -50 1097 z "},"i":{"ha":318,"x_min":74,"x_max":242,"o":"m 103 0 l 103 669 l 215 669 l 215 0 l 103 0 m 157 803 q 99 828 124 803 q 74 885 74 853 q 98 945 74 921 q 157 969 122 969 q 217 946 193 969 q 242 885 242 922 q 217 828 242 853 q 157 803 193 803 z "},"ı":{"ha":301,"x_min":93,"x_max":206,"o":"m 93 0 l 93 669 l 206 669 l 206 0 l 93 0 z "},"í":{"ha":276,"x_min":88,"x_max":356,"o":"m 88 0 l 88 669 l 200 669 l 200 0 l 88 0 m 96 856 l 222 1063 l 356 1035 l 178 856 l 96 856 z "},"ĭ":{"ha":301,"x_min":-57,"x_max":358,"o":"m 93 0 l 93 669 l 206 669 l 206 0 l 93 0 m 149 836 q 48 860 92 836 q -22 927 4 883 q -57 1029 -49 971 l 18 1029 q 66 954 31 981 q 153 928 101 928 q 237 954 203 928 q 283 1029 271 981 l 358 1029 q 325 927 353 971 q 252 860 297 883 q 149 836 207 836 z "},"î":{"ha":301,"x_min":-46,"x_max":351,"o":"m 93 0 l 93 669 l 206 669 l 206 0 l 93 0 m -46 868 l 103 1064 l 204 1064 l 351 868 l 260 868 l 151 982 l 46 868 l -46 868 z "},"ï":{"ha":325,"x_min":-37,"x_max":390,"o":"m 113 0 l 113 669 l 225 669 l 225 0 l 113 0 m 44 869 q -15 893 8 869 q -37 951 -37 917 q -14 1010 -37 986 q 44 1033 10 1033 q 103 1009 78 1033 q 128 951 128 985 q 103 893 128 917 q 44 869 78 869 m 308 869 q 252 893 275 869 q 229 951 229 917 q 252 1009 229 985 q 308 1033 275 1033 q 367 1009 344 1033 q 390 951 390 985 q 367 893 390 917 q 308 869 344 869 z "},"ì":{"ha":279,"x_min":-71,"x_max":200,"o":"m 88 0 l 88 669 l 200 669 l 200 0 l 88 0 m 104 856 l -71 1035 l 60 1063 l 192 856 l 104 856 z "},"ī":{"ha":301,"x_min":-58,"x_max":360,"o":"m 93 0 l 93 669 l 206 669 l 206 0 l 93 0 m -58 849 l -58 928 l 360 928 l 360 849 l -58 849 z "},"į":{"ha":318,"x_min":64,"x_max":314,"o":"m 103 0 l 103 669 l 215 669 l 215 0 l 103 0 m 157 803 q 99 828 124 803 q 74 885 74 853 q 98 945 74 921 q 157 969 122 969 q 217 946 193 969 q 242 885 242 922 q 217 828 242 853 q 157 803 193 803 m 219 -274 q 108 -240 153 -274 q 64 -144 64 -207 q 86 -67 64 -104 q 132 0 108 -31 l 215 0 q 174 -67 190 -40 q 158 -128 158 -94 q 181 -183 158 -161 q 239 -204 203 -204 q 267 -201 253 -204 q 300 -193 281 -199 l 314 -253 q 265 -269 288 -264 q 219 -274 242 -274 z "},"ĩ":{"ha":301,"x_min":-89,"x_max":369,"o":"m 93 0 l 93 669 l 206 669 l 206 0 l 93 0 m -14 844 l -89 858 q -32 964 -69 925 q 60 1003 6 1003 q 123 990 93 1003 q 179 965 153 978 q 231 951 206 951 q 269 967 254 951 q 296 1014 285 983 l 369 1000 q 319 895 350 933 q 239 857 288 857 q 181 870 210 857 q 125 896 153 883 q 68 908 97 908 q 20 894 43 908 q -14 844 -3 879 z "},"ĳ":{"ha":594,"x_min":74,"x_max":518,"o":"m 103 0 l 103 669 l 215 669 l 215 0 l 103 0 m 157 803 q 99 828 124 803 q 74 885 74 853 q 98 945 74 921 q 157 969 122 969 q 217 946 193 969 q 242 885 242 922 q 217 828 242 853 q 157 803 193 803 m 339 -269 q 301 -267 318 -269 q 269 -260 285 -264 l 269 -165 q 292 -172 281 -169 q 315 -174 304 -174 q 372 -147 360 -174 q 385 -86 385 -119 l 385 669 l 497 669 l 497 -51 q 487 -160 497 -110 q 443 -240 476 -210 q 339 -269 410 -269 m 435 803 q 376 828 400 803 q 351 885 351 853 q 375 945 351 921 q 435 969 399 969 q 492 946 467 969 q 518 885 518 922 q 492 828 518 853 q 435 803 467 803 z "},"j":{"ha":399,"x_min":74,"x_max":322,"o":"m 143 -269 q 106 -267 122 -269 q 74 -260 89 -264 l 74 -165 q 97 -172 85 -169 q 119 -174 108 -174 q 176 -147 164 -174 q 189 -86 189 -119 l 189 669 l 301 669 l 301 -51 q 291 -160 301 -110 q 247 -240 281 -210 q 143 -269 214 -269 m 239 803 q 180 828 204 803 q 156 885 156 853 q 179 945 156 921 q 239 969 203 969 q 297 946 271 969 q 322 885 322 922 q 297 828 322 853 q 239 803 271 803 z "},"ȷ":{"ha":250,"x_min":-37,"x_max":190,"o":"m 32 -269 q -6 -267 11 -269 q -37 -260 -22 -264 l -37 -165 q -15 -172 -26 -169 q 8 -174 -3 -174 q 65 -147 53 -174 q 78 -86 78 -119 l 78 669 l 190 669 l 190 -51 q 180 -160 190 -110 q 136 -240 169 -210 q 32 -269 103 -269 z "},"ĵ":{"ha":250,"x_min":-64,"x_max":333,"o":"m 32 -269 q -6 -267 11 -269 q -37 -260 -22 -264 l -37 -165 q -15 -172 -26 -169 q 8 -174 -3 -174 q 65 -147 53 -174 q 78 -86 78 -119 l 78 669 l 190 669 l 190 -51 q 180 -160 190 -110 q 136 -240 169 -210 q 32 -269 103 -269 m -64 868 l 85 1064 l 186 1064 l 333 868 l 242 868 l 133 982 l 28 868 l -64 868 z "},"k":{"ha":621,"x_min":93,"x_max":621,"o":"m 93 0 l 93 1017 l 207 1017 l 207 390 l 463 669 l 608 669 l 304 353 l 621 0 l 481 0 l 207 300 l 207 0 l 93 0 z "},"ķ":{"ha":621,"x_min":93,"x_max":621,"o":"m 93 0 l 93 1017 l 207 1017 l 207 390 l 463 669 l 608 669 l 304 353 l 621 0 l 481 0 l 207 300 l 207 0 l 93 0 m 232 -318 l 272 -85 l 388 -85 l 321 -318 l 232 -318 z "},"ĸ":{"ha":631,"x_min":93,"x_max":621,"o":"m 93 0 l 93 669 l 207 669 l 207 390 l 463 669 l 608 669 l 304 353 l 621 0 l 481 0 l 207 300 l 207 0 l 93 0 z "},"l":{"ha":301,"x_min":93,"x_max":206,"o":"m 93 0 l 93 1017 l 206 1017 l 206 0 l 93 0 z "},"ĺ":{"ha":338,"x_min":111,"x_max":381,"o":"m 111 0 l 111 979 l 228 979 l 228 0 l 111 0 m 121 1071 l 247 1278 l 381 1250 l 203 1071 l 121 1071 z "},"ľ":{"ha":301,"x_min":93,"x_max":443,"o":"m 93 0 l 93 1017 l 206 1017 l 206 0 l 93 0 m 288 822 l 328 1056 l 443 1056 l 376 822 l 288 822 z "},"ļ":{"ha":338,"x_min":72,"x_max":228,"o":"m 111 0 l 111 979 l 228 979 l 228 0 l 111 0 m 72 -318 l 113 -85 l 228 -85 l 161 -318 l 72 -318 z "},"ŀ":{"ha":426,"x_min":93,"x_max":463,"o":"m 93 0 l 93 1017 l 206 1017 l 206 0 l 93 0 m 378 408 q 319 433 344 408 q 294 490 294 458 q 319 551 294 526 q 378 575 343 575 q 438 551 414 575 q 463 490 463 528 q 438 433 463 458 q 378 408 414 408 z "},"ł":{"ha":443,"x_min":47,"x_max":396,"o":"m 47 317 l 47 422 l 396 700 l 396 594 l 47 317 m 158 0 l 158 1017 l 271 1017 l 271 0 l 158 0 z "},"m":{"ha":1161,"x_min":93,"x_max":1078,"o":"m 93 0 l 93 668 l 203 589 q 296 662 239 639 q 413 685 353 685 q 535 656 481 685 q 617 561 589 628 q 710 653 649 621 q 846 685 771 685 q 977 650 926 685 q 1053 556 1028 615 q 1078 422 1078 497 l 1078 0 l 964 0 l 964 388 q 924 538 964 492 q 814 585 885 585 q 719 558 758 585 q 661 485 681 531 q 642 388 642 440 l 642 0 l 528 0 l 528 388 q 495 528 528 471 q 378 585 463 585 q 284 558 322 585 q 226 485 246 531 q 207 388 207 440 l 207 0 l 93 0 z "},"n":{"ha":753,"x_min":93,"x_max":668,"o":"m 93 0 l 93 669 l 210 585 q 301 657 247 629 q 426 685 354 685 q 560 652 506 685 q 641 560 614 619 q 668 421 668 501 l 668 0 l 554 0 l 554 389 q 530 507 554 464 q 468 567 506 550 q 392 585 431 585 q 310 567 353 585 q 237 508 267 550 q 207 389 207 465 l 207 0 l 93 0 z "},"ń":{"ha":753,"x_min":93,"x_max":668,"o":"m 93 0 l 93 669 l 210 585 q 301 657 247 629 q 426 685 354 685 q 560 652 506 685 q 641 560 614 619 q 668 421 668 501 l 668 0 l 554 0 l 554 389 q 530 507 554 464 q 468 567 506 550 q 392 585 431 585 q 310 567 353 585 q 237 508 267 550 q 207 389 207 465 l 207 0 l 93 0 m 344 856 l 471 1063 l 604 1035 l 426 856 l 344 856 z "},"ň":{"ha":753,"x_min":93,"x_max":668,"o":"m 93 0 l 93 669 l 210 585 q 301 657 247 629 q 426 685 354 685 q 560 652 506 685 q 641 560 614 619 q 668 421 668 501 l 668 0 l 554 0 l 554 389 q 530 507 554 464 q 468 567 506 550 q 392 585 431 585 q 310 567 353 585 q 237 508 267 550 q 207 389 207 465 l 207 0 l 93 0 m 336 842 l 181 1040 l 281 1040 l 388 921 l 496 1040 l 594 1040 l 440 842 l 336 842 z "},"ņ":{"ha":776,"x_min":107,"x_max":682,"o":"m 107 0 l 107 669 l 224 585 q 315 657 261 629 q 440 685 368 685 q 574 652 519 685 q 655 560 628 619 q 682 421 682 501 l 682 0 l 568 0 l 568 389 q 544 507 568 464 q 482 567 519 550 q 406 585 444 585 q 324 567 367 585 q 251 508 281 550 q 221 389 221 465 l 221 0 l 107 0 m 303 -318 l 343 -85 l 458 -85 l 392 -318 l 303 -318 z "},"ñ":{"ha":753,"x_min":93,"x_max":668,"o":"m 93 0 l 93 669 l 210 585 q 301 657 247 629 q 426 685 354 685 q 560 652 506 685 q 641 560 614 619 q 668 421 668 501 l 668 0 l 554 0 l 554 389 q 530 507 554 464 q 468 567 506 550 q 392 585 431 585 q 310 567 353 585 q 237 508 267 550 q 207 389 207 465 l 207 0 l 93 0 m 250 844 l 175 858 q 232 964 194 925 q 324 1003 269 1003 q 387 990 357 1003 q 443 965 417 978 q 494 951 469 951 q 533 967 518 951 q 560 1014 549 983 l 633 1000 q 583 895 614 933 q 503 857 551 857 q 445 870 474 857 q 389 896 417 883 q 332 908 361 908 q 284 894 307 908 q 250 844 261 879 z "},"ŋ":{"ha":753,"x_min":93,"x_max":668,"o":"m 508 -269 q 471 -267 488 -269 q 439 -260 454 -264 l 439 -165 q 462 -172 450 -169 q 485 -174 474 -174 q 542 -147 529 -174 q 554 -86 554 -119 l 554 389 q 530 507 554 464 q 468 567 506 550 q 392 585 431 585 q 310 567 353 585 q 237 508 267 550 q 207 389 207 465 l 207 0 l 93 0 l 93 669 l 210 585 q 301 657 247 629 q 426 685 354 685 q 554 655 500 685 q 638 567 608 625 q 668 421 668 508 l 668 -51 q 657 -160 668 -110 q 612 -240 646 -210 q 508 -269 578 -269 z "},"o":{"ha":814,"x_min":49,"x_max":765,"o":"m 404 -14 q 221 32 301 -14 q 94 157 140 78 q 49 333 49 236 q 75 472 49 407 q 149 584 101 536 q 263 659 197 632 q 406 686 328 686 q 591 640 510 686 q 719 514 672 593 q 765 336 765 435 q 738 197 765 261 q 660 86 710 133 q 546 13 611 39 q 404 -14 481 -14 m 406 82 q 531 117 476 82 q 618 209 586 151 q 650 335 650 267 q 619 463 650 404 q 533 556 588 521 q 404 590 478 590 q 278 556 332 590 q 194 465 224 522 q 164 336 164 407 q 196 206 164 264 q 283 115 228 149 q 406 82 338 82 z "},"ó":{"ha":814,"x_min":49,"x_max":765,"o":"m 404 -14 q 221 32 301 -14 q 94 157 140 78 q 49 333 49 236 q 75 472 49 407 q 149 584 101 536 q 263 659 197 632 q 406 686 328 686 q 591 640 510 686 q 719 514 672 593 q 765 336 765 435 q 738 197 765 261 q 660 86 710 133 q 546 13 611 39 q 404 -14 481 -14 m 406 82 q 531 117 476 82 q 618 209 586 151 q 650 335 650 267 q 619 463 650 404 q 533 556 588 521 q 404 590 478 590 q 278 556 332 590 q 194 465 224 522 q 164 336 164 407 q 196 206 164 264 q 283 115 228 149 q 406 82 338 82 m 363 856 l 489 1063 l 622 1035 l 444 856 l 363 856 z "},"ŏ":{"ha":814,"x_min":49,"x_max":765,"o":"m 404 -14 q 221 32 301 -14 q 94 157 140 78 q 49 333 49 236 q 75 472 49 407 q 149 584 101 536 q 263 659 197 632 q 406 686 328 686 q 591 640 510 686 q 719 514 672 593 q 765 336 765 435 q 738 197 765 261 q 660 86 710 133 q 546 13 611 39 q 404 -14 481 -14 m 406 82 q 531 117 476 82 q 618 209 586 151 q 650 335 650 267 q 619 463 650 404 q 533 556 588 521 q 404 590 478 590 q 278 556 332 590 q 194 465 224 522 q 164 336 164 407 q 196 206 164 264 q 283 115 228 149 q 406 82 338 82 m 407 836 q 306 860 350 836 q 236 927 263 883 q 201 1029 210 971 l 276 1029 q 324 954 289 981 q 411 928 360 928 q 495 954 461 928 q 542 1029 529 981 l 617 1029 q 583 927 611 971 q 510 860 556 883 q 407 836 465 836 z "},"ô":{"ha":814,"x_min":49,"x_max":765,"o":"m 404 -14 q 221 32 301 -14 q 94 157 140 78 q 49 333 49 236 q 75 472 49 407 q 149 584 101 536 q 263 659 197 632 q 406 686 328 686 q 591 640 510 686 q 719 514 672 593 q 765 336 765 435 q 738 197 765 261 q 660 86 710 133 q 546 13 611 39 q 404 -14 481 -14 m 406 82 q 531 117 476 82 q 618 209 586 151 q 650 335 650 267 q 619 463 650 404 q 533 556 588 521 q 404 590 478 590 q 278 556 332 590 q 194 465 224 522 q 164 336 164 407 q 196 206 164 264 q 283 115 228 149 q 406 82 338 82 m 210 868 l 358 1064 l 460 1064 l 607 868 l 515 868 l 407 982 l 301 868 l 210 868 z "},"ö":{"ha":814,"x_min":49,"x_max":765,"o":"m 404 -14 q 221 32 301 -14 q 94 157 140 78 q 49 333 49 236 q 75 472 49 407 q 149 584 101 536 q 263 659 197 632 q 406 686 328 686 q 591 640 510 686 q 719 514 672 593 q 765 336 765 435 q 738 197 765 261 q 660 86 710 133 q 546 13 611 39 q 404 -14 481 -14 m 406 82 q 531 117 476 82 q 618 209 586 151 q 650 335 650 267 q 619 463 650 404 q 533 556 588 521 q 404 590 478 590 q 278 556 332 590 q 194 465 224 522 q 164 336 164 407 q 196 206 164 264 q 283 115 228 149 q 406 82 338 82 m 276 869 q 217 893 240 869 q 194 951 194 917 q 218 1010 194 986 q 276 1033 242 1033 q 335 1009 310 1033 q 360 951 360 985 q 335 893 360 917 q 276 869 310 869 m 540 869 q 484 893 507 869 q 461 951 461 917 q 484 1009 461 985 q 540 1033 507 1033 q 599 1009 576 1033 q 622 951 622 985 q 599 893 622 917 q 540 869 576 869 z "},"ò":{"ha":814,"x_min":49,"x_max":765,"o":"m 404 -14 q 221 32 301 -14 q 94 157 140 78 q 49 333 49 236 q 75 472 49 407 q 149 584 101 536 q 263 659 197 632 q 406 686 328 686 q 591 640 510 686 q 719 514 672 593 q 765 336 765 435 q 738 197 765 261 q 660 86 710 133 q 546 13 611 39 q 404 -14 481 -14 m 406 82 q 531 117 476 82 q 618 209 586 151 q 650 335 650 267 q 619 463 650 404 q 533 556 588 521 q 404 590 478 590 q 278 556 332 590 q 194 465 224 522 q 164 336 164 407 q 196 206 164 264 q 283 115 228 149 q 406 82 338 82 m 360 856 l 185 1035 l 315 1063 l 447 856 l 360 856 z "},"ő":{"ha":814,"x_min":49,"x_max":765,"o":"m 404 -14 q 221 32 301 -14 q 94 157 140 78 q 49 333 49 236 q 75 472 49 407 q 149 584 101 536 q 263 659 197 632 q 406 686 328 686 q 591 640 510 686 q 719 514 672 593 q 765 336 765 435 q 738 197 765 261 q 660 86 710 133 q 546 13 611 39 q 404 -14 481 -14 m 406 82 q 531 117 476 82 q 618 209 586 151 q 650 335 650 267 q 619 463 650 404 q 533 556 588 521 q 404 590 478 590 q 278 556 332 590 q 194 465 224 522 q 164 336 164 407 q 196 206 164 264 q 283 115 228 149 q 406 82 338 82 m 465 842 l 606 1049 l 729 1024 l 554 842 l 465 842 m 253 842 l 393 1049 l 517 1026 l 344 842 l 253 842 z "},"ō":{"ha":814,"x_min":49,"x_max":765,"o":"m 404 -14 q 221 32 301 -14 q 94 157 140 78 q 49 333 49 236 q 75 472 49 407 q 149 584 101 536 q 263 659 197 632 q 406 686 328 686 q 591 640 510 686 q 719 514 672 593 q 765 336 765 435 q 738 197 765 261 q 660 86 710 133 q 546 13 611 39 q 404 -14 481 -14 m 406 82 q 531 117 476 82 q 618 209 586 151 q 650 335 650 267 q 619 463 650 404 q 533 556 588 521 q 404 590 478 590 q 278 556 332 590 q 194 465 224 522 q 164 336 164 407 q 196 206 164 264 q 283 115 228 149 q 406 82 338 82 m 204 849 l 204 928 l 622 928 l 622 849 l 204 849 z "},"ø":{"ha":764,"x_min":25,"x_max":739,"o":"m 79 -49 l 25 6 l 121 103 q 60 207 81 153 q 40 328 40 261 q 65 463 40 401 q 137 572 90 525 q 247 645 183 619 q 388 671 311 671 q 505 656 450 671 q 604 604 560 640 l 681 679 l 728 626 l 660 553 q 717 453 696 507 q 739 328 739 399 q 713 192 739 254 q 640 82 688 129 q 528 9 593 35 q 388 -17 464 -17 q 269 1 321 -17 q 174 54 218 18 l 79 -49 m 385 74 q 513 108 458 74 q 598 199 568 142 q 628 328 628 257 q 616 409 628 372 q 585 478 604 446 l 239 122 q 305 86 269 99 q 385 74 340 74 m 193 176 l 536 531 q 472 567 508 554 q 389 581 436 581 q 262 547 315 581 q 180 456 208 513 q 151 328 151 399 q 160 244 151 281 q 193 176 169 208 z "},"ǿ":{"ha":764,"x_min":25,"x_max":739,"o":"m 79 -49 l 25 6 l 121 103 q 60 207 81 153 q 40 328 40 261 q 65 463 40 401 q 137 572 90 525 q 247 645 183 619 q 388 671 311 671 q 505 656 450 671 q 604 604 560 640 l 681 679 l 728 626 l 660 553 q 717 453 696 507 q 739 328 739 399 q 713 192 739 254 q 640 82 688 129 q 528 9 593 35 q 388 -17 464 -17 q 269 1 321 -17 q 174 54 218 18 l 79 -49 m 385 74 q 513 108 458 74 q 598 199 568 142 q 628 328 628 257 q 616 409 628 372 q 585 478 604 446 l 239 122 q 305 86 269 99 q 385 74 340 74 m 193 176 l 536 531 q 472 567 508 554 q 389 581 436 581 q 262 547 315 581 q 180 456 208 513 q 151 328 151 399 q 160 244 151 281 q 193 176 169 208 m 368 842 l 494 1049 l 628 1021 l 450 842 l 368 842 z "},"õ":{"ha":814,"x_min":49,"x_max":765,"o":"m 404 -14 q 221 32 301 -14 q 94 157 140 78 q 49 333 49 236 q 75 472 49 407 q 149 584 101 536 q 263 659 197 632 q 406 686 328 686 q 591 640 510 686 q 719 514 672 593 q 765 336 765 435 q 738 197 765 261 q 660 86 710 133 q 546 13 611 39 q 404 -14 481 -14 m 406 82 q 531 117 476 82 q 618 209 586 151 q 650 335 650 267 q 619 463 650 404 q 533 556 588 521 q 404 590 478 590 q 278 556 332 590 q 194 465 224 522 q 164 336 164 407 q 196 206 164 264 q 283 115 228 149 q 406 82 338 82 m 260 844 l 185 858 q 242 964 204 925 q 333 1003 279 1003 q 397 990 367 1003 q 453 965 426 978 q 504 951 479 951 q 543 967 528 951 q 569 1014 558 983 l 643 1000 q 592 895 624 933 q 513 857 561 857 q 455 870 483 857 q 399 896 426 883 q 342 908 371 908 q 294 894 317 908 q 260 844 271 879 z "},"œ":{"ha":1375,"x_min":49,"x_max":1326,"o":"m 1029 -15 q 842 35 921 -15 q 726 175 764 86 q 598 38 682 90 q 404 -14 514 -14 q 221 32 301 -14 q 94 157 140 78 q 49 333 49 236 q 75 472 49 407 q 149 584 101 536 q 263 659 197 632 q 406 686 328 686 q 598 635 514 686 q 726 500 682 583 q 830 636 761 585 q 1003 688 899 688 q 1131 663 1075 688 q 1228 593 1188 638 q 1294 492 1269 549 q 1326 369 1318 435 l 822 244 q 895 128 846 174 q 1036 82 944 82 q 1122 94 1082 82 q 1197 128 1161 106 q 1265 183 1233 151 l 1265 61 q 1163 6 1224 28 q 1029 -15 1103 -15 m 406 82 q 531 117 476 82 q 618 209 586 151 q 650 335 650 267 q 619 463 650 404 q 533 556 588 521 q 404 590 478 590 q 278 556 332 590 q 194 465 224 522 q 164 336 164 407 q 196 206 164 264 q 283 115 228 149 q 406 82 338 82 m 803 349 l 1188 439 q 1116 547 1169 503 q 983 590 1063 590 q 877 557 917 590 q 820 469 838 524 q 803 349 803 414 z "},"p":{"ha":843,"x_min":94,"x_max":796,"o":"m 94 -261 l 94 669 l 222 564 q 326 652 269 618 q 465 686 382 686 q 631 642 556 686 q 751 520 706 599 q 796 336 796 442 q 749 152 796 231 q 628 30 703 74 q 465 -14 553 -14 q 318 20 382 -14 q 208 117 254 54 l 208 -261 l 94 -261 m 447 82 q 567 113 514 82 q 651 202 619 144 q 682 336 682 260 q 653 463 682 406 q 570 553 624 519 q 443 586 517 586 q 324 553 379 586 q 236 465 269 521 q 203 335 203 408 q 237 206 203 264 q 327 115 271 149 q 447 82 383 82 z "},"þ":{"ha":751,"x_min":93,"x_max":704,"o":"m 93 -343 l 93 1072 l 197 1072 l 197 786 q 197 728 197 757 q 197 671 197 700 q 197 597 197 635 q 197 524 197 560 l 200 524 q 293 601 239 575 q 411 628 347 628 q 444 626 428 628 q 475 621 460 624 q 570 578 528 608 q 642 506 613 549 q 688 413 672 464 q 704 304 704 361 q 689 196 704 247 q 644 101 674 144 q 572 30 614 58 q 475 -10 529 1 q 444 -15 460 -12 q 410 -17 428 -17 q 292 10 347 -17 q 200 86 238 36 l 197 86 l 197 -17 l 197 -343 l 93 -343 m 393 79 q 542 144 486 79 q 597 311 597 210 q 573 422 597 372 q 503 502 549 472 q 392 532 457 532 q 287 501 332 532 q 217 421 242 471 q 193 313 193 371 q 216 199 193 253 q 284 113 239 146 q 393 79 329 79 z "},"q":{"ha":842,"x_min":49,"x_max":747,"o":"m 633 -261 l 633 121 q 524 22 586 58 q 381 -15 463 -15 q 213 29 289 -15 q 93 153 138 74 q 49 335 49 232 q 93 520 49 442 q 213 642 138 599 q 381 686 289 686 q 519 653 464 686 q 619 569 574 621 l 747 669 l 747 -261 l 633 -261 m 399 82 q 519 115 464 82 q 607 206 574 149 q 640 336 640 264 q 607 467 640 410 q 519 556 574 524 q 400 589 465 589 q 278 558 332 589 q 194 469 225 526 q 164 338 164 413 q 192 213 164 271 q 274 118 221 154 q 399 82 326 82 z "},"r":{"ha":476,"x_min":93,"x_max":474,"o":"m 93 0 l 93 669 l 210 594 q 305 660 249 638 q 415 682 361 682 q 446 680 432 682 q 474 675 460 678 l 474 569 q 445 579 460 576 q 413 582 431 582 q 320 562 368 582 q 240 497 272 542 q 207 376 207 451 l 207 0 l 93 0 z "},"ŕ":{"ha":500,"x_min":93,"x_max":497,"o":"m 93 0 l 93 669 l 210 594 q 305 660 249 638 q 415 682 361 682 q 446 680 432 682 q 474 675 460 678 l 474 569 q 445 579 460 576 q 413 582 431 582 q 320 562 368 582 q 240 497 272 542 q 207 376 207 451 l 207 0 l 93 0 m 238 856 l 364 1063 l 497 1035 l 319 856 l 238 856 z "},"ř":{"ha":476,"x_min":68,"x_max":482,"o":"m 93 0 l 93 669 l 210 594 q 305 660 249 638 q 415 682 361 682 q 446 680 432 682 q 474 675 460 678 l 474 569 q 445 579 460 576 q 413 582 431 582 q 320 562 368 582 q 240 497 272 542 q 207 376 207 451 l 207 0 l 93 0 m 224 842 l 68 1040 l 168 1040 l 275 921 l 383 1040 l 482 1040 l 328 842 l 224 842 z "},"ŗ":{"ha":476,"x_min":65,"x_max":474,"o":"m 93 0 l 93 669 l 210 594 q 305 660 249 638 q 415 682 361 682 q 446 680 432 682 q 474 675 460 678 l 474 569 q 445 579 460 576 q 413 582 431 582 q 320 562 368 582 q 240 497 272 542 q 207 376 207 451 l 207 0 l 93 0 m 65 -318 l 106 -85 l 221 -85 l 154 -318 l 65 -318 z "},"s":{"ha":528,"x_min":26,"x_max":485,"o":"m 254 -14 q 121 11 175 -14 q 26 64 67 36 l 26 186 q 91 135 56 160 q 167 96 126 111 q 251 81 208 81 q 313 91 285 81 q 358 124 340 101 q 375 182 375 146 q 351 251 375 224 q 290 297 328 278 q 210 335 251 317 q 130 378 168 354 q 68 436 92 401 q 44 522 44 471 q 69 608 44 572 q 141 665 94 644 q 253 685 188 685 q 317 679 285 685 q 380 662 349 674 q 436 629 411 650 l 436 504 q 381 547 410 528 q 322 578 353 567 q 256 590 290 590 q 180 568 206 590 q 154 518 154 546 q 178 466 154 488 q 240 426 201 444 q 319 387 278 407 q 399 340 361 367 q 461 276 438 314 q 485 185 485 239 q 457 86 485 132 q 378 13 429 40 q 254 -14 326 -14 z "},"ś":{"ha":528,"x_min":26,"x_max":485,"o":"m 254 -14 q 121 11 175 -14 q 26 64 67 36 l 26 186 q 91 135 56 160 q 167 96 126 111 q 251 81 208 81 q 313 91 285 81 q 358 124 340 101 q 375 182 375 146 q 351 251 375 224 q 290 297 328 278 q 210 335 251 317 q 130 378 168 354 q 68 436 92 401 q 44 522 44 471 q 69 608 44 572 q 141 665 94 644 q 253 685 188 685 q 317 679 285 685 q 380 662 349 674 q 436 629 411 650 l 436 504 q 381 547 410 528 q 322 578 353 567 q 256 590 290 590 q 180 568 206 590 q 154 518 154 546 q 178 466 154 488 q 240 426 201 444 q 319 387 278 407 q 399 340 361 367 q 461 276 438 314 q 485 185 485 239 q 457 86 485 132 q 378 13 429 40 q 254 -14 326 -14 m 224 856 l 350 1063 l 483 1035 l 306 856 l 224 856 z "},"š":{"ha":528,"x_min":26,"x_max":485,"o":"m 254 -14 q 121 11 175 -14 q 26 64 67 36 l 26 186 q 91 135 56 160 q 167 96 126 111 q 251 81 208 81 q 313 91 285 81 q 358 124 340 101 q 375 182 375 146 q 351 251 375 224 q 290 297 328 278 q 210 335 251 317 q 130 378 168 354 q 68 436 92 401 q 44 522 44 471 q 69 608 44 572 q 141 665 94 644 q 253 685 188 685 q 317 679 285 685 q 380 662 349 674 q 436 629 411 650 l 436 504 q 381 547 410 528 q 322 578 353 567 q 256 590 290 590 q 180 568 206 590 q 154 518 154 546 q 178 466 154 488 q 240 426 201 444 q 319 387 278 407 q 399 340 361 367 q 461 276 438 314 q 485 185 485 239 q 457 86 485 132 q 378 13 429 40 q 254 -14 326 -14 m 213 842 l 57 1040 l 157 1040 l 264 921 l 372 1040 l 471 1040 l 317 842 l 213 842 z "},"ş":{"ha":528,"x_min":26,"x_max":485,"o":"m 254 -14 q 121 11 175 -14 q 26 64 67 36 l 26 186 q 91 135 56 160 q 167 96 126 111 q 251 81 208 81 q 313 91 285 81 q 358 124 340 101 q 375 182 375 146 q 351 251 375 224 q 290 297 328 278 q 210 335 251 317 q 130 378 168 354 q 68 436 92 401 q 44 522 44 471 q 69 608 44 572 q 141 665 94 644 q 253 685 188 685 q 317 679 285 685 q 380 662 349 674 q 436 629 411 650 l 436 504 q 381 547 410 528 q 322 578 353 567 q 256 590 290 590 q 180 568 206 590 q 154 518 154 546 q 178 466 154 488 q 240 426 201 444 q 319 387 278 407 q 399 340 361 367 q 461 276 438 314 q 485 185 485 239 q 457 86 485 132 q 378 13 429 40 q 254 -14 326 -14 m 194 -307 q 133 -299 161 -307 q 79 -279 106 -292 l 94 -222 q 131 -233 114 -229 q 163 -236 147 -236 q 200 -231 179 -236 q 237 -211 221 -225 q 253 -174 253 -197 q 237 -141 253 -151 q 196 -131 221 -131 q 175 -133 185 -131 q 153 -140 165 -135 l 129 -122 l 213 0 l 303 0 l 246 -97 l 250 -97 q 298 -105 272 -97 q 342 -132 324 -112 q 361 -187 361 -151 q 334 -257 361 -231 q 269 -295 307 -283 q 194 -307 231 -307 z "},"ŝ":{"ha":521,"x_min":26,"x_max":485,"o":"m 254 -14 q 121 11 175 -14 q 26 64 67 36 l 26 186 q 91 135 56 160 q 167 96 126 111 q 251 81 208 81 q 313 91 285 81 q 358 124 340 101 q 375 182 375 146 q 351 251 375 224 q 290 297 328 278 q 210 335 251 317 q 130 378 168 354 q 68 436 92 401 q 44 522 44 471 q 69 608 44 572 q 141 665 94 644 q 253 685 188 685 q 317 679 285 685 q 380 662 349 674 q 436 629 411 650 l 436 504 q 381 547 410 528 q 322 578 353 567 q 256 590 290 590 q 180 568 206 590 q 154 518 154 546 q 178 466 154 488 q 240 426 201 444 q 319 387 278 407 q 399 340 361 367 q 461 276 438 314 q 485 185 485 239 q 457 86 485 132 q 378 13 429 40 q 254 -14 326 -14 m 39 868 l 188 1064 l 289 1064 l 436 868 l 344 868 l 236 982 l 131 868 l 39 868 z "},"ș":{"ha":574,"x_min":85,"x_max":543,"o":"m 313 -14 q 179 11 233 -14 q 85 64 125 36 l 85 186 q 149 135 114 160 q 226 96 185 111 q 310 81 267 81 q 371 91 343 81 q 416 124 399 101 q 433 182 433 146 q 410 251 433 224 q 348 297 386 278 q 268 335 310 317 q 188 378 226 354 q 126 436 150 401 q 103 522 103 471 q 128 608 103 572 q 199 665 153 644 q 311 685 246 685 q 375 679 343 685 q 438 662 407 674 q 494 629 469 650 l 494 504 q 440 547 468 528 q 380 578 411 567 q 314 590 349 590 q 238 568 264 590 q 213 518 213 546 q 236 466 213 488 q 298 426 260 444 q 378 387 336 407 q 458 340 419 367 q 519 276 496 314 q 543 185 543 239 q 515 86 543 132 q 436 13 488 40 q 313 -14 385 -14 m 194 -318 l 235 -85 l 350 -85 l 283 -318 l 194 -318 z "},"ß":{"ha":721,"x_min":17,"x_max":672,"o":"m 279 -4 l 279 86 q 422 107 360 86 q 521 173 485 128 q 557 290 557 218 q 524 403 557 361 q 433 467 492 444 q 293 500 374 489 l 293 586 q 394 631 349 607 q 465 691 439 654 q 492 783 492 728 q 444 902 492 860 q 321 944 396 944 q 210 912 253 944 q 148 828 168 879 q 128 721 128 776 l 128 0 l 17 0 l 17 722 q 49 882 17 808 q 149 1001 81 956 q 326 1046 218 1046 q 472 1015 408 1046 q 571 926 535 983 q 607 794 607 869 q 559 646 607 706 q 436 554 511 586 q 555 508 501 543 q 640 418 608 474 q 672 290 672 363 q 642 161 672 217 q 559 69 613 106 q 434 14 506 32 q 279 -4 363 -4 z "},"t":{"ha":465,"x_min":21,"x_max":446,"o":"m 315 -15 q 196 40 235 -15 q 157 167 157 94 l 157 572 l 21 572 l 268 901 l 268 669 l 446 669 l 446 572 l 268 572 l 268 156 q 282 105 268 128 q 329 82 296 82 q 354 85 340 82 q 383 94 368 88 l 383 -1 q 351 -12 368 -8 q 315 -15 335 -15 z "},"ŧ":{"ha":465,"x_min":21,"x_max":450,"o":"m 315 -15 q 196 40 235 -15 q 157 167 157 94 l 157 572 l 21 572 l 268 901 l 268 669 l 446 669 l 446 572 l 268 572 l 268 156 q 282 105 268 128 q 329 82 296 82 q 354 85 340 82 q 383 94 368 88 l 383 -1 q 351 -12 368 -8 q 315 -15 335 -15 m 28 372 l 28 451 l 450 451 l 450 372 l 28 372 z "},"ť":{"ha":465,"x_min":21,"x_max":488,"o":"m 315 -15 q 196 40 235 -15 q 157 167 157 94 l 157 572 l 21 572 l 268 901 l 268 669 l 446 669 l 446 572 l 268 572 l 268 156 q 282 105 268 128 q 329 82 296 82 q 354 85 340 82 q 383 94 368 88 l 383 -1 q 351 -12 368 -8 q 315 -15 335 -15 m 332 822 l 372 1056 l 488 1056 l 421 822 l 332 822 z "},"ţ":{"ha":465,"x_min":21,"x_max":446,"o":"m 315 -15 q 196 40 235 -15 q 157 167 157 94 l 157 572 l 21 572 l 268 901 l 268 669 l 446 669 l 446 572 l 268 572 l 268 156 q 282 105 268 128 q 329 82 296 82 q 354 85 340 82 q 383 94 368 88 l 383 -1 q 351 -12 368 -8 q 315 -15 335 -15 m 243 -307 q 182 -299 210 -307 q 128 -279 154 -292 l 143 -222 q 179 -233 163 -229 q 211 -236 196 -236 q 249 -231 228 -236 q 285 -211 269 -225 q 301 -174 301 -197 q 285 -141 301 -151 q 244 -131 269 -131 q 224 -133 233 -131 q 201 -140 214 -135 l 178 -122 l 261 0 l 351 0 l 294 -97 l 299 -97 q 347 -105 321 -97 q 391 -132 372 -112 q 410 -187 410 -151 q 383 -257 410 -231 q 317 -295 356 -283 q 243 -307 279 -307 z "},"ț":{"ha":465,"x_min":21,"x_max":446,"o":"m 315 -15 q 196 40 235 -15 q 157 167 157 94 l 157 572 l 21 572 l 268 901 l 268 669 l 446 669 l 446 572 l 268 572 l 268 156 q 282 105 268 128 q 329 82 296 82 q 354 85 340 82 q 383 94 368 88 l 383 -1 q 351 -12 368 -8 q 315 -15 335 -15 m 172 -318 l 213 -85 l 328 -85 l 261 -318 l 172 -318 z "},"u":{"ha":743,"x_min":85,"x_max":660,"o":"m 326 -14 q 143 59 201 -14 q 85 250 85 132 l 85 671 l 199 671 l 199 282 q 223 165 199 207 q 285 104 247 122 q 363 86 324 86 q 445 103 403 86 q 517 163 488 121 q 546 282 546 206 l 546 671 l 660 671 l 660 0 l 543 86 q 453 14 506 42 q 326 -14 401 -14 z "},"ú":{"ha":743,"x_min":85,"x_max":660,"o":"m 326 -14 q 143 59 201 -14 q 85 250 85 132 l 85 671 l 199 671 l 199 282 q 223 165 199 207 q 285 104 247 122 q 363 86 324 86 q 445 103 403 86 q 517 163 488 121 q 546 282 546 206 l 546 671 l 660 671 l 660 0 l 543 86 q 453 14 506 42 q 326 -14 401 -14 m 329 856 l 456 1063 l 589 1035 l 411 856 l 329 856 z "},"ŭ":{"ha":743,"x_min":85,"x_max":660,"o":"m 326 -14 q 143 59 201 -14 q 85 250 85 132 l 85 671 l 199 671 l 199 282 q 223 165 199 207 q 285 104 247 122 q 363 86 324 86 q 445 103 403 86 q 517 163 488 121 q 546 282 546 206 l 546 671 l 660 671 l 660 0 l 543 86 q 453 14 506 42 q 326 -14 401 -14 m 365 836 q 265 860 308 836 q 194 927 221 883 q 160 1029 168 971 l 235 1029 q 283 954 247 981 q 369 928 318 928 q 453 954 419 928 q 500 1029 488 981 l 575 1029 q 542 927 569 971 q 469 860 514 883 q 365 836 424 836 z "},"û":{"ha":743,"x_min":85,"x_max":660,"o":"m 326 -14 q 143 59 201 -14 q 85 250 85 132 l 85 671 l 199 671 l 199 282 q 223 165 199 207 q 285 104 247 122 q 363 86 324 86 q 445 103 403 86 q 517 163 488 121 q 546 282 546 206 l 546 671 l 660 671 l 660 0 l 543 86 q 453 14 506 42 q 326 -14 401 -14 m 174 868 l 322 1064 l 424 1064 l 571 868 l 479 868 l 371 982 l 265 868 l 174 868 z "},"ü":{"ha":743,"x_min":85,"x_max":660,"o":"m 326 -14 q 143 59 201 -14 q 85 250 85 132 l 85 671 l 199 671 l 199 282 q 223 165 199 207 q 285 104 247 122 q 363 86 324 86 q 445 103 403 86 q 517 163 488 121 q 546 282 546 206 l 546 671 l 660 671 l 660 0 l 543 86 q 453 14 506 42 q 326 -14 401 -14 m 243 869 q 184 893 207 869 q 161 951 161 917 q 185 1010 161 986 q 243 1033 208 1033 q 301 1009 276 1033 q 326 951 326 985 q 301 893 326 917 q 243 869 276 869 m 507 869 q 451 893 474 869 q 428 951 428 917 q 451 1009 428 985 q 507 1033 474 1033 q 566 1009 543 1033 q 589 951 589 985 q 566 893 589 917 q 507 869 543 869 z "},"ù":{"ha":743,"x_min":85,"x_max":660,"o":"m 326 -14 q 143 59 201 -14 q 85 250 85 132 l 85 671 l 199 671 l 199 282 q 223 165 199 207 q 285 104 247 122 q 363 86 324 86 q 445 103 403 86 q 517 163 488 121 q 546 282 546 206 l 546 671 l 660 671 l 660 0 l 543 86 q 453 14 506 42 q 326 -14 401 -14 m 372 856 l 197 1035 l 328 1063 l 460 856 l 372 856 z "},"ű":{"ha":776,"x_min":85,"x_max":693,"o":"m 326 -14 q 143 59 201 -14 q 85 250 85 132 l 85 671 l 199 671 l 199 282 q 223 165 199 207 q 285 104 247 122 q 363 86 324 86 q 445 103 403 86 q 517 163 488 121 q 546 282 546 206 l 546 671 l 660 671 l 660 0 l 543 86 q 453 14 506 42 q 326 -14 401 -14 m 429 842 l 569 1049 l 693 1024 l 518 842 l 429 842 m 217 842 l 357 1049 l 481 1026 l 308 842 l 217 842 z "},"ū":{"ha":743,"x_min":85,"x_max":660,"o":"m 326 -14 q 143 59 201 -14 q 85 250 85 132 l 85 671 l 199 671 l 199 282 q 223 165 199 207 q 285 104 247 122 q 363 86 324 86 q 445 103 403 86 q 517 163 488 121 q 546 282 546 206 l 546 671 l 660 671 l 660 0 l 543 86 q 453 14 506 42 q 326 -14 401 -14 m 171 849 l 171 928 l 589 928 l 589 849 l 171 849 z "},"ų":{"ha":743,"x_min":85,"x_max":758,"o":"m 326 -14 q 143 59 201 -14 q 85 250 85 132 l 85 671 l 199 671 l 199 282 q 223 165 199 207 q 285 104 247 122 q 363 86 324 86 q 445 103 403 86 q 517 163 488 121 q 546 282 546 206 l 546 671 l 660 671 l 660 0 l 543 86 q 453 14 506 42 q 326 -14 401 -14 m 664 -274 q 553 -237 597 -274 q 508 -139 508 -201 q 532 -54 508 -99 q 611 43 556 -10 l 660 0 q 619 -65 635 -36 q 603 -124 603 -94 q 623 -180 603 -156 q 683 -204 643 -204 q 711 -201 697 -204 q 744 -193 725 -199 l 758 -253 q 709 -269 732 -264 q 664 -274 686 -274 z "},"ů":{"ha":743,"x_min":85,"x_max":660,"o":"m 326 -14 q 143 59 201 -14 q 85 250 85 132 l 85 671 l 199 671 l 199 282 q 223 165 199 207 q 285 104 247 122 q 363 86 324 86 q 445 103 403 86 q 517 163 488 121 q 546 282 546 206 l 546 671 l 660 671 l 660 0 l 543 86 q 453 14 506 42 q 326 -14 401 -14 m 374 826 q 306 844 338 826 q 254 894 274 863 q 235 964 235 925 q 254 1035 235 1003 q 306 1085 274 1067 q 374 1104 338 1104 q 446 1085 414 1104 q 497 1033 478 1065 q 517 961 517 1001 q 497 892 517 922 q 446 844 478 861 q 374 826 414 826 m 376 888 q 434 910 413 888 q 456 964 456 932 q 433 1020 456 997 q 376 1043 410 1043 q 319 1020 342 1043 q 296 965 296 997 q 319 908 296 929 q 376 888 343 888 z "},"ũ":{"ha":743,"x_min":85,"x_max":660,"o":"m 326 -14 q 143 59 201 -14 q 85 250 85 132 l 85 671 l 199 671 l 199 282 q 223 165 199 207 q 285 104 247 122 q 363 86 324 86 q 445 103 403 86 q 517 163 488 121 q 546 282 546 206 l 546 671 l 660 671 l 660 0 l 543 86 q 453 14 506 42 q 326 -14 401 -14 m 229 844 l 154 858 q 211 964 174 925 q 303 1003 249 1003 q 366 990 336 1003 q 422 965 396 978 q 474 951 449 951 q 513 967 497 951 q 539 1014 528 983 l 613 1000 q 562 895 593 933 q 482 857 531 857 q 424 870 453 857 q 368 896 396 883 q 311 908 340 908 q 263 894 286 908 q 229 844 240 879 z "},"v":{"ha":663,"x_min":-6,"x_max":668,"o":"m 275 0 l -6 668 l 119 668 l 333 126 l 549 668 l 668 668 l 388 0 l 275 0 z "},"w":{"ha":1019,"x_min":1,"x_max":1018,"o":"m 231 0 l 1 669 l 119 669 l 290 138 l 454 671 l 569 671 l 732 139 l 899 669 l 1018 669 l 790 0 l 678 0 l 507 549 l 339 0 l 231 0 z "},"ẃ":{"ha":1019,"x_min":1,"x_max":1018,"o":"m 231 0 l 1 669 l 119 669 l 290 138 l 454 671 l 569 671 l 732 139 l 899 669 l 1018 669 l 790 0 l 678 0 l 507 549 l 339 0 l 231 0 m 476 842 l 603 1049 l 736 1021 l 558 842 l 476 842 z "},"ŵ":{"ha":1019,"x_min":1,"x_max":1018,"o":"m 231 0 l 1 669 l 119 669 l 290 138 l 454 671 l 569 671 l 732 139 l 899 669 l 1018 669 l 790 0 l 678 0 l 507 549 l 339 0 l 231 0 m 308 868 l 457 1064 l 558 1064 l 706 868 l 614 868 l 506 982 l 400 868 l 308 868 z "},"ẅ":{"ha":1019,"x_min":1,"x_max":1018,"o":"m 231 0 l 1 669 l 119 669 l 290 138 l 454 671 l 569 671 l 732 139 l 899 669 l 1018 669 l 790 0 l 678 0 l 507 549 l 339 0 l 231 0 m 381 869 q 322 893 344 869 q 299 951 299 917 q 322 1010 299 986 q 381 1033 346 1033 q 439 1009 414 1033 q 464 951 464 985 q 439 893 464 917 q 381 869 414 869 m 644 869 q 588 893 611 869 q 565 951 565 917 q 588 1009 565 985 q 644 1033 611 1033 q 703 1009 681 1033 q 726 951 726 985 q 703 893 726 917 q 644 869 681 869 z "},"ẁ":{"ha":1019,"x_min":1,"x_max":1018,"o":"m 231 0 l 1 669 l 119 669 l 290 138 l 454 671 l 569 671 l 732 139 l 899 669 l 1018 669 l 790 0 l 678 0 l 507 549 l 339 0 l 231 0 m 469 856 l 294 1035 l 425 1063 l 557 856 l 469 856 z "},"x":{"ha":683,"x_min":10,"x_max":674,"o":"m 10 0 l 279 346 l 28 668 l 158 668 l 343 426 l 529 668 l 654 668 l 407 349 l 674 0 l 544 0 l 340 267 l 138 0 l 10 0 z "},"y":{"ha":668,"x_min":-6,"x_max":674,"o":"m 193 -261 l 297 0 l -6 668 l 118 668 l 347 136 l 554 668 l 674 668 l 301 -261 l 193 -261 z "},"ý":{"ha":668,"x_min":-6,"x_max":674,"o":"m 193 -261 l 297 0 l -6 668 l 118 668 l 347 136 l 554 668 l 674 668 l 301 -261 l 193 -261 m 282 856 l 408 1063 l 542 1035 l 364 856 l 282 856 z "},"ŷ":{"ha":668,"x_min":-6,"x_max":674,"o":"m 193 -261 l 297 0 l -6 668 l 118 668 l 347 136 l 554 668 l 674 668 l 301 -261 l 193 -261 m 144 868 l 293 1064 l 394 1064 l 542 868 l 450 868 l 342 982 l 236 868 l 144 868 z "},"ÿ":{"ha":668,"x_min":-6,"x_max":674,"o":"m 193 -261 l 297 0 l -6 668 l 118 668 l 347 136 l 554 668 l 674 668 l 301 -261 l 193 -261 m 214 869 q 155 893 178 869 q 132 951 132 917 q 156 1010 132 986 q 214 1033 179 1033 q 272 1009 247 1033 q 297 951 297 985 q 272 893 297 917 q 214 869 247 869 m 478 869 q 422 893 444 869 q 399 951 399 917 q 422 1009 399 985 q 478 1033 444 1033 q 537 1009 514 1033 q 560 951 560 985 q 537 893 560 917 q 478 869 514 869 z "},"ỳ":{"ha":668,"x_min":-6,"x_max":674,"o":"m 193 -261 l 297 0 l -6 668 l 118 668 l 347 136 l 554 668 l 674 668 l 301 -261 l 193 -261 m 307 856 l 132 1035 l 263 1063 l 394 856 l 307 856 z "},"z":{"ha":700,"x_min":17,"x_max":665,"o":"m 17 0 l 17 96 l 529 575 l 46 575 l 46 669 l 665 669 l 665 575 l 153 97 l 657 97 l 657 0 l 17 0 z "},"ź":{"ha":700,"x_min":17,"x_max":665,"o":"m 17 0 l 17 96 l 529 575 l 46 575 l 46 669 l 665 669 l 665 575 l 153 97 l 657 97 l 657 0 l 17 0 m 313 856 l 439 1063 l 572 1035 l 394 856 l 313 856 z "},"ž":{"ha":700,"x_min":17,"x_max":665,"o":"m 17 0 l 17 96 l 529 575 l 46 575 l 46 669 l 665 669 l 665 575 l 153 97 l 657 97 l 657 0 l 17 0 m 308 842 l 153 1040 l 253 1040 l 360 921 l 468 1040 l 567 1040 l 413 842 l 308 842 z "},"ż":{"ha":700,"x_min":17,"x_max":665,"o":"m 17 0 l 17 96 l 529 575 l 46 575 l 46 669 l 665 669 l 665 575 l 153 97 l 657 97 l 657 0 l 17 0 m 361 860 q 303 885 328 860 q 278 942 278 910 q 302 1002 278 978 q 361 1026 326 1026 q 422 1003 397 1026 q 446 942 446 979 q 422 885 446 910 q 361 860 397 860 z "},"ﬁ":{"ha":779,"x_min":21,"x_max":672,"o":"m 157 0 l 157 574 l 21 574 l 157 672 l 157 774 q 215 965 157 907 q 372 1022 274 1022 q 419 1018 397 1022 q 457 1008 440 1014 l 457 914 q 422 924 439 921 q 386 928 404 928 q 294 887 321 928 q 267 768 267 846 l 267 669 l 435 669 l 435 574 l 267 574 l 267 0 l 157 0 m 533 0 l 533 669 l 646 669 l 646 0 l 533 0 m 588 803 q 529 828 554 803 q 504 885 504 853 q 528 945 504 921 q 588 969 553 969 q 648 946 624 969 q 672 885 672 922 q 648 828 672 853 q 588 803 624 803 z "},"ﬂ":{"ha":726,"x_min":21,"x_max":619,"o":"m 157 0 l 157 574 l 21 574 l 157 672 l 157 774 q 215 965 157 907 q 372 1022 274 1022 q 419 1018 397 1022 q 457 1008 440 1014 l 457 914 q 422 924 439 921 q 386 928 404 928 q 294 887 321 928 q 267 768 267 846 l 267 669 l 435 669 l 435 574 l 267 574 l 267 0 l 157 0 m 507 0 l 507 1017 l 619 1017 l 619 0 l 507 0 z "},"ª":{"ha":444,"x_min":19,"x_max":392,"o":"m 179 590 q 110 605 144 590 q 55 648 76 619 q 33 715 33 676 q 81 816 33 783 q 203 849 128 849 q 262 843 238 849 q 314 829 286 838 l 314 840 q 285 914 314 890 q 206 938 256 938 q 89 906 142 938 l 67 967 q 135 992 97 982 q 213 1003 172 1003 q 336 963 288 1003 q 385 840 385 924 l 385 599 l 314 599 l 314 657 q 256 608 290 626 q 179 590 221 590 m 19 422 l 19 494 l 392 494 l 392 422 l 19 422 m 194 649 q 276 673 239 649 q 314 746 314 697 l 314 775 q 267 790 293 785 q 210 796 242 796 q 132 776 160 796 q 104 719 104 756 q 131 666 104 683 q 194 649 157 649 z "},"º":{"ha":467,"x_min":28,"x_max":439,"o":"m 232 588 q 128 615 175 588 q 55 690 82 643 q 28 796 28 738 q 55 900 28 853 q 128 976 82 947 q 235 1004 175 1004 q 340 976 294 1004 q 413 901 386 947 q 439 800 439 854 q 411 694 439 742 q 337 617 383 646 q 232 588 290 588 m 33 422 l 33 494 l 433 494 l 433 422 l 33 422 m 235 661 q 330 697 296 657 q 364 794 364 738 q 327 896 364 857 q 232 935 290 935 q 138 894 172 935 q 103 800 103 853 q 140 701 103 740 q 235 661 176 661 z "},"ⁿ":{"ha":547,"x_min":74,"x_max":479,"o":"m 74 543 l 74 1015 l 156 956 q 219 1007 182 988 q 308 1026 257 1026 q 438 975 396 1026 q 479 840 479 924 l 479 543 l 399 543 l 399 818 q 381 901 399 871 q 338 943 364 931 q 283 956 311 956 q 226 944 257 956 q 175 902 196 932 q 154 818 154 872 l 154 543 l 74 543 z "},"Α":{"ha":940,"x_min":-7,"x_max":947,"o":"m -7 0 l 421 979 l 518 979 l 947 0 l 818 0 l 701 274 l 238 274 l 119 0 l -7 0 m 282 378 l 657 378 l 469 842 l 282 378 z "},"Β":{"ha":885,"x_min":111,"x_max":821,"o":"m 111 0 l 111 979 l 390 979 q 555 956 476 979 q 683 878 633 932 q 732 732 732 825 q 697 594 732 653 q 590 508 661 535 q 767 425 713 492 q 821 269 821 358 q 782 135 821 197 q 657 37 743 74 q 429 0 571 0 l 111 0 m 228 103 l 449 103 q 644 147 583 103 q 704 275 704 192 q 637 403 704 358 q 403 447 569 447 l 228 447 l 228 103 m 228 550 l 404 550 q 565 598 514 550 q 615 715 615 646 q 558 838 615 799 q 404 876 500 876 l 228 876 l 228 550 z "},"Γ":{"ha":758,"x_min":111,"x_max":746,"o":"m 111 0 l 111 979 l 746 979 l 746 874 l 229 874 l 229 0 l 111 0 z "},"Δ":{"ha":969,"x_min":1,"x_max":969,"o":"m 1 0 l 436 979 l 533 979 l 969 0 l 1 0 m 172 104 l 799 104 l 485 842 l 172 104 z "},"Ε":{"ha":858,"x_min":111,"x_max":765,"o":"m 111 0 l 111 979 l 750 979 l 750 874 l 231 874 l 231 551 l 710 551 l 710 446 l 231 446 l 231 106 l 765 106 l 765 0 l 111 0 z "},"Ζ":{"ha":892,"x_min":19,"x_max":857,"o":"m 19 0 l 19 100 l 714 875 l 58 875 l 58 979 l 857 979 l 857 878 l 172 104 l 828 104 l 828 0 l 19 0 z "},"Η":{"ha":985,"x_min":111,"x_max":875,"o":"m 111 0 l 111 981 l 228 981 l 228 553 l 758 553 l 758 981 l 875 981 l 875 0 l 758 0 l 758 444 l 228 444 l 228 0 l 111 0 z "},"Θ":{"ha":1157,"x_min":71,"x_max":1086,"o":"m 579 -19 q 375 19 468 -19 q 214 128 282 58 q 108 291 146 199 q 71 489 71 383 q 109 687 71 594 q 216 849 147 779 q 378 959 285 919 q 582 999 471 999 q 784 959 692 999 q 944 849 876 919 q 1049 688 1011 779 q 1086 492 1086 596 q 1049 293 1086 386 q 942 130 1011 200 q 781 20 874 60 q 579 -19 689 -19 m 581 88 q 780 141 693 88 q 916 285 867 194 q 965 486 965 376 q 938 641 965 568 q 859 770 910 714 q 738 859 808 826 q 581 892 667 892 q 378 838 467 892 q 241 694 290 785 q 192 492 192 603 q 241 286 192 378 q 378 141 290 194 q 581 88 467 88 m 331 436 l 331 553 l 826 553 l 826 436 l 331 436 z "},"Ι":{"ha":338,"x_min":111,"x_max":228,"o":"m 111 0 l 111 979 l 228 979 l 228 0 l 111 0 z "},"Κ":{"ha":788,"x_min":111,"x_max":788,"o":"m 111 0 l 111 979 l 228 979 l 228 568 l 599 979 l 749 979 l 328 521 l 788 0 l 638 0 l 228 458 l 228 0 l 111 0 z "},"Λ":{"ha":913,"x_min":-7,"x_max":919,"o":"m -7 0 l 407 979 l 504 979 l 919 0 l 790 0 l 456 842 l 119 0 l -7 0 z "},"Μ":{"ha":1071,"x_min":39,"x_max":1031,"o":"m 39 0 l 39 972 l 153 972 l 535 388 l 917 972 l 1031 972 l 1031 0 l 914 0 l 914 785 l 535 213 l 156 785 l 156 0 l 39 0 z "},"Ν":{"ha":1036,"x_min":111,"x_max":925,"o":"m 111 0 l 111 972 l 229 972 l 811 175 l 811 979 l 925 979 l 925 0 l 808 0 l 225 801 l 225 0 l 111 0 z "},"Ξ":{"ha":842,"x_min":93,"x_max":749,"o":"m 93 0 l 93 119 l 749 119 l 749 0 l 93 0 m 149 439 l 149 558 l 693 558 l 693 439 l 149 439 m 108 860 l 108 979 l 733 979 l 733 860 l 108 860 z "},"Ο":{"ha":1157,"x_min":71,"x_max":1086,"o":"m 579 -19 q 375 19 468 -19 q 214 128 282 58 q 108 291 146 199 q 71 489 71 383 q 109 687 71 594 q 216 849 147 779 q 378 959 285 919 q 582 999 471 999 q 784 959 692 999 q 944 849 876 919 q 1049 688 1011 779 q 1086 492 1086 596 q 1049 293 1086 386 q 942 130 1011 200 q 781 20 874 60 q 579 -19 689 -19 m 581 88 q 780 141 693 88 q 916 285 867 194 q 965 486 965 376 q 938 641 965 568 q 859 770 910 714 q 738 859 808 826 q 581 892 667 892 q 378 838 467 892 q 241 694 290 785 q 192 492 192 603 q 241 286 192 378 q 378 141 290 194 q 581 88 467 88 z "},"Π":{"ha":957,"x_min":111,"x_max":847,"o":"m 111 0 l 111 981 l 847 981 l 847 0 l 731 0 l 731 872 l 228 872 l 228 0 l 111 0 z "},"Ρ":{"ha":817,"x_min":111,"x_max":775,"o":"m 111 -3 l 111 979 l 426 979 q 609 945 531 979 q 731 847 688 911 q 775 690 775 782 q 727 526 775 594 q 598 423 679 458 q 417 388 517 388 l 231 388 l 231 -3 l 111 -3 m 231 493 l 414 493 q 592 543 528 493 q 656 685 656 593 q 593 827 656 781 q 417 874 531 874 l 231 874 l 231 493 z "},"Σ":{"ha":876,"x_min":19,"x_max":828,"o":"m 19 0 l 19 100 l 376 493 l 38 878 l 38 979 l 822 979 l 822 875 l 181 875 l 521 493 l 172 104 l 828 104 l 828 0 l 19 0 z "},"Τ":{"ha":722,"x_min":11,"x_max":711,"o":"m 303 0 l 303 874 l 11 874 l 11 979 l 711 979 l 711 874 l 419 874 l 419 0 l 303 0 z "},"Υ":{"ha":863,"x_min":-3,"x_max":865,"o":"m 374 0 l 374 389 l -3 979 l 136 979 l 436 497 l 733 979 l 865 979 l 490 390 l 490 0 l 374 0 z "},"Φ":{"ha":1197,"x_min":65,"x_max":1132,"o":"m 543 -7 l 543 72 q 505 76 524 74 q 467 81 486 78 q 244 159 333 101 q 110 301 156 217 q 65 486 65 386 q 110 673 65 588 q 244 817 156 758 q 467 896 333 876 q 505 901 486 899 q 543 904 524 903 l 543 986 l 660 986 l 660 904 q 698 901 679 903 q 735 896 717 899 q 955 817 867 876 q 1088 672 1043 757 q 1132 489 1132 586 q 1088 304 1132 389 q 955 161 1043 219 q 735 81 867 103 q 698 76 717 78 q 660 72 679 74 l 660 -7 l 543 -7 m 543 179 l 543 797 q 344 749 424 790 q 226 642 265 708 q 186 489 186 575 q 226 336 186 403 q 344 229 265 269 q 543 179 424 189 m 660 179 q 860 229 782 189 q 974 335 938 269 q 1011 485 1011 400 q 974 638 1011 571 q 859 747 936 704 q 660 797 782 789 l 660 179 z "},"Χ":{"ha":871,"x_min":14,"x_max":856,"o":"m 14 0 l 368 501 l 31 979 l 168 979 l 439 592 l 704 979 l 838 979 l 504 504 l 856 0 l 721 0 l 435 411 l 151 0 l 14 0 z "},"Ψ":{"ha":1096,"x_min":99,"x_max":996,"o":"m 489 0 l 489 188 q 284 235 372 188 q 147 379 196 283 q 99 615 99 475 l 99 979 l 215 979 l 215 608 q 243 449 215 519 q 331 337 271 378 q 488 296 392 296 l 488 979 l 604 979 l 604 296 q 762 337 701 296 q 851 449 822 378 q 879 608 879 519 l 879 979 l 996 975 l 996 615 q 890 296 996 404 q 606 188 783 188 l 606 0 l 489 0 z "},"Ω":{"ha":1207,"x_min":96,"x_max":1111,"o":"m 96 0 l 96 106 l 342 106 q 220 216 271 151 q 143 359 169 281 q 117 522 117 438 q 155 713 117 626 q 260 865 193 800 q 416 964 326 929 q 607 999 506 999 q 856 938 747 999 q 1028 768 965 876 q 1090 518 1090 660 q 1063 356 1090 433 q 986 216 1036 279 q 865 106 936 153 l 1111 106 l 1111 0 l 711 0 l 703 106 q 842 217 782 163 q 935 342 901 271 q 969 518 969 413 q 924 712 969 628 q 798 844 879 796 q 606 892 717 892 q 412 844 494 892 q 283 713 329 797 q 238 518 238 629 q 314 274 238 375 q 511 106 390 174 l 511 0 l 96 0 z "},"Ά":{"ha":1019,"x_min":50,"x_max":1026,"o":"m 72 0 l 500 979 l 597 979 l 1026 0 l 897 0 l 781 274 l 317 274 l 199 0 l 72 0 m 361 378 l 736 378 l 549 842 l 361 378 m 50 843 l 176 1050 l 336 1050 l 132 843 l 50 843 z "},"Έ":{"ha":919,"x_min":-117,"x_max":826,"o":"m 172 0 l 172 979 l 811 979 l 811 874 l 292 874 l 292 551 l 771 551 l 771 446 l 292 446 l 292 106 l 826 106 l 826 0 l 172 0 m -117 843 l 10 1050 l 169 1050 l -35 843 l -117 843 z "},"Ή":{"ha":1063,"x_min":-104,"x_max":953,"o":"m 189 0 l 189 981 l 306 981 l 306 553 l 836 553 l 836 981 l 953 981 l 953 0 l 836 0 l 836 444 l 306 444 l 306 0 l 189 0 m -104 843 l 22 1050 l 182 1050 l -22 843 l -104 843 z "},"Ί":{"ha":338,"x_min":-172,"x_max":228,"o":"m 111 0 l 111 979 l 228 979 l 228 0 l 111 0 m -172 843 l -46 1050 l 114 1050 l -90 843 l -172 843 z "},"Ό":{"ha":1219,"x_min":8,"x_max":1149,"o":"m 642 -19 q 438 19 531 -19 q 276 128 344 58 q 171 291 208 199 q 133 489 133 383 q 172 687 133 594 q 278 849 210 779 q 440 959 347 919 q 644 999 533 999 q 847 959 754 999 q 1006 849 939 919 q 1111 688 1074 779 q 1149 492 1149 596 q 1111 293 1149 386 q 1005 130 1074 200 q 844 20 936 60 q 642 -19 751 -19 m 643 88 q 842 141 756 88 q 978 285 929 194 q 1028 486 1028 376 q 1000 641 1028 568 q 922 770 972 714 q 800 859 871 826 q 643 892 729 892 q 441 838 529 892 q 303 694 353 785 q 254 492 254 603 q 303 286 254 378 q 441 141 353 194 q 643 88 529 88 m 8 843 l 135 1050 l 294 1050 l 90 843 l 8 843 z "},"Ύ":{"ha":1007,"x_min":-158,"x_max":1010,"o":"m 518 0 l 518 389 l 142 979 l 281 979 l 581 497 l 878 979 l 1010 979 l 635 390 l 635 0 l 518 0 m -158 843 l -32 1050 l 128 1050 l -76 843 l -158 843 z "},"Ώ":{"ha":1217,"x_min":8,"x_max":1121,"o":"m 106 0 l 106 106 l 351 106 q 230 216 281 151 q 153 359 179 281 q 126 522 126 438 q 165 713 126 626 q 269 865 203 800 q 426 964 336 929 q 617 999 515 999 q 866 938 757 999 q 1038 768 975 876 q 1100 518 1100 660 q 1073 356 1100 433 q 996 216 1046 279 q 875 106 946 153 l 1121 106 l 1121 0 l 721 0 l 713 106 q 851 217 792 163 q 945 342 911 271 q 979 518 979 413 q 934 712 979 628 q 808 844 889 796 q 615 892 726 892 q 422 844 504 892 q 293 713 339 797 q 247 518 247 629 q 324 274 247 375 q 521 106 400 174 l 521 0 l 106 0 m 8 843 l 135 1050 l 294 1050 l 90 843 l 8 843 z "},"Ϊ":{"ha":360,"x_min":-33,"x_max":394,"o":"m 128 0 l 128 979 l 244 979 l 244 0 l 128 0 m 49 1099 q -10 1122 13 1099 q -33 1182 -33 1146 q -9 1240 -33 1217 q 49 1263 15 1263 q 107 1238 82 1263 q 132 1181 132 1214 q 107 1122 132 1146 q 49 1099 82 1099 m 313 1099 q 256 1122 279 1099 q 233 1182 233 1146 q 256 1239 233 1215 q 313 1263 278 1263 q 372 1238 349 1263 q 394 1181 394 1214 q 372 1122 394 1146 q 313 1099 349 1099 z "},"Ϋ":{"ha":863,"x_min":-3,"x_max":865,"o":"m 374 4 l 374 389 l -3 979 l 136 979 l 436 497 l 733 979 l 865 979 l 490 390 l 490 0 l 374 4 m 304 1099 q 245 1122 268 1099 q 222 1182 222 1146 q 247 1240 222 1217 q 304 1263 271 1263 q 363 1238 338 1263 q 388 1181 388 1214 q 363 1122 388 1146 q 304 1099 338 1099 m 568 1099 q 512 1122 535 1099 q 489 1182 489 1146 q 511 1239 489 1215 q 568 1263 533 1263 q 627 1238 604 1263 q 650 1181 650 1214 q 627 1122 650 1146 q 568 1099 604 1099 z "},"Ϗ":{"ha":788,"x_min":111,"x_max":788,"o":"m 428 -283 q 285 -265 353 -283 q 146 -218 218 -247 l 146 -93 q 241 -140 192 -118 q 339 -174 290 -161 q 431 -186 388 -186 q 550 -165 496 -186 q 637 -108 604 -143 q 669 -35 669 -74 l 228 458 l 228 0 l 111 0 l 111 979 l 228 979 l 228 568 l 599 979 l 749 979 l 328 521 l 788 0 q 762 -107 788 -56 q 688 -198 736 -158 q 574 -260 640 -237 q 428 -283 508 -283 z "},"α":{"ha":842,"x_min":49,"x_max":747,"o":"m 381 -15 q 247 12 307 -15 q 142 88 186 39 q 73 199 97 136 q 49 335 49 263 q 72 472 49 408 q 140 583 96 535 q 244 659 183 632 q 381 686 306 686 q 524 651 464 686 q 633 551 585 615 l 633 669 l 747 669 l 747 0 l 633 121 q 524 22 582 58 q 381 -15 465 -15 m 399 82 q 523 117 468 82 q 609 211 578 153 q 640 336 640 269 q 609 460 640 403 q 524 553 578 518 q 400 589 469 589 q 274 556 328 589 q 192 465 221 522 q 164 335 164 407 q 193 210 164 268 q 276 117 222 153 q 399 82 329 82 z "},"β":{"ha":833,"x_min":93,"x_max":785,"o":"m 93 -261 l 93 699 q 128 858 93 785 q 236 977 163 932 q 424 1022 310 1022 q 583 991 515 1022 q 688 903 650 960 q 725 771 725 847 q 676 633 725 686 q 547 544 628 581 q 676 503 624 539 q 757 410 729 467 q 785 285 785 353 q 742 131 785 199 q 630 25 700 64 q 476 -14 560 -14 q 323 21 393 -14 q 207 117 253 56 l 207 -261 l 93 -261 m 471 86 q 572 111 526 86 q 643 181 617 136 q 669 285 669 226 q 602 428 669 372 q 397 490 535 483 l 397 576 q 508 609 460 588 q 583 667 556 631 q 610 760 610 704 q 557 880 610 838 q 422 922 504 922 q 300 890 347 922 q 230 806 253 857 q 207 697 207 754 l 207 335 q 244 205 207 261 q 341 117 281 149 q 471 86 401 86 z "},"γ":{"ha":663,"x_min":-6,"x_max":668,"o":"m 275 -261 l 275 0 l -6 668 l 119 668 l 333 126 l 549 668 l 668 668 l 389 3 l 389 -261 l 275 -261 z "},"δ":{"ha":813,"x_min":49,"x_max":765,"o":"m 404 -14 q 226 31 307 -14 q 97 156 146 76 q 49 335 49 235 q 76 467 49 404 q 154 576 104 529 q 272 647 204 622 q 421 664 340 671 l 118 925 l 118 1022 l 671 1022 l 671 925 l 290 925 l 560 685 q 658 588 611 639 q 735 476 706 538 q 765 335 765 414 q 717 158 765 238 q 586 33 668 79 q 404 -14 504 -14 m 407 82 q 534 119 479 82 q 619 213 589 156 q 650 333 650 271 q 621 453 650 401 q 539 535 592 506 q 417 565 486 565 q 288 536 346 565 q 197 455 231 507 q 164 333 164 403 q 194 210 164 268 q 278 117 224 153 q 407 82 333 82 z "},"ε":{"ha":581,"x_min":49,"x_max":518,"o":"m 322 -14 q 185 12 247 -14 q 86 83 124 38 q 49 186 49 128 q 90 290 49 246 q 208 353 132 335 q 109 420 142 376 q 76 514 76 464 q 109 606 76 568 q 197 665 142 644 q 318 686 251 686 q 413 676 367 686 q 503 647 458 665 l 474 546 q 398 580 438 569 q 321 590 358 590 q 228 568 265 590 q 192 506 192 546 q 235 432 192 460 q 357 404 278 404 l 401 404 l 401 310 l 358 310 q 210 274 257 310 q 164 194 164 239 q 192 129 164 154 q 258 93 219 104 q 329 82 296 82 q 403 91 361 82 q 493 125 446 100 l 518 28 q 420 -3 469 8 q 322 -14 371 -14 z "},"ζ":{"ha":560,"x_min":49,"x_max":560,"o":"m 529 -232 l 418 -221 q 433 -166 429 -192 q 438 -121 438 -140 q 430 -77 438 -99 q 398 -37 422 -56 q 324 -11 374 -19 q 178 40 240 3 q 83 142 117 78 q 49 300 49 207 q 151 625 49 464 q 454 925 254 786 l 111 925 l 111 1022 l 560 1022 l 560 903 q 407 783 479 853 q 281 634 335 714 q 195 469 226 554 q 164 303 164 385 q 207 160 164 218 q 360 83 250 103 q 508 11 465 65 q 551 -111 551 -43 q 544 -178 551 -147 q 529 -232 536 -208 z "},"η":{"ha":753,"x_min":93,"x_max":668,"o":"m 93 0 l 93 669 l 210 585 q 301 657 247 629 q 426 685 354 685 q 560 652 506 685 q 641 560 614 619 q 668 421 668 501 l 668 0 l 554 0 l 554 389 q 530 507 554 464 q 468 567 506 550 q 392 585 431 585 q 310 567 353 585 q 237 508 267 550 q 207 389 207 465 l 207 0 l 93 0 z "},"θ":{"ha":822,"x_min":53,"x_max":769,"o":"m 410 -14 q 239 33 308 -14 q 129 157 169 81 q 71 322 89 233 q 53 494 53 411 q 70 675 53 582 q 128 847 88 768 q 238 974 168 925 q 411 1022 307 1022 q 581 975 513 1022 q 692 851 650 928 q 751 685 733 775 q 769 510 769 596 q 759 368 769 442 q 724 226 749 294 q 659 104 700 158 q 556 18 618 50 q 410 -14 494 -14 m 411 82 q 528 123 482 82 q 600 226 574 164 q 638 356 626 289 q 651 478 650 424 l 171 478 q 195 307 175 381 q 249 183 215 233 q 324 108 282 133 q 411 82 365 82 m 171 572 l 651 572 q 635 685 649 624 q 592 801 621 746 q 519 891 564 856 q 410 926 475 926 q 301 891 346 926 q 228 800 256 856 q 187 683 200 744 q 171 572 174 622 z "},"ι":{"ha":289,"x_min":93,"x_max":206,"o":"m 93 0 l 93 669 l 206 669 l 206 0 l 93 0 z "},"κ":{"ha":631,"x_min":93,"x_max":621,"o":"m 93 0 l 93 669 l 207 669 l 207 390 l 463 669 l 608 669 l 304 353 l 621 0 l 481 0 l 207 300 l 207 0 l 93 0 z "},"λ":{"ha":685,"x_min":8,"x_max":688,"o":"m 8 0 l 279 706 l 279 707 q 258 754 274 718 q 223 832 243 790 q 181 904 203 874 q 140 935 160 935 q 110 930 125 935 q 82 918 96 925 l 54 1011 q 101 1019 78 1015 q 147 1022 124 1022 q 216 1006 188 1022 q 265 964 244 990 q 302 906 286 938 q 332 842 318 874 l 688 0 l 568 0 l 338 571 l 132 0 l 8 0 z "},"μ":{"ha":783,"x_min":101,"x_max":676,"o":"m 101 -261 l 101 671 l 215 671 l 215 283 q 240 169 215 213 q 301 105 264 125 q 376 85 339 85 q 508 133 453 85 q 563 283 563 182 l 563 671 l 676 671 l 676 0 l 561 86 q 483 15 532 44 q 376 -14 435 -14 q 285 11 328 -14 q 215 89 242 36 l 215 -261 l 101 -261 z "},"ν":{"ha":678,"x_min":3,"x_max":676,"o":"m 283 0 l 3 668 l 128 668 l 342 126 l 557 668 l 676 668 l 396 0 l 283 0 z "},"ξ":{"ha":563,"x_min":49,"x_max":549,"o":"m 526 -232 l 415 -221 q 431 -169 426 -192 q 435 -125 435 -146 q 429 -85 435 -108 q 400 -40 424 -61 q 321 -11 376 -19 q 187 36 249 1 q 87 128 125 71 q 49 267 49 186 q 76 388 49 332 q 151 481 104 443 q 257 529 199 518 q 149 609 186 557 q 111 726 111 661 q 152 847 111 793 q 276 925 193 901 l 94 925 l 94 1022 l 543 1022 l 543 921 q 435 913 490 921 q 332 885 379 906 q 256 828 285 865 q 226 731 226 790 q 278 617 226 658 q 453 576 331 576 l 453 481 q 301 462 367 481 q 200 399 236 443 q 164 281 164 356 q 213 149 164 197 q 351 83 263 100 q 472 39 429 68 q 532 -28 515 10 q 549 -107 549 -65 q 541 -176 549 -143 q 526 -232 533 -208 z "},"ο":{"ha":814,"x_min":49,"x_max":765,"o":"m 404 -14 q 221 32 301 -14 q 94 157 140 78 q 49 333 49 236 q 75 472 49 407 q 149 584 101 536 q 263 659 197 632 q 406 686 328 686 q 591 640 510 686 q 719 514 672 593 q 765 336 765 435 q 738 197 765 261 q 660 86 710 133 q 546 13 611 39 q 404 -14 481 -14 m 406 82 q 531 117 476 82 q 618 209 586 151 q 650 335 650 267 q 619 463 650 404 q 533 556 588 521 q 404 590 478 590 q 278 556 332 590 q 194 465 224 522 q 164 336 164 407 q 196 206 164 264 q 283 115 228 149 q 406 82 338 82 z "},"π":{"ha":739,"x_min":93,"x_max":654,"o":"m 93 0 l 93 669 l 654 669 l 654 0 l 540 0 l 540 575 l 207 575 l 207 0 l 93 0 z "},"ρ":{"ha":833,"x_min":85,"x_max":786,"o":"m 85 -261 l 85 336 q 131 518 85 439 q 256 642 176 597 q 438 686 336 686 q 617 642 538 686 q 741 519 696 597 q 786 336 786 440 q 763 201 786 264 q 695 89 739 138 q 590 13 651 40 q 453 -14 528 -14 q 308 20 372 -14 q 199 117 244 54 l 199 -261 l 85 -261 m 439 82 q 565 117 513 82 q 644 210 617 153 q 672 336 672 268 q 642 463 672 406 q 559 553 613 519 q 433 586 506 586 q 310 553 365 586 q 224 460 256 519 q 193 326 193 401 q 225 201 193 256 q 313 114 257 146 q 439 82 369 82 z "},"ς":{"ha":682,"x_min":71,"x_max":571,"o":"m 549 -232 l 438 -221 q 452 -165 447 -193 q 457 -110 457 -137 q 443 -67 457 -85 q 399 -34 429 -49 q 324 -6 369 -19 q 187 73 243 22 q 101 193 131 124 q 71 346 71 263 q 110 519 71 443 q 222 639 150 594 q 392 683 294 683 q 482 674 438 683 q 567 646 526 665 l 551 553 q 472 578 517 568 q 389 588 426 588 q 277 552 322 588 q 209 460 232 517 q 186 343 186 404 q 212 219 186 269 q 285 137 238 169 q 397 79 333 104 q 484 38 444 61 q 547 -19 524 15 q 571 -111 571 -54 q 565 -174 571 -143 q 549 -232 560 -204 z "},"σ":{"ha":853,"x_min":49,"x_max":833,"o":"m 404 -14 q 221 33 301 -14 q 94 156 140 79 q 49 325 49 233 q 74 450 49 389 q 149 561 100 511 q 270 640 199 611 q 435 669 342 669 l 833 669 l 833 572 l 635 572 q 735 461 706 528 q 765 328 765 394 q 735 195 765 257 q 653 86 706 133 q 538 13 601 39 q 404 -14 474 -14 m 406 82 q 531 115 476 82 q 618 203 586 147 q 650 326 650 258 q 585 504 650 435 q 408 574 519 574 q 278 540 333 574 q 194 451 224 507 q 164 328 164 394 q 196 208 164 264 q 283 117 228 151 q 406 82 338 82 z "},"τ":{"ha":515,"x_min":21,"x_max":494,"o":"m 357 -15 q 242 33 286 -15 q 199 167 199 82 l 199 572 l 21 572 l 21 669 l 494 669 l 494 572 l 310 572 l 310 171 q 324 107 310 132 q 376 82 339 82 q 402 85 389 82 q 425 96 415 89 l 425 0 q 393 -11 410 -7 q 357 -15 376 -15 z "},"υ":{"ha":743,"x_min":85,"x_max":660,"o":"m 375 -15 q 155 67 225 -15 q 85 303 85 149 l 85 671 l 199 671 l 199 271 q 242 138 199 192 q 372 85 285 85 q 499 139 453 85 q 546 268 546 193 l 546 671 l 660 671 l 660 306 q 630 135 660 207 q 537 24 600 63 q 375 -15 474 -15 z "},"φ":{"ha":989,"x_min":53,"x_max":942,"o":"m 439 -256 l 439 -14 q 243 40 331 -6 q 104 166 156 85 q 53 364 53 247 q 97 551 53 464 q 211 694 140 639 l 342 694 q 208 531 249 613 q 168 371 168 449 q 202 224 168 288 q 297 125 236 161 q 439 83 358 89 l 439 293 q 444 432 439 361 q 470 563 449 503 q 542 660 492 624 q 683 697 592 697 q 823 658 765 697 q 911 548 881 619 q 942 378 942 476 q 914 215 942 285 q 835 96 886 144 q 713 20 783 47 q 554 -12 642 -7 l 554 -256 l 439 -256 m 554 85 q 758 167 689 96 q 826 376 826 238 q 813 474 826 422 q 766 563 799 526 q 678 600 733 600 q 617 579 646 600 q 572 506 589 558 q 554 356 554 453 l 554 85 z "},"χ":{"ha":682,"x_min":10,"x_max":674,"o":"m 10 -261 l 281 238 l 28 668 l 158 668 l 343 350 l 529 668 l 654 668 l 401 244 l 674 -261 l 543 -261 l 339 129 l 135 -261 l 10 -261 z "},"ψ":{"ha":967,"x_min":85,"x_max":883,"o":"m 429 -261 l 429 -14 q 285 8 349 -14 q 176 72 221 29 q 108 178 132 115 q 85 322 85 240 l 85 671 l 199 671 l 199 326 q 219 202 199 250 q 275 128 240 154 q 350 94 310 103 q 428 85 390 85 l 428 1017 l 543 1017 l 543 85 q 618 97 579 85 q 692 135 657 108 q 748 208 726 163 q 769 324 769 254 l 769 671 l 883 671 l 883 325 q 856 167 883 232 q 782 63 829 103 q 674 4 735 22 q 543 -14 613 -14 l 543 -261 l 429 -261 z "},"ω":{"ha":1051,"x_min":49,"x_max":1004,"o":"m 317 -14 q 173 33 233 -14 q 81 158 113 79 q 49 338 49 238 q 92 541 49 453 q 207 694 136 629 l 336 694 q 237 581 275 639 q 181 462 199 524 q 164 333 164 400 q 183 201 164 261 q 238 106 203 142 q 319 71 272 71 q 394 99 365 71 q 440 169 424 126 q 462 259 456 213 q 468 342 468 306 l 468 489 l 583 489 l 583 342 q 605 177 583 236 q 660 94 626 118 q 729 71 693 71 q 815 106 779 71 q 869 200 850 140 q 889 333 889 260 q 871 460 889 400 q 815 579 853 521 q 715 694 776 638 l 846 694 q 960 542 915 631 q 1004 338 1004 453 q 971 158 1004 238 q 877 33 938 79 q 732 -14 817 -14 q 606 22 658 -14 q 525 113 553 57 q 445 22 499 57 q 317 -14 392 -14 z "},"ί":{"ha":289,"x_min":93,"x_max":404,"o":"m 93 0 l 93 669 l 206 669 l 206 0 l 93 0 m 118 913 l 244 1119 l 404 1119 l 200 913 l 118 913 z "},"ϊ":{"ha":350,"x_min":-46,"x_max":382,"o":"m 119 0 l 119 669 l 232 669 l 232 0 l 119 0 m 36 869 q -23 893 0 869 q -46 951 -46 917 q -22 1010 -46 986 q 36 1033 1 1033 q 94 1009 69 1033 q 119 951 119 985 q 94 893 119 917 q 36 869 69 869 m 300 869 q 244 893 267 869 q 221 951 221 917 q 244 1009 221 985 q 300 1033 267 1033 q 359 1009 336 1033 q 382 951 382 985 q 359 893 382 917 q 300 869 336 869 z "},"ΐ":{"ha":451,"x_min":-53,"x_max":501,"o":"m 167 0 l 167 669 l 279 669 l 279 0 l 167 0 m 111 904 l 238 1111 l 397 1111 l 193 904 l 111 904 m 29 900 q -30 924 -7 900 q -53 982 -53 947 q -29 1040 -53 1017 q 29 1064 -6 1064 q 88 1040 63 1064 q 113 982 113 1015 q 88 924 113 947 q 29 900 63 900 m 419 900 q 363 924 386 900 q 340 982 340 949 q 363 1040 340 1015 q 419 1064 386 1064 q 478 1040 456 1064 q 501 982 501 1015 q 478 924 501 947 q 419 900 456 900 z "},"ύ":{"ha":743,"x_min":85,"x_max":660,"o":"m 375 -15 q 155 67 225 -15 q 85 303 85 149 l 85 671 l 199 671 l 199 271 q 242 138 199 192 q 372 85 285 85 q 499 139 453 85 q 546 268 546 193 l 546 671 l 660 671 l 660 306 q 630 135 660 207 q 537 24 600 63 q 375 -15 474 -15 m 329 913 l 456 1119 l 615 1119 l 411 913 l 329 913 z "},"ϋ":{"ha":743,"x_min":85,"x_max":660,"o":"m 239 869 q 180 893 203 869 q 157 951 157 917 q 181 1010 157 986 q 239 1033 204 1033 q 297 1009 272 1033 q 322 951 322 985 q 297 893 322 917 q 239 869 272 869 m 503 869 q 447 893 469 869 q 424 951 424 917 q 447 1009 424 985 q 503 1033 469 1033 q 562 1009 539 1033 q 585 951 585 985 q 562 893 585 917 q 503 869 539 869 m 375 -15 q 155 67 225 -15 q 85 303 85 149 l 85 671 l 199 671 l 199 271 q 242 138 199 192 q 372 85 285 85 q 499 139 453 85 q 546 268 546 193 l 546 671 l 660 671 l 660 306 q 630 135 660 207 q 537 24 600 63 q 375 -15 474 -15 z "},"ΰ":{"ha":743,"x_min":85,"x_max":660,"o":"m 375 -15 q 155 67 225 -15 q 85 303 85 149 l 85 671 l 199 671 l 199 271 q 242 138 199 192 q 372 85 285 85 q 499 139 453 85 q 546 268 546 193 l 546 671 l 660 671 l 660 306 q 630 135 660 207 q 537 24 600 63 q 375 -15 474 -15 m 264 904 l 390 1111 l 550 1111 l 346 904 l 264 904 m 182 900 q 123 924 146 900 q 100 982 100 947 q 124 1040 100 1017 q 182 1064 147 1064 q 240 1040 215 1064 q 265 982 265 1015 q 240 924 265 947 q 182 900 215 900 m 572 900 q 516 924 539 900 q 493 982 493 949 q 516 1040 493 1015 q 572 1064 539 1064 q 631 1040 608 1064 q 654 982 654 1015 q 631 924 654 947 q 572 900 608 900 z "},"ό":{"ha":814,"x_min":49,"x_max":765,"o":"m 404 -14 q 221 32 301 -14 q 94 157 140 78 q 49 333 49 236 q 75 472 49 407 q 149 584 101 536 q 263 659 197 632 q 406 686 328 686 q 591 640 510 686 q 719 514 672 593 q 765 336 765 435 q 738 197 765 261 q 660 86 710 133 q 546 13 611 39 q 404 -14 481 -14 m 406 82 q 531 117 476 82 q 618 209 586 151 q 650 335 650 267 q 619 463 650 404 q 533 556 588 521 q 404 590 478 590 q 278 556 332 590 q 194 465 224 522 q 164 336 164 407 q 196 206 164 264 q 283 115 228 149 q 406 82 338 82 m 379 913 l 506 1119 l 665 1119 l 461 913 l 379 913 z "},"ώ":{"ha":1051,"x_min":49,"x_max":1004,"o":"m 317 -14 q 173 33 233 -14 q 81 158 113 79 q 49 338 49 238 q 92 541 49 453 q 207 694 136 629 l 336 694 q 237 581 275 639 q 181 462 199 524 q 164 333 164 400 q 183 201 164 261 q 238 106 203 142 q 319 71 272 71 q 394 99 365 71 q 440 169 424 126 q 462 259 456 213 q 468 342 468 306 l 468 489 l 583 489 l 583 342 q 605 177 583 236 q 660 94 626 118 q 729 71 693 71 q 815 106 779 71 q 869 200 850 140 q 889 333 889 260 q 871 460 889 400 q 815 579 853 521 q 715 694 776 638 l 846 694 q 960 542 915 631 q 1004 338 1004 453 q 971 158 1004 238 q 877 33 938 79 q 732 -14 817 -14 q 606 22 658 -14 q 525 113 553 57 q 445 22 499 57 q 317 -14 392 -14 m 481 913 l 607 1119 l 767 1119 l 563 913 l 481 913 z "},"ά":{"ha":842,"x_min":49,"x_max":747,"o":"m 381 -15 q 247 12 307 -15 q 142 88 186 39 q 73 199 97 136 q 49 335 49 263 q 72 472 49 408 q 140 583 96 535 q 244 659 183 632 q 381 686 306 686 q 524 651 464 686 q 633 551 585 615 l 633 669 l 747 669 l 747 0 l 633 121 q 524 22 582 58 q 381 -15 465 -15 m 399 82 q 523 117 468 82 q 609 211 578 153 q 640 336 640 269 q 609 460 640 403 q 524 553 578 518 q 400 589 469 589 q 274 556 328 589 q 192 465 221 522 q 164 335 164 407 q 193 210 164 268 q 276 117 222 153 q 399 82 329 82 m 324 913 l 450 1119 l 610 1119 l 406 913 l 324 913 z "},"έ":{"ha":611,"x_min":49,"x_max":549,"o":"m 322 -14 q 185 12 247 -14 q 86 83 124 38 q 49 186 49 128 q 90 290 49 246 q 208 353 132 335 q 109 420 142 376 q 76 514 76 464 q 109 606 76 568 q 197 665 142 644 q 318 686 251 686 q 413 676 367 686 q 503 647 458 665 l 474 546 q 398 580 438 569 q 321 590 358 590 q 228 568 265 590 q 192 506 192 546 q 235 432 192 460 q 357 404 278 404 l 401 404 l 401 310 l 358 310 q 210 274 257 310 q 164 194 164 239 q 192 129 164 154 q 258 93 219 104 q 329 82 296 82 q 403 91 361 82 q 493 125 446 100 l 518 28 q 420 -3 469 8 q 322 -14 371 -14 m 263 913 l 389 1119 l 549 1119 l 344 913 l 263 913 z "},"ή":{"ha":753,"x_min":93,"x_max":668,"o":"m 93 0 l 93 669 l 210 585 q 301 657 247 629 q 426 685 354 685 q 560 652 506 685 q 641 560 614 619 q 668 421 668 501 l 668 0 l 554 0 l 554 389 q 530 507 554 464 q 468 567 506 550 q 392 585 431 585 q 310 567 353 585 q 237 508 267 550 q 207 389 207 465 l 207 0 l 93 0 m 342 913 l 468 1119 l 628 1119 l 424 913 l 342 913 z "},"ϗ":{"ha":631,"x_min":93,"x_max":621,"o":"m 325 -256 q 212 -242 265 -256 q 104 -204 158 -228 l 104 -79 q 174 -121 138 -103 q 250 -149 211 -139 q 328 -158 289 -158 q 414 -142 374 -158 q 478 -97 454 -126 q 503 -25 503 -67 l 207 300 l 207 0 l 93 0 l 93 669 l 207 669 l 207 390 l 463 669 l 608 669 l 304 353 l 621 0 q 581 -133 621 -75 q 474 -223 542 -190 q 325 -256 407 -256 z "},"⁄":{"ha":401,"x_min":-165,"x_max":576,"o":"m -165 -61 l 465 1061 l 576 1061 l -60 -61 l -165 -61 z "},"½":{"ha":1024,"x_min":26,"x_max":967,"o":"m 65 -61 l 696 1061 l 807 1061 l 171 -61 l 65 -61 m 106 397 l 106 860 q 67 815 89 836 q 26 781 44 793 l 26 876 q 86 935 63 907 q 125 992 110 963 l 200 992 l 200 397 l 106 397 m 565 -1 l 728 199 q 814 309 783 267 q 857 380 844 351 q 869 433 869 408 q 844 498 869 472 q 779 524 818 524 q 731 511 758 524 q 679 465 704 499 l 624 532 q 706 588 671 572 q 783 603 740 603 q 881 581 840 603 q 942 522 921 560 q 964 433 964 483 q 950 362 964 396 q 903 284 936 328 q 815 174 871 240 l 738 78 l 967 78 l 924 -1 l 565 -1 z "},"¼":{"ha":872,"x_min":22,"x_max":843,"o":"m 690 1 l 690 99 q 568 99 631 99 q 429 99 506 99 l 429 147 l 722 596 l 785 596 l 785 175 l 843 175 l 818 99 q 801 99 808 99 q 785 99 794 99 l 785 1 l 690 1 m 542 175 l 690 175 q 690 267 690 218 q 690 353 690 317 q 690 396 690 390 l 690 404 q 657 352 672 376 q 628 307 642 328 q 600 265 614 286 q 572 221 586 243 q 542 175 557 199 m 42 -61 l 672 1061 l 783 1061 l 147 -61 l 42 -61 m 101 397 l 101 860 q 63 815 85 836 q 22 781 40 793 l 22 876 q 82 935 58 907 q 121 992 106 963 l 196 992 l 196 397 l 101 397 z "},"¾":{"ha":1008,"x_min":81,"x_max":981,"o":"m 257 386 q 168 401 204 386 q 111 448 132 415 q 81 532 90 481 l 176 532 q 208 476 186 489 q 264 464 231 464 q 347 497 314 464 q 379 579 379 531 q 367 631 379 607 q 322 671 354 656 q 233 686 290 686 q 217 686 229 686 q 200 686 204 686 l 200 764 l 226 764 q 315 787 283 764 q 347 854 347 810 q 327 907 347 888 q 265 926 307 926 q 217 910 236 926 q 190 861 199 894 l 100 861 q 132 944 111 913 q 185 990 153 975 q 261 1004 218 1004 q 353 987 314 1004 q 415 938 393 969 q 436 861 436 906 q 413 788 436 817 q 340 731 390 758 q 440 673 413 710 q 468 581 468 636 q 440 478 468 522 q 365 410 413 435 q 257 386 317 386 m 188 -61 l 818 1061 l 929 1061 l 293 -61 l 188 -61 m 828 1 l 828 99 q 706 99 768 99 q 567 99 643 99 l 567 147 l 860 596 l 922 596 l 922 175 l 981 175 l 956 99 q 939 99 946 99 q 922 99 932 99 l 922 1 l 828 1 m 679 175 l 828 175 q 828 267 828 218 q 828 353 828 317 q 828 396 828 390 l 828 404 q 794 352 810 376 q 765 307 779 328 q 738 265 751 286 q 709 221 724 243 q 679 175 694 199 z "},"⅛":{"ha":994,"x_min":22,"x_max":933,"o":"m 46 -61 l 676 1061 l 788 1061 l 151 -61 l 46 -61 m 101 397 l 101 860 q 63 815 85 836 q 22 781 40 793 l 22 876 q 82 935 58 907 q 121 992 106 963 l 196 992 l 196 397 l 101 397 m 726 -15 q 621 8 668 -15 q 546 69 574 31 q 518 154 518 107 q 548 244 518 207 q 633 306 578 282 q 565 360 589 325 q 540 442 540 394 q 566 523 540 488 q 633 578 592 558 q 725 597 675 597 q 817 577 775 597 q 885 521 860 557 q 911 438 911 485 q 885 358 911 390 q 818 304 858 326 q 903 246 872 283 q 933 156 933 208 q 874 32 933 79 q 726 -15 814 -15 m 725 46 q 824 78 786 46 q 861 160 861 111 q 823 240 861 208 q 725 272 785 272 q 628 240 665 272 q 590 160 590 208 q 632 75 590 104 q 725 46 674 46 m 725 333 q 808 362 774 333 q 842 436 842 390 q 808 509 842 481 q 725 538 774 538 q 643 508 676 538 q 610 435 610 479 q 646 361 610 389 q 725 333 682 333 z "},"⅜":{"ha":1169,"x_min":81,"x_max":1106,"o":"m 211 -61 l 842 1061 l 953 1061 l 317 -61 l 211 -61 m 899 -15 q 793 8 840 -15 q 718 69 746 31 q 690 154 690 107 q 720 244 690 207 q 806 306 750 282 q 737 360 761 325 q 713 442 713 394 q 738 523 713 488 q 806 578 764 558 q 897 597 847 597 q 990 577 947 597 q 1058 521 1032 557 q 1083 438 1083 485 q 1057 358 1083 390 q 990 304 1031 326 q 1075 246 1044 283 q 1106 156 1106 208 q 1046 32 1106 79 q 899 -15 986 -15 m 897 46 q 996 78 958 46 q 1033 160 1033 111 q 995 240 1033 208 q 897 272 957 272 q 800 240 838 272 q 763 160 763 208 q 804 75 763 104 q 897 46 846 46 m 897 333 q 980 362 946 333 q 1014 436 1014 390 q 980 509 1014 481 q 897 538 946 538 q 815 508 849 538 q 782 435 782 479 q 818 361 782 389 q 897 333 854 333 m 257 386 q 168 401 204 386 q 111 448 132 415 q 81 532 90 481 l 176 532 q 208 476 186 489 q 264 464 231 464 q 347 497 314 464 q 379 579 379 531 q 367 631 379 607 q 322 671 354 656 q 233 686 290 686 q 217 686 229 686 q 200 686 204 686 l 200 764 l 226 764 q 315 787 283 764 q 347 854 347 810 q 327 907 347 888 q 265 926 307 926 q 217 910 236 926 q 190 861 199 894 l 100 861 q 132 944 111 913 q 185 990 153 975 q 261 1004 218 1004 q 353 987 314 1004 q 415 938 393 969 q 436 861 436 906 q 413 788 436 817 q 340 731 390 758 q 440 673 413 710 q 468 581 468 636 q 440 478 468 522 q 365 410 413 435 q 257 386 317 386 z "},"⅝":{"ha":1149,"x_min":40,"x_max":1086,"o":"m 203 -61 l 833 1061 l 944 1061 l 308 -61 l 203 -61 m 221 406 q 121 426 163 406 q 40 485 79 447 l 81 529 q 145 483 110 500 q 221 467 181 467 q 321 501 285 467 q 357 594 357 536 q 316 682 357 647 q 213 717 275 717 q 171 713 190 717 q 132 701 151 708 l 79 726 l 106 990 l 407 990 l 401 929 l 161 929 l 143 761 q 187 774 167 769 q 229 778 207 778 q 328 756 283 778 q 400 693 374 733 q 426 597 426 653 q 370 458 426 511 q 221 406 314 406 m 879 -15 q 774 8 821 -15 q 699 69 726 31 q 671 154 671 107 q 701 244 671 207 q 786 306 731 282 q 717 360 742 325 q 693 442 693 394 q 719 523 693 488 q 786 578 744 558 q 878 597 828 597 q 970 577 928 597 q 1038 521 1013 557 q 1064 438 1064 485 q 1038 358 1064 390 q 971 304 1011 326 q 1056 246 1025 283 q 1086 156 1086 208 q 1026 32 1086 79 q 879 -15 967 -15 m 878 46 q 976 78 939 46 q 1014 160 1014 111 q 976 240 1014 208 q 878 272 938 272 q 781 240 818 272 q 743 160 743 208 q 785 75 743 104 q 878 46 826 46 m 878 333 q 960 362 926 333 q 994 436 994 390 q 960 509 994 481 q 878 538 926 538 q 796 508 829 538 q 763 435 763 479 q 799 361 763 389 q 878 333 835 333 z "},"⅞":{"ha":1014,"x_min":26,"x_max":951,"o":"m 40 -61 l 671 1061 l 782 1061 l 146 -61 l 40 -61 m 744 -15 q 639 8 686 -15 q 564 69 592 31 q 536 154 536 107 q 566 244 536 207 q 651 306 596 282 q 583 360 607 325 q 558 442 558 394 q 584 523 558 488 q 651 578 610 558 q 743 597 693 597 q 835 577 793 597 q 903 521 878 557 q 929 438 929 485 q 903 358 929 390 q 836 304 876 326 q 921 246 890 283 q 951 156 951 208 q 892 32 951 79 q 744 -15 832 -15 m 743 46 q 842 78 804 46 q 879 160 879 111 q 841 240 879 208 q 743 272 803 272 q 646 240 683 272 q 608 160 608 208 q 650 75 608 104 q 743 46 692 46 m 743 333 q 826 362 792 333 q 860 436 860 390 q 826 509 860 481 q 743 538 792 538 q 661 508 694 538 q 628 435 628 479 q 664 361 628 389 q 743 333 700 333 m 65 406 l 351 929 l 26 929 l 26 992 l 425 992 l 425 928 l 142 406 l 65 406 z "},"⁰":{"ha":482,"x_min":18,"x_max":465,"o":"m 240 382 q 119 420 168 382 q 44 528 69 458 q 18 692 18 599 q 44 851 18 782 q 120 959 71 919 q 242 999 169 999 q 349 972 306 999 q 417 899 392 944 q 454 800 443 854 q 465 690 465 746 q 440 531 465 600 q 365 422 415 461 q 240 382 315 382 m 243 446 q 353 515 315 446 q 392 690 392 585 q 353 863 392 799 q 240 926 314 926 q 159 901 189 926 q 115 837 129 875 q 96 759 100 799 q 92 692 92 719 q 130 514 92 582 q 243 446 168 446 z "},"¹":{"ha":304,"x_min":32,"x_max":206,"o":"m 111 397 l 111 860 q 72 815 94 836 q 32 781 50 793 l 32 876 q 92 935 68 907 q 131 992 115 963 l 206 992 l 206 397 l 111 397 z "},"²":{"ha":463,"x_min":18,"x_max":419,"o":"m 18 396 l 181 596 q 267 706 236 664 q 310 777 297 749 q 322 831 322 806 q 297 895 322 869 q 232 921 271 921 q 184 908 211 921 q 132 863 157 896 l 76 929 q 158 985 124 969 q 236 1000 193 1000 q 333 978 293 1000 q 395 919 374 957 q 417 831 417 881 q 403 759 417 793 q 356 681 389 725 q 268 571 324 638 l 190 475 l 419 475 l 376 396 l 18 396 z "},"³":{"ha":435,"x_min":13,"x_max":400,"o":"m 189 386 q 100 401 136 386 q 43 448 64 415 q 13 532 22 481 l 108 532 q 140 476 118 489 q 196 464 163 464 q 278 497 246 464 q 311 579 311 531 q 299 631 311 607 q 254 671 286 656 q 165 686 222 686 q 149 686 161 686 q 132 686 136 686 l 132 764 l 158 764 q 247 787 215 764 q 279 854 279 810 q 259 907 279 888 q 197 926 239 926 q 149 910 168 926 q 122 861 131 894 l 32 861 q 64 944 43 913 q 117 990 85 975 q 193 1004 150 1004 q 285 987 246 1004 q 347 938 325 969 q 368 861 368 906 q 345 788 368 817 q 272 731 322 758 q 372 673 344 710 q 400 581 400 636 q 372 478 400 522 q 297 410 344 435 q 189 386 249 386 z "},"⁴":{"ha":482,"x_min":19,"x_max":433,"o":"m 281 399 l 281 496 q 158 496 221 496 q 19 496 96 496 l 19 544 l 313 993 l 375 993 l 375 572 l 433 572 l 408 496 q 392 496 399 496 q 375 496 385 496 l 375 399 l 281 399 m 132 572 l 281 572 q 281 665 281 615 q 281 751 281 714 q 281 793 281 788 l 281 801 q 247 749 263 774 q 218 704 232 725 q 190 662 204 683 q 162 618 176 640 q 132 572 147 596 z "},"⁵":{"ha":482,"x_min":32,"x_max":418,"o":"m 213 394 q 113 415 154 394 q 32 474 71 436 l 72 518 q 137 472 101 489 q 213 456 172 456 q 313 490 276 456 q 349 583 349 525 q 308 671 349 636 q 204 706 267 706 q 163 701 182 706 q 124 690 143 697 l 71 715 l 97 979 l 399 979 l 393 918 l 153 918 l 135 750 q 178 763 158 758 q 221 767 199 767 q 320 744 275 767 q 392 682 365 722 q 418 586 418 642 q 362 447 418 500 q 213 394 306 394 z "},"⁶":{"ha":482,"x_min":36,"x_max":442,"o":"m 242 386 q 96 438 156 386 q 36 583 36 489 q 46 640 36 613 q 74 699 56 668 q 117 768 92 731 l 258 983 l 338 983 l 167 728 q 211 749 190 746 q 257 753 232 753 q 388 705 335 753 q 442 575 442 657 q 415 477 442 519 q 344 410 389 435 q 242 386 299 386 m 240 446 q 334 481 297 446 q 371 574 371 517 q 335 662 371 628 q 240 696 299 696 q 144 659 181 696 q 107 571 107 622 q 147 481 107 515 q 240 446 188 446 z "},"⁷":{"ha":482,"x_min":83,"x_max":482,"o":"m 122 397 l 408 921 l 83 921 l 83 983 l 482 983 l 482 919 l 199 397 l 122 397 z "},"⁸":{"ha":482,"x_min":32,"x_max":447,"o":"m 240 385 q 135 408 182 385 q 60 469 88 431 q 32 554 32 507 q 62 644 32 607 q 147 706 92 682 q 78 760 103 725 q 54 842 54 794 q 80 923 54 888 q 147 978 106 958 q 239 997 189 997 q 331 977 289 997 q 399 921 374 957 q 425 838 425 885 q 399 758 425 790 q 332 704 372 726 q 417 646 386 683 q 447 556 447 608 q 388 432 447 479 q 240 385 328 385 m 239 446 q 338 478 300 446 q 375 560 375 511 q 337 640 375 608 q 239 672 299 672 q 142 640 179 672 q 104 560 104 608 q 146 475 104 504 q 239 446 188 446 m 239 733 q 322 762 288 733 q 356 836 356 790 q 322 909 356 881 q 239 938 288 938 q 157 908 190 938 q 124 835 124 879 q 160 761 124 789 q 239 733 196 733 z "},"⁹":{"ha":482,"x_min":60,"x_max":475,"o":"m 168 386 l 340 649 q 298 626 318 632 q 251 619 278 619 q 156 642 200 619 q 86 707 113 665 q 60 804 60 749 q 87 905 60 861 q 160 974 114 949 q 264 1000 207 1000 q 415 945 354 1000 q 475 796 475 890 q 449 690 475 738 q 392 599 422 643 l 247 386 l 168 386 m 267 682 q 356 719 321 682 q 392 808 392 756 q 355 901 392 865 q 265 938 318 938 q 170 901 207 938 q 133 808 133 864 q 170 717 133 753 q 267 682 207 682 z "}," ":{"ha":389,"x_min":0,"x_max":0,"o":""}," ":{"ha":389,"x_min":0,"x_max":0,"o":""},"\r":{"ha":708,"x_min":0,"x_max":0,"o":""}," ":{"ha":833,"x_min":0,"x_max":0,"o":""}," ":{"ha":833,"x_min":0,"x_max":0,"o":""},"·":{"ha":403,"x_min":118,"x_max":283,"o":"m 201 399 q 142 424 167 399 q 118 483 118 449 q 142 542 118 518 q 201 565 167 565 q 259 541 235 565 q 283 483 283 517 q 259 424 283 449 q 201 399 235 399 z "},";":{"ha":353,"x_min":49,"x_max":256,"o":"m 49 -193 l 108 167 l 249 167 l 146 -193 l 49 -193 m 172 514 q 111 538 135 514 q 88 599 88 563 q 112 658 88 635 q 172 682 136 682 q 230 658 204 682 q 256 599 256 633 q 230 538 256 563 q 172 514 204 514 z "},"-":{"ha":463,"x_min":43,"x_max":419,"o":"m 43 325 l 43 432 l 419 432 l 419 325 l 43 325 z "},"–":{"ha":603,"x_min":-3,"x_max":606,"o":"m -3 315 l -3 421 l 606 421 l 606 315 l -3 315 z "},"—":{"ha":946,"x_min":-1,"x_max":947,"o":"m -1 314 l -1 419 l 947 419 l 947 314 l -1 314 z "},"―":{"ha":1035,"x_min":88,"x_max":1036,"o":"m 88 314 l 88 419 l 1036 419 l 1036 314 l 88 314 z "},"_":{"ha":779,"x_min":0,"x_max":779,"o":"m 0 -204 l 0 -114 l 779 -114 l 779 -204 l 0 -204 z "},"(":{"ha":550,"x_min":106,"x_max":479,"o":"m 421 -228 q 190 48 274 -108 q 106 394 106 204 q 141 629 106 519 q 247 837 176 739 q 418 1024 317 935 l 479 953 q 284 693 349 826 q 219 394 219 560 q 251 184 219 281 q 340 4 282 88 q 478 -158 397 -79 l 421 -228 z "},")":{"ha":553,"x_min":71,"x_max":447,"o":"m 132 -228 l 72 -158 q 271 101 208 -32 q 333 394 333 235 q 303 610 333 513 q 215 791 274 707 q 71 953 157 875 l 133 1024 q 367 734 288 888 q 447 394 447 581 q 364 52 447 206 q 132 -228 281 -101 z "},"{":{"ha":563,"x_min":58,"x_max":504,"o":"m 488 -215 q 349 -197 404 -211 q 264 -150 294 -182 q 220 -65 233 -118 q 207 71 207 -11 q 210 169 207 119 q 203 259 213 218 q 162 325 194 300 q 58 350 129 350 l 58 451 q 124 460 96 451 q 172 486 153 468 q 200 532 190 504 q 210 599 210 560 q 208 739 210 675 q 215 852 207 803 q 251 937 224 901 q 334 993 278 972 q 488 1018 390 1014 l 504 938 q 410 912 451 926 q 347 865 369 897 q 324 771 324 833 q 326 657 324 711 q 320 556 328 603 q 284 469 313 508 q 193 401 256 431 q 284 333 256 372 q 320 247 313 294 q 326 146 328 200 q 324 32 324 92 q 337 -44 324 -15 q 374 -90 350 -74 q 431 -117 397 -107 q 504 -135 464 -126 l 488 -215 z "},"}":{"ha":563,"x_min":58,"x_max":504,"o":"m 75 -215 l 58 -135 q 132 -117 99 -126 q 189 -90 165 -107 q 226 -44 213 -74 q 239 32 239 -15 q 237 146 239 92 q 242 247 235 200 q 278 333 250 294 q 369 401 307 372 q 278 469 307 431 q 242 556 250 508 q 237 657 235 603 q 239 771 239 711 q 226 847 239 818 q 189 893 213 876 q 132 919 165 910 q 58 938 99 929 l 75 1018 q 213 999 158 1014 q 299 953 268 985 q 342 867 329 921 q 356 732 356 814 q 353 635 356 685 q 360 542 351 585 q 402 475 369 500 q 504 451 435 450 l 504 350 q 438 342 467 350 q 391 316 410 333 q 363 271 372 299 q 353 204 353 243 q 354 59 353 124 q 347 -55 356 -6 q 312 -138 339 -104 q 228 -192 285 -172 q 75 -215 172 -211 z "},"[":{"ha":524,"x_min":115,"x_max":449,"o":"m 115 -219 l 115 1008 l 449 1008 l 449 917 l 222 917 l 222 -128 l 449 -128 l 449 -219 l 115 -219 z "},"]":{"ha":528,"x_min":75,"x_max":411,"o":"m 75 -221 l 75 -128 l 301 -128 l 301 915 l 75 915 l 75 1008 l 411 1008 l 411 -221 l 75 -221 z "},"‚":{"ha":382,"x_min":93,"x_max":282,"o":"m 93 -186 l 167 156 l 282 156 l 183 -186 l 93 -186 z "},"„":{"ha":615,"x_min":93,"x_max":514,"o":"m 93 -179 l 168 163 l 282 163 l 183 -179 l 93 -179 m 328 -179 l 403 163 l 514 163 l 418 -179 l 328 -179 z "},"“":{"ha":588,"x_min":88,"x_max":508,"o":"m 319 651 l 418 993 l 508 993 l 433 651 l 319 651 m 88 651 l 183 993 l 274 993 l 199 651 l 88 651 z "},"”":{"ha":588,"x_min":79,"x_max":500,"o":"m 79 651 l 154 993 l 268 993 l 169 651 l 79 651 m 314 651 l 389 993 l 500 993 l 404 651 l 314 651 z "},"‘":{"ha":356,"x_min":88,"x_max":276,"o":"m 88 654 l 185 996 l 276 996 l 201 654 l 88 654 z "},"’":{"ha":356,"x_min":79,"x_max":268,"o":"m 79 654 l 154 996 l 268 996 l 169 654 l 79 654 z "},"‛":{"ha":356,"x_min":88,"x_max":276,"o":"m 186 654 l 88 996 l 201 996 l 276 654 l 186 654 z "},"«":{"ha":742,"x_min":65,"x_max":663,"o":"m 567 60 l 356 347 l 567 640 l 663 607 l 482 351 l 660 100 l 567 60 m 276 60 l 65 347 l 276 640 l 372 607 l 192 351 l 369 100 l 276 60 z "},"»":{"ha":742,"x_min":71,"x_max":667,"o":"m 456 60 l 363 100 l 540 351 l 360 607 l 456 640 l 667 347 l 456 60 m 167 60 l 74 100 l 251 351 l 71 607 l 167 640 l 378 347 l 167 60 z "},"‹":{"ha":450,"x_min":65,"x_max":372,"o":"m 276 54 l 65 342 l 276 635 l 372 601 l 192 346 l 369 94 l 276 54 z "},"›":{"ha":451,"x_min":79,"x_max":386,"o":"m 176 54 l 85 94 l 260 346 l 79 601 l 176 635 l 386 342 l 176 54 z "},"\"":{"ha":607,"x_min":99,"x_max":510,"o":"m 347 615 l 383 983 l 510 983 l 510 983 l 493 910 l 424 615 l 347 615 m 99 615 l 135 983 l 261 983 l 261 983 l 244 910 l 175 615 l 99 615 z "},"'":{"ha":360,"x_min":99,"x_max":261,"o":"m 99 615 l 133 983 l 261 983 l 261 983 l 244 910 l 175 615 l 99 615 z "},".":{"ha":403,"x_min":118,"x_max":283,"o":"m 201 -14 q 142 11 167 -14 q 118 71 118 36 q 142 129 118 106 q 201 153 167 153 q 259 128 235 153 q 283 71 283 104 q 259 11 283 36 q 201 -14 235 -14 z "},",":{"ha":350,"x_min":49,"x_max":247,"o":"m 49 -193 l 110 167 l 247 167 l 144 -193 l 49 -193 z "},":":{"ha":404,"x_min":118,"x_max":285,"o":"m 203 514 q 141 538 164 514 q 118 600 118 563 q 143 659 118 636 q 203 682 168 682 q 260 658 235 682 q 285 599 285 633 q 260 538 285 563 q 203 514 235 514 m 203 -14 q 141 11 164 -14 q 118 72 118 36 q 143 131 118 108 q 203 154 168 154 q 260 130 235 154 q 285 71 285 106 q 260 11 285 36 q 203 -14 235 -14 z "},";":{"ha":353,"x_min":49,"x_max":256,"o":"m 49 -193 l 108 167 l 249 167 l 146 -193 l 49 -193 m 172 514 q 111 538 135 514 q 88 599 88 563 q 112 658 88 635 q 172 682 136 682 q 230 658 204 682 q 256 599 256 633 q 230 538 256 563 q 172 514 204 514 z "},"…":{"ha":1121,"x_min":118,"x_max":1003,"o":"m 201 -14 q 142 11 167 -14 q 118 71 118 36 q 142 129 118 106 q 201 153 167 153 q 259 128 235 153 q 283 71 283 104 q 259 11 283 36 q 201 -14 235 -14 m 561 -14 q 502 11 526 -14 q 478 71 478 36 q 502 129 478 106 q 561 153 526 153 q 619 128 594 153 q 643 71 643 104 q 619 11 643 36 q 561 -14 594 -14 m 921 -14 q 862 11 886 -14 q 838 71 838 36 q 862 129 838 106 q 921 153 886 153 q 978 128 954 153 q 1003 71 1003 104 q 978 11 1003 36 q 921 -14 954 -14 z "},"!":{"ha":403,"x_min":118,"x_max":283,"o":"m 163 282 l 138 863 l 132 979 l 268 979 l 263 863 l 239 282 l 163 282 m 201 -14 q 142 9 167 -14 q 118 69 118 32 q 144 127 118 103 q 201 151 169 151 q 260 126 236 151 q 283 69 283 101 q 260 9 283 32 q 201 -14 236 -14 z "},"¡":{"ha":404,"x_min":118,"x_max":285,"o":"m 133 -249 l 142 -74 l 164 450 l 240 450 l 263 -74 l 269 -249 l 133 -249 m 201 581 q 142 604 167 581 q 118 663 118 628 q 142 722 118 700 q 201 743 167 743 q 259 722 233 743 q 285 663 285 700 q 260 604 285 628 q 201 581 236 581 z "},"?":{"ha":614,"x_min":75,"x_max":539,"o":"m 197 264 l 197 350 q 217 454 197 410 q 267 533 236 499 q 328 596 297 567 q 396 669 367 632 q 425 756 425 706 q 389 848 425 806 q 279 890 353 890 q 163 856 213 890 q 75 767 113 821 l 75 901 q 165 969 107 943 q 293 996 222 996 q 423 967 368 996 q 508 886 478 938 q 539 765 539 835 q 522 669 539 713 q 478 588 506 625 q 414 519 450 551 q 336 427 361 472 q 311 308 311 382 l 311 264 l 197 264 m 261 -12 q 203 10 228 -12 q 178 71 178 32 q 203 127 178 103 q 261 151 229 151 q 321 126 296 151 q 346 69 346 101 q 321 10 346 32 q 261 -12 296 -12 z "},"¿":{"ha":607,"x_min":72,"x_max":536,"o":"m 318 -268 q 188 -239 243 -268 q 103 -158 133 -210 q 72 -37 72 -106 q 89 59 72 15 q 134 140 106 103 q 197 208 163 178 q 276 301 253 256 q 300 419 300 346 l 300 464 l 414 464 l 414 378 q 394 274 414 318 q 345 195 375 229 q 283 132 315 161 q 215 59 244 96 q 186 -28 186 22 q 223 -120 186 -78 q 332 -162 260 -162 q 449 -128 399 -162 q 536 -39 499 -93 l 536 -174 q 447 -242 504 -215 q 318 -268 389 -268 m 350 576 q 290 601 315 576 q 265 658 265 626 q 290 718 265 696 q 350 740 315 740 q 408 718 383 740 q 433 658 433 696 q 408 601 433 625 q 350 576 382 576 z "},"·":{"ha":403,"x_min":118,"x_max":283,"o":"m 201 404 q 142 429 167 404 q 118 489 118 454 q 142 547 118 524 q 201 571 167 571 q 259 547 235 571 q 283 489 283 522 q 259 429 283 454 q 201 404 235 404 z "},"•":{"ha":646,"x_min":118,"x_max":528,"o":"m 322 301 q 220 329 267 301 q 146 403 174 357 q 118 504 118 449 q 145 607 118 560 q 219 683 172 654 q 322 711 265 711 q 426 684 379 711 q 500 610 472 657 q 528 507 528 564 q 501 403 528 450 q 427 328 474 356 q 322 301 381 301 z "},"*":{"ha":490,"x_min":39,"x_max":451,"o":"m 204 611 l 204 763 l 67 715 l 39 796 l 178 844 l 90 958 l 160 1007 l 247 894 l 332 1007 l 401 963 l 317 843 l 451 796 l 425 715 l 289 761 l 289 611 l 204 611 z "},"‼":{"ha":707,"x_min":118,"x_max":588,"o":"m 163 282 l 138 863 l 132 979 l 268 979 l 263 863 l 239 282 l 163 282 m 201 -14 q 142 9 167 -14 q 118 69 118 32 q 144 127 118 103 q 201 151 169 151 q 260 126 236 151 q 283 69 283 101 q 260 9 283 32 q 201 -14 236 -14 m 467 282 l 442 863 l 436 979 l 572 979 l 567 863 l 543 282 l 467 282 m 506 -14 q 447 9 471 -14 q 422 69 422 32 q 448 127 422 103 q 506 151 474 151 q 564 126 540 151 q 588 69 588 101 q 564 9 588 32 q 506 -14 540 -14 z "},"#":{"ha":844,"x_min":32,"x_max":814,"o":"m 136 0 l 178 271 l 32 271 l 32 369 l 193 369 l 232 619 l 78 619 l 78 719 l 246 719 l 286 981 l 386 981 l 349 719 l 575 719 l 613 981 l 713 981 l 676 719 l 814 719 l 814 619 l 661 619 l 621 369 l 768 369 l 768 269 l 606 269 l 567 0 l 465 0 l 504 269 l 278 269 l 238 0 l 136 0 m 293 369 l 519 369 l 560 619 l 332 619 l 293 369 z "},"/":{"ha":697,"x_min":3,"x_max":706,"o":"m 3 -107 l 599 1088 l 706 1088 l 107 -107 l 3 -107 z "},"\\":{"ha":678,"x_min":3,"x_max":675,"o":"m 574 -162 l 3 1074 l 103 1085 l 675 -154 l 574 -162 z "},"ƒ":{"ha":531,"x_min":-31,"x_max":499,"o":"m -31 -143 l 111 515 l -4 515 l 14 610 l 131 610 l 157 738 q 219 892 178 838 q 311 969 260 947 q 410 990 363 990 q 456 987 433 990 q 499 976 478 983 l 479 876 q 450 887 467 883 q 417 890 433 890 q 321 850 358 890 q 261 694 283 810 l 244 610 l 385 610 l 368 515 l 226 515 l 78 -143 l -31 -143 z "},"ʹ":{"ha":575,"x_min":147,"x_max":433,"o":"m 147 829 l 274 1119 l 433 1119 l 229 829 l 147 829 z "},"͵":{"ha":575,"x_min":106,"x_max":392,"o":"m 106 -254 l 310 36 l 392 36 l 265 -254 l 106 -254 z "},"¢":{"ha":678,"x_min":49,"x_max":615,"o":"m 285 50 l 301 182 q 169 251 226 203 q 81 368 113 300 q 49 515 49 436 q 90 692 49 615 q 205 815 131 769 q 376 867 279 861 l 389 979 l 476 979 l 465 860 q 541 835 503 853 q 615 789 579 817 l 615 674 q 548 726 592 701 q 451 756 504 750 l 397 267 q 515 297 460 267 q 614 372 571 328 l 614 256 q 517 192 572 215 q 390 169 463 169 l 375 50 l 285 50 m 313 279 l 367 764 q 216 695 271 757 q 161 521 161 633 q 201 372 161 429 q 313 279 242 314 z "},"¤":{"ha":963,"x_min":65,"x_max":897,"o":"m 133 38 l 65 107 l 200 242 q 147 338 164 286 q 129 456 129 389 q 144 569 129 522 q 196 668 160 617 l 65 797 l 133 867 l 265 736 q 368 790 313 772 q 482 808 424 808 q 598 790 544 808 q 696 738 651 772 l 826 867 l 897 797 l 768 671 q 819 569 801 619 q 838 456 838 519 q 819 338 838 392 q 765 238 800 285 l 897 107 l 828 38 l 694 169 q 593 119 646 136 q 482 103 540 103 q 371 119 424 103 q 269 171 318 136 l 133 38 m 482 207 q 608 240 554 207 q 692 330 661 274 q 722 454 722 386 q 692 583 722 526 q 608 672 661 639 q 482 704 554 704 q 358 672 413 704 q 272 583 303 639 q 240 456 240 526 q 271 331 240 388 q 356 240 301 274 q 482 207 410 207 z "},"$":{"ha":783,"x_min":43,"x_max":721,"o":"m 353 -132 l 353 -6 q 174 36 253 -6 q 43 136 96 78 l 110 210 q 214 129 154 164 q 353 90 274 94 l 353 447 q 156 558 228 492 q 83 729 83 624 q 119 856 83 801 q 217 945 156 911 q 353 986 278 979 l 353 1079 l 443 1079 l 443 988 q 589 943 535 979 q 672 867 643 907 l 601 794 q 534 856 576 831 q 442 886 492 881 l 442 540 q 653 425 586 489 q 721 267 721 361 q 685 135 721 193 q 586 40 649 76 q 443 -6 524 4 l 443 -132 l 353 -132 m 443 92 q 567 147 528 104 q 607 249 607 189 q 583 330 607 297 q 522 384 560 363 q 443 419 485 406 l 443 92 m 353 572 l 353 889 q 237 841 276 881 q 197 742 197 801 q 221 665 197 696 q 280 611 244 633 q 353 572 315 589 z "},"€":{"ha":781,"x_min":49,"x_max":753,"o":"m 453 -24 q 266 22 343 -24 q 141 142 189 68 q 71 306 93 217 q 49 482 49 394 q 73 674 49 581 q 149 841 97 767 q 281 960 200 915 q 475 1004 361 1004 q 639 969 575 1004 q 753 871 703 933 l 674 799 q 588 872 633 843 q 472 900 543 900 q 327 860 386 900 q 232 757 268 819 q 179 624 196 694 q 163 494 163 554 l 508 494 l 508 401 l 168 401 q 206 249 174 322 q 300 128 238 175 q 458 81 363 81 q 583 110 529 81 q 674 185 636 139 l 753 111 q 628 12 703 47 q 453 -24 553 -24 z "},"£":{"ha":754,"x_min":42,"x_max":722,"o":"m 133 0 l 133 424 l 42 424 l 42 518 l 133 518 l 133 661 q 169 833 133 758 q 276 952 206 908 q 446 996 346 996 q 606 960 538 996 q 722 861 674 924 l 644 786 q 563 861 607 833 q 443 889 518 889 q 333 857 375 889 q 272 773 290 825 q 253 660 253 721 l 253 518 l 592 518 l 600 424 l 253 406 l 253 101 l 711 101 l 711 0 l 133 0 z "},"¥":{"ha":819,"x_min":1,"x_max":819,"o":"m 354 0 l 354 203 l 97 203 l 97 296 l 356 296 l 342 421 l 97 421 l 97 514 l 299 514 l 1 979 l 138 979 l 414 517 l 688 979 l 819 979 l 522 514 l 722 514 l 722 421 l 478 421 l 469 296 l 722 296 l 722 203 l 467 203 l 467 0 l 354 0 z "},"+":{"ha":813,"x_min":65,"x_max":747,"o":"m 351 139 l 351 428 l 65 428 l 65 531 l 351 531 l 351 818 l 458 818 l 458 531 l 747 531 l 747 428 l 458 428 l 458 139 l 351 139 z "},"−":{"ha":839,"x_min":65,"x_max":774,"o":"m 65 443 l 65 538 l 774 538 l 774 443 l 65 443 z "},"×":{"ha":886,"x_min":119,"x_max":765,"o":"m 189 163 l 119 232 l 375 488 l 121 740 l 189 810 l 443 554 l 696 810 l 765 740 l 513 488 l 765 233 l 696 163 l 443 418 l 189 163 z "},"÷":{"ha":839,"x_min":65,"x_max":776,"o":"m 65 436 l 65 536 l 776 536 l 776 436 l 65 436 m 418 189 q 360 213 382 189 q 339 269 339 238 q 360 326 339 304 q 418 347 382 347 q 477 326 454 347 q 500 269 500 304 q 477 212 500 235 q 418 189 454 189 m 418 635 q 360 658 382 635 q 339 713 339 681 q 360 769 339 744 q 418 793 382 793 q 477 769 454 793 q 500 713 500 744 q 476 656 500 678 q 418 635 451 635 z "},"=":{"ha":789,"x_min":65,"x_max":728,"o":"m 65 608 l 65 713 l 724 713 l 728 608 l 65 608 m 65 272 l 65 376 l 724 376 l 724 272 l 65 272 z "},"≠":{"ha":814,"x_min":65,"x_max":764,"o":"m 267 113 l 183 158 l 267 313 l 65 313 l 65 407 l 317 407 l 404 576 l 67 576 l 67 671 l 456 671 l 563 874 l 644 826 l 561 671 l 764 671 l 764 576 l 510 576 l 424 407 l 763 407 l 763 313 l 371 313 l 267 113 z "},">":{"ha":824,"x_min":81,"x_max":743,"o":"m 81 111 l 81 222 l 617 475 l 81 729 l 81 842 l 743 526 l 743 425 l 81 111 z "},"<":{"ha":825,"x_min":81,"x_max":744,"o":"m 744 110 l 81 426 l 81 525 l 744 842 l 744 731 l 207 476 l 744 219 l 744 110 z "},"≥":{"ha":839,"x_min":65,"x_max":774,"o":"m 104 125 l 104 236 l 640 489 l 104 743 l 104 856 l 767 540 l 767 439 l 104 125 m 65 1 l 65 96 l 774 96 l 774 1 l 65 1 z "},"≤":{"ha":839,"x_min":65,"x_max":774,"o":"m 754 124 l 90 440 l 90 539 l 754 856 l 754 744 l 217 490 l 754 233 l 754 124 m 65 1 l 65 96 l 774 96 l 774 1 l 65 1 z "},"±":{"ha":821,"x_min":65,"x_max":756,"o":"m 363 251 l 363 471 l 65 471 l 65 568 l 363 568 l 363 796 l 458 796 l 458 568 l 756 568 l 756 471 l 458 471 l 458 251 l 363 251 m 65 47 l 65 144 l 756 144 l 756 47 l 65 47 z "},"≈":{"ha":881,"x_min":74,"x_max":806,"o":"m 74 490 q 103 590 82 543 q 163 665 124 636 q 263 694 201 694 q 356 679 308 694 q 449 644 403 664 q 540 608 496 624 q 625 593 585 593 q 699 626 675 593 q 731 704 724 658 l 806 704 q 781 607 803 654 q 717 530 758 560 q 614 500 675 500 q 524 515 571 500 q 432 551 478 531 q 343 586 386 571 q 264 601 300 601 q 183 569 211 601 q 149 490 156 536 l 74 490 m 74 256 q 103 355 82 308 q 163 431 124 401 q 263 460 201 460 q 356 444 308 460 q 449 409 403 429 q 540 374 496 389 q 625 358 585 358 q 699 391 675 358 q 731 469 724 424 l 806 469 q 781 372 803 419 q 717 295 758 325 q 614 265 675 265 q 524 281 571 265 q 432 316 478 296 q 343 351 386 336 q 264 367 300 367 q 183 334 211 367 q 149 256 156 301 l 74 256 z "},"~":{"ha":726,"x_min":74,"x_max":651,"o":"m 142 318 l 74 351 q 144 466 104 426 q 246 506 183 506 q 333 487 294 506 q 406 449 371 468 q 475 429 440 429 q 536 451 508 429 q 582 513 564 474 l 651 482 q 584 369 624 411 q 488 326 544 326 q 405 346 446 326 q 325 384 364 365 q 247 403 286 403 q 186 381 211 403 q 142 318 161 358 z "},"¬":{"ha":821,"x_min":56,"x_max":767,"o":"m 671 179 l 671 472 l 56 472 l 56 571 l 767 571 l 767 179 l 671 179 z "},"^":{"ha":690,"x_min":46,"x_max":644,"o":"m 46 581 l 293 981 l 393 981 l 644 581 l 539 581 l 343 892 l 147 581 l 46 581 z "},"∞":{"ha":993,"x_min":39,"x_max":956,"o":"m 236 286 q 133 313 178 286 q 64 388 89 340 q 39 492 39 435 q 63 595 39 547 q 131 672 88 643 q 233 701 175 701 q 338 676 289 701 q 426 615 386 650 q 496 549 465 579 q 569 620 528 585 q 662 679 611 656 q 768 703 713 703 q 867 674 825 703 q 932 598 908 646 q 956 492 956 550 q 931 389 956 436 q 862 314 907 342 q 756 286 817 286 q 658 308 704 286 q 571 364 611 331 q 494 431 531 397 q 419 364 460 397 q 334 308 379 331 q 236 286 289 286 m 238 381 q 313 398 276 381 q 380 442 349 415 q 435 492 411 468 q 375 543 408 517 q 306 588 342 569 q 232 607 269 607 q 158 574 183 607 q 132 493 132 542 q 158 412 132 443 q 238 381 185 381 m 760 381 q 834 412 807 381 q 861 493 861 443 q 835 576 861 543 q 756 608 808 608 q 682 589 718 608 q 615 542 646 569 q 558 489 585 515 q 649 415 599 449 q 760 381 700 381 z "},"∫":{"ha":467,"x_min":17,"x_max":450,"o":"m 122 -319 q 78 -312 103 -319 q 35 -288 53 -304 q 17 -247 17 -272 q 28 -213 17 -228 q 61 -199 40 -199 q 92 -212 82 -199 q 112 -238 103 -225 q 133 -251 121 -251 q 158 -242 150 -251 q 169 -198 165 -232 q 174 -92 174 -164 l 174 760 q 178 853 174 801 q 198 951 182 904 q 247 1029 214 999 q 335 1060 279 1060 q 387 1052 360 1060 q 432 1028 414 1044 q 450 985 450 1013 q 436 947 450 961 q 399 932 422 932 q 363 945 375 932 q 343 972 351 958 q 319 985 335 985 q 296 965 304 985 q 284 916 288 944 q 280 862 281 888 q 279 825 279 836 l 279 31 q 277 -62 279 -14 q 268 -157 275 -111 q 244 -240 261 -203 q 198 -298 228 -276 q 122 -319 168 -319 z "},"Ω":{"ha":1101,"x_min":43,"x_max":1058,"o":"m 43 0 l 43 106 l 289 106 q 167 216 218 151 q 90 359 117 281 q 64 522 64 438 q 102 713 64 626 q 207 865 140 800 q 363 964 274 929 q 554 999 453 999 q 803 938 694 999 q 975 768 913 876 q 1038 518 1038 660 q 1010 356 1038 433 q 933 216 983 279 q 813 106 883 153 l 1058 106 l 1058 0 l 658 0 l 650 106 q 789 217 729 163 q 883 342 849 271 q 917 518 917 413 q 872 712 917 628 q 745 844 826 796 q 553 892 664 892 q 359 844 442 892 q 231 713 276 797 q 185 518 185 629 q 261 274 185 375 q 458 106 338 174 l 458 0 l 43 0 z "},"∆":{"ha":981,"x_min":38,"x_max":944,"o":"m 38 0 l 429 986 l 546 986 l 944 0 l 38 0 m 192 101 l 785 101 l 486 867 l 192 101 z "},"∏":{"ha":1004,"x_min":107,"x_max":897,"o":"m 107 -365 l 107 1015 l 897 1015 l 897 -365 l 793 -365 l 793 918 l 211 918 l 211 -365 l 107 -365 z "},"∑":{"ha":819,"x_min":26,"x_max":793,"o":"m 26 -362 l 26 -278 l 474 333 l 44 935 l 44 1018 l 778 1018 l 778 921 l 179 921 l 599 333 l 156 -265 l 793 -265 l 793 -362 l 26 -362 z "},"√":{"ha":653,"x_min":-6,"x_max":657,"o":"m 318 -10 l 96 453 l 32 424 l -6 506 l 144 574 l 351 133 l 554 1129 l 657 1129 l 419 -10 l 318 -10 z "},"∂":{"ha":699,"x_min":47,"x_max":639,"o":"m 325 -15 q 175 28 238 -15 q 80 144 113 72 q 47 296 47 215 q 79 444 47 376 q 172 552 111 511 q 318 593 232 593 q 439 567 386 593 q 539 492 492 540 q 535 624 543 553 q 503 760 528 696 q 429 867 478 825 q 301 908 381 908 q 150 846 213 908 l 92 913 q 189 978 140 957 q 297 999 238 999 q 463 952 397 999 q 568 831 529 906 q 623 670 607 757 q 639 501 639 583 q 632 369 639 439 q 606 231 625 299 q 552 107 588 163 q 461 18 517 51 q 325 -15 406 -15 m 326 71 q 422 102 383 71 q 484 183 460 133 q 519 286 508 232 q 532 386 531 340 q 442 468 493 433 q 326 503 392 503 q 229 473 269 503 q 168 395 189 443 q 147 293 147 347 q 167 190 147 242 q 227 105 188 139 q 326 71 267 71 z "},"µ":{"ha":783,"x_min":101,"x_max":676,"o":"m 101 -261 l 101 671 l 215 671 l 215 283 q 240 169 215 213 q 301 105 264 125 q 376 85 339 85 q 508 133 453 85 q 563 283 563 182 l 563 671 l 676 671 l 676 0 l 561 86 q 483 15 532 44 q 376 -14 435 -14 q 285 11 328 -14 q 215 89 242 36 l 215 -261 l 101 -261 z "},"%":{"ha":1164,"x_min":61,"x_max":1103,"o":"m 289 -26 l 197 -6 l 867 1004 l 958 985 l 289 -26 m 290 501 q 171 535 222 501 q 90 626 119 568 q 61 754 61 683 q 91 881 61 824 q 173 971 121 938 q 292 1004 225 1004 q 413 971 361 1004 q 492 881 464 938 q 521 756 521 825 q 493 631 521 689 q 414 538 465 574 q 290 501 363 501 m 292 585 q 393 631 358 585 q 428 749 428 678 q 413 831 428 792 q 369 895 399 869 q 290 921 339 921 q 191 874 228 921 q 154 754 154 826 q 192 631 154 678 q 292 585 229 585 m 872 -15 q 751 18 803 -15 q 672 108 700 51 q 644 233 644 165 q 674 360 644 304 q 756 450 704 417 q 874 483 808 483 q 994 450 943 483 q 1074 360 1046 417 q 1103 235 1103 304 q 1075 112 1103 169 q 995 19 1047 54 q 872 -15 943 -15 m 874 68 q 974 115 938 68 q 1010 233 1010 163 q 995 315 1010 276 q 950 376 981 353 q 872 400 919 400 q 774 354 810 400 q 738 233 738 308 q 776 111 738 154 q 874 68 815 68 z "},"‰":{"ha":1613,"x_min":61,"x_max":1551,"o":"m 163 0 l 838 974 l 954 974 l 282 0 l 163 0 m 286 497 q 167 531 218 497 q 89 619 117 564 q 61 742 61 675 q 90 864 61 808 q 171 953 119 919 q 288 986 222 986 q 403 954 353 986 q 481 867 453 922 q 508 743 508 813 q 481 624 508 681 q 404 533 454 568 q 286 497 354 497 m 288 579 q 381 625 346 579 q 417 742 417 671 q 383 855 417 806 q 281 904 350 904 q 187 860 221 904 q 153 743 153 815 q 191 625 153 671 q 288 579 229 579 m 811 -15 q 695 17 746 -15 q 616 104 644 50 q 588 226 588 158 q 617 351 588 296 q 697 439 646 407 q 813 471 747 471 q 926 439 876 471 q 1005 352 976 407 q 1033 231 1033 297 q 1006 110 1033 167 q 930 19 979 54 q 811 -15 881 -15 m 813 67 q 908 109 875 67 q 942 222 942 151 q 929 302 942 264 q 888 365 917 340 q 813 389 860 389 q 716 344 753 389 q 679 229 679 300 q 717 110 679 154 q 813 67 754 67 m 1329 -15 q 1213 17 1264 -15 q 1133 104 1163 50 q 1104 226 1104 158 q 1134 351 1104 296 q 1215 439 1164 407 q 1332 471 1267 471 q 1445 439 1396 471 q 1523 352 1494 407 q 1551 231 1551 297 q 1524 110 1551 167 q 1448 19 1497 54 q 1329 -15 1399 -15 m 1331 67 q 1426 109 1393 67 q 1460 222 1460 151 q 1447 302 1460 264 q 1406 365 1435 340 q 1329 389 1378 389 q 1233 344 1269 389 q 1196 229 1196 300 q 1234 110 1196 154 q 1331 67 1272 67 z "},"◌":{"ha":1210,"x_min":71,"x_max":1139,"o":"m 171 200 q 133 217 149 200 q 117 254 117 233 q 133 293 117 278 q 171 308 149 308 q 208 292 192 308 q 224 256 224 276 q 208 217 224 233 q 171 200 192 200 m 365 18 q 327 35 343 18 q 311 72 311 51 q 327 111 311 96 q 365 126 343 126 q 402 110 386 126 q 418 74 418 94 q 402 35 418 51 q 365 18 386 18 m 615 -42 q 577 -25 593 -42 q 561 14 561 -8 q 577 51 561 36 q 615 67 593 67 q 652 51 636 67 q 668 13 668 35 q 652 -25 668 -8 q 615 -42 636 -42 m 125 454 q 87 471 103 454 q 71 508 71 488 q 87 547 71 532 q 125 563 103 563 q 162 547 146 563 q 178 510 178 531 q 162 471 178 488 q 125 454 146 454 m 190 690 q 152 707 168 690 q 136 744 136 724 q 152 783 136 768 q 190 799 168 799 q 227 783 211 799 q 243 746 243 767 q 227 707 243 724 q 190 690 211 690 m 836 42 q 798 58 814 42 q 782 96 782 75 q 798 135 782 119 q 836 150 814 150 q 873 134 857 150 q 889 97 889 118 q 873 58 889 75 q 836 42 857 42 m 356 872 q 315 889 332 872 q 297 929 297 906 q 315 968 297 950 q 356 986 332 986 q 394 970 378 986 q 411 929 411 954 q 394 889 411 906 q 356 872 378 872 m 1017 213 q 976 229 993 213 q 960 269 960 246 q 976 310 960 293 q 1017 326 993 326 q 1057 310 1040 326 q 1074 269 1074 294 q 1057 229 1074 246 q 1017 213 1040 213 m 615 919 q 577 936 593 919 q 561 974 561 953 q 577 1013 561 997 q 615 1028 593 1028 q 652 1012 636 1028 q 668 975 668 996 q 652 936 668 953 q 615 919 636 919 m 1086 454 q 1048 471 1064 454 q 1032 508 1032 488 q 1048 547 1032 532 q 1086 563 1064 563 q 1123 547 1107 563 q 1139 510 1139 531 q 1123 471 1139 488 q 1086 454 1107 454 m 1004 681 q 966 697 982 681 q 950 735 950 714 q 966 774 950 758 q 1004 789 982 789 q 1041 773 1025 789 q 1057 736 1057 757 q 1041 697 1057 714 q 1004 681 1025 681 m 846 850 q 808 867 824 850 q 792 904 792 883 q 808 943 792 928 q 846 958 824 958 q 883 942 867 958 q 899 906 899 926 q 883 867 899 883 q 846 850 867 850 z "},"◊":{"ha":644,"x_min":39,"x_max":606,"o":"m 275 -49 l 39 493 l 275 1035 l 368 1035 l 606 493 l 368 -49 l 275 -49 m 322 69 l 501 494 l 322 918 l 143 493 l 322 69 z "},"@":{"ha":1258,"x_min":71,"x_max":1186,"o":"m 651 -129 q 419 -87 525 -129 q 234 32 313 -44 q 113 210 156 108 q 71 429 71 311 q 115 651 71 549 q 235 833 158 754 q 417 955 313 911 q 642 999 521 999 q 853 960 754 999 q 1027 853 953 922 q 1144 693 1101 785 q 1186 496 1186 601 q 1152 310 1186 388 q 1061 192 1118 233 q 932 151 1004 151 q 833 181 869 151 q 778 269 797 211 q 692 188 743 221 q 569 154 640 154 q 445 187 500 154 q 358 278 390 219 q 326 411 326 336 q 367 569 326 497 q 476 685 408 642 q 626 728 544 728 q 740 697 697 728 q 810 619 783 665 l 824 710 l 921 701 l 869 332 q 879 274 869 299 q 908 234 889 249 q 954 219 926 219 q 1035 252 999 219 q 1095 344 1072 285 q 1118 481 1118 403 q 1082 660 1118 576 q 981 805 1046 743 q 830 901 917 867 q 640 936 743 936 q 443 898 533 936 q 285 791 353 860 q 181 631 218 722 q 143 433 143 540 q 180 235 143 326 q 285 76 217 144 q 449 -30 353 8 q 664 -68 546 -68 q 840 -42 760 -68 q 1000 36 919 -15 l 1033 -11 q 854 -99 949 -69 q 651 -129 760 -129 m 582 243 q 684 276 639 243 q 756 361 729 308 q 782 471 782 414 q 742 585 782 542 q 632 628 703 628 q 531 596 575 628 q 460 515 486 564 q 435 415 435 467 q 474 292 435 340 q 582 243 514 243 z "},"&":{"ha":950,"x_min":76,"x_max":942,"o":"m 385 -15 q 228 19 299 -15 q 117 117 158 54 q 76 267 76 181 q 138 449 76 375 q 313 564 200 522 q 243 669 269 617 q 217 779 217 721 q 249 895 217 846 q 335 972 281 944 q 458 999 390 999 q 581 970 528 999 q 665 894 635 942 q 694 789 694 847 q 634 638 694 696 q 476 539 574 579 l 690 301 q 753 406 725 354 q 806 515 781 457 l 907 482 q 836 347 874 411 q 757 219 799 282 l 942 17 l 814 -7 l 685 126 q 549 22 621 60 q 385 -15 478 -15 m 392 79 q 518 116 463 79 q 618 208 574 153 l 371 489 q 242 400 288 453 q 197 272 197 347 q 222 175 197 219 q 290 105 246 131 q 392 79 333 79 m 418 608 q 536 679 489 635 q 583 782 583 724 q 547 871 583 838 q 457 904 510 904 q 365 871 401 904 q 328 781 328 838 q 352 699 328 740 q 418 608 376 657 z "},"¶":{"ha":878,"x_min":46,"x_max":683,"o":"m 286 -144 l 286 501 q 171 537 226 514 q 81 607 115 560 q 46 739 46 654 q 119 919 46 857 q 319 981 193 981 l 683 981 l 683 868 l 638 868 l 638 -144 l 528 -144 l 528 868 l 396 868 l 396 -144 l 286 -144 z "},"§":{"ha":772,"x_min":49,"x_max":703,"o":"m 376 -119 q 244 -97 301 -119 q 142 -35 186 -74 l 142 76 q 249 -1 189 24 q 378 -25 310 -25 q 482 2 444 -25 q 519 82 519 29 q 463 169 519 131 q 301 240 406 208 q 150 305 206 271 q 72 378 94 339 q 49 464 49 418 q 92 580 49 535 q 221 644 136 625 q 150 714 181 672 q 119 811 119 756 q 153 913 119 869 q 245 979 188 956 q 374 1003 303 1003 q 499 983 442 1003 q 597 928 556 963 l 597 817 q 495 885 544 861 q 382 908 446 908 q 274 884 315 908 q 233 810 233 860 q 277 735 233 775 q 443 653 321 694 q 608 582 553 617 q 683 510 664 547 q 703 429 703 474 q 659 312 703 354 q 535 249 615 269 q 608 173 583 213 q 633 86 633 133 q 600 -22 633 25 q 509 -94 567 -68 q 376 -119 451 -119 m 460 303 q 559 330 522 303 q 596 399 596 357 q 574 460 596 432 q 515 510 551 488 q 438 548 479 532 q 359 574 397 564 q 296 589 321 585 q 194 555 233 582 q 156 479 156 528 q 177 419 156 447 q 239 369 199 392 q 335 329 279 346 q 460 303 392 313 z "},"©":{"ha":1186,"x_min":51,"x_max":1136,"o":"m 594 -50 q 382 -8 481 -50 q 209 110 283 35 q 93 287 135 186 q 51 503 51 388 q 94 712 51 614 q 211 885 136 810 q 384 1003 286 960 q 593 1046 482 1046 q 803 1003 704 1046 q 976 885 901 961 q 1094 710 1051 810 q 1136 497 1136 611 q 1094 283 1136 383 q 978 109 1053 183 q 805 -8 903 35 q 594 -50 707 -50 m 594 46 q 768 81 686 46 q 913 178 850 115 q 1010 322 975 240 q 1046 497 1046 404 q 1010 674 1046 592 q 913 817 975 756 q 769 915 851 879 q 594 950 688 950 q 419 915 501 950 q 274 819 336 881 q 177 675 213 757 q 142 500 142 593 q 176 324 142 407 q 274 179 211 242 q 418 81 336 117 q 594 46 500 46 m 590 185 q 435 228 503 185 q 331 344 368 271 q 293 508 293 417 q 330 670 293 599 q 435 783 367 742 q 593 825 503 825 q 703 805 656 825 q 779 763 751 785 l 779 650 q 697 705 744 685 q 601 725 650 725 q 502 697 546 725 q 433 619 458 668 q 407 508 407 569 q 431 395 407 446 q 500 315 456 344 q 606 285 544 285 q 684 299 640 285 q 776 358 728 314 l 776 256 q 694 203 739 222 q 590 185 649 185 z "},"®":{"ha":1058,"x_min":29,"x_max":1031,"o":"m 532 -1 q 337 38 428 -1 q 176 145 246 76 q 68 304 107 214 q 29 496 29 394 q 69 690 29 600 q 178 847 108 779 q 340 951 247 914 q 536 989 432 989 q 727 951 638 989 q 885 844 817 913 q 992 687 953 776 q 1031 496 1031 597 q 991 304 1031 394 q 882 145 951 214 q 722 38 813 76 q 532 -1 632 -1 m 532 83 q 692 116 618 83 q 822 206 767 149 q 910 339 878 264 q 942 497 942 414 q 910 654 942 581 q 822 784 878 728 q 692 872 765 840 q 535 904 618 904 q 372 873 447 904 q 239 785 296 842 q 150 656 182 729 q 118 496 118 582 q 150 336 118 411 q 238 204 182 261 q 369 115 294 147 q 532 83 444 83 m 351 199 l 351 792 l 547 792 q 669 749 618 792 q 721 631 721 706 q 676 518 721 564 q 572 461 632 472 l 782 199 l 665 199 l 468 450 l 450 450 l 450 199 l 351 199 m 450 540 l 525 540 q 601 562 569 540 q 632 622 632 583 q 606 681 632 654 q 528 707 581 707 l 450 707 l 450 540 z "},"™":{"ha":1211,"x_min":6,"x_max":1189,"o":"m 574 406 l 574 981 l 711 981 l 882 563 l 1056 981 l 1189 981 l 1189 406 l 1093 406 l 1093 847 l 911 406 l 850 406 l 669 850 l 669 406 l 574 406 m 190 406 l 190 894 l 6 894 l 6 981 l 469 981 l 469 894 l 286 894 l 286 406 l 190 406 z "},"°":{"ha":514,"x_min":51,"x_max":463,"o":"m 257 599 q 155 626 201 599 q 80 699 108 653 q 51 800 51 744 q 80 902 51 856 q 156 976 108 949 q 257 1004 203 1004 q 362 977 315 1004 q 435 904 408 950 q 463 801 463 858 q 435 699 463 746 q 360 626 407 653 q 257 599 314 599 m 257 674 q 347 708 310 674 q 383 801 383 743 q 347 892 383 854 q 257 929 310 929 q 167 890 204 929 q 131 801 131 851 q 167 711 131 749 q 257 674 203 674 z "},"′":{"ha":308,"x_min":42,"x_max":204,"o":"m 42 615 l 76 983 l 204 983 l 204 983 l 188 910 l 118 615 l 42 615 z "},"″":{"ha":557,"x_min":42,"x_max":453,"o":"m 290 615 l 326 983 l 453 983 l 453 983 l 436 910 l 367 615 l 290 615 m 42 615 l 78 983 l 204 983 l 204 983 l 188 910 l 118 615 l 42 615 z "},"|":{"ha":792,"x_min":346,"x_max":447,"o":"m 346 -233 l 346 1065 l 447 1065 l 447 -233 l 346 -233 z "},"¦":{"ha":796,"x_min":346,"x_max":451,"o":"m 346 456 l 346 946 l 451 946 l 451 456 l 346 456 m 346 -242 l 346 240 l 451 240 l 451 -242 l 346 -242 z "},"†":{"ha":650,"x_min":85,"x_max":564,"o":"m 274 107 l 285 699 l 85 690 l 85 778 l 282 771 l 274 1003 l 372 1003 l 364 771 l 564 778 l 564 690 l 361 699 l 372 107 l 274 107 z "},"ℓ":{"ha":722,"x_min":108,"x_max":592,"o":"m 404 -19 q 297 9 336 -19 q 243 88 258 38 q 228 199 228 138 l 228 301 l 151 225 l 108 282 l 228 400 l 228 747 q 244 862 228 806 q 299 956 260 918 q 407 993 339 993 q 489 972 454 993 q 543 911 524 951 q 563 813 563 871 q 526 655 563 733 q 438 506 490 576 q 333 379 385 435 l 333 178 q 354 99 333 133 q 426 65 375 65 q 463 71 443 65 q 505 89 482 76 q 551 121 528 101 l 592 58 q 501 0 550 19 q 404 -19 451 -19 m 333 481 q 413 592 382 539 q 458 694 443 644 q 472 788 472 743 q 467 838 472 807 q 449 892 463 868 q 407 917 435 917 q 356 881 378 917 q 333 763 333 846 l 333 481 z "},"‡":{"ha":643,"x_min":85,"x_max":557,"o":"m 275 -7 l 278 208 l 85 203 l 85 292 l 279 285 q 277 380 278 332 q 276 475 276 428 q 276 569 276 522 q 277 665 276 617 q 279 760 278 713 l 85 751 l 85 840 l 278 835 l 275 1061 l 369 1061 l 363 835 l 557 840 l 557 751 l 363 760 q 365 665 364 713 q 367 569 367 617 q 367 475 368 522 q 366 380 367 428 q 363 285 365 332 l 557 292 l 557 203 l 363 208 l 369 -7 l 275 -7 z "},"℮":{"ha":928,"x_min":104,"x_max":824,"o":"m 464 -24 q 275 28 356 -24 q 149 167 194 79 q 104 363 104 254 q 149 558 104 471 q 275 694 194 644 q 464 744 356 744 q 652 695 571 744 q 778 558 733 646 q 824 356 824 471 l 272 356 l 272 117 q 358 60 310 81 q 464 40 406 40 q 609 78 547 40 q 724 210 671 117 l 786 171 q 645 22 719 68 q 464 -24 571 -24 m 272 419 l 656 419 l 656 608 q 567 667 613 649 q 463 685 521 685 q 359 665 408 685 q 272 607 310 644 l 272 419 z "},"΄":{"ha":575,"x_min":147,"x_max":433,"o":"m 147 913 l 274 1119 l 433 1119 l 229 913 l 147 913 z "},"΅":{"ha":626,"x_min":36,"x_max":590,"o":"m 200 904 l 326 1111 l 486 1111 l 282 904 l 200 904 m 118 900 q 59 924 82 900 q 36 982 36 947 q 60 1040 36 1017 q 118 1064 83 1064 q 176 1040 151 1064 q 201 982 201 1015 q 176 924 201 947 q 118 900 151 900 m 508 900 q 452 924 475 900 q 429 982 429 949 q 452 1040 429 1015 q 508 1064 475 1064 q 567 1040 544 1064 q 590 982 590 1015 q 567 924 590 947 q 508 900 544 900 z "},"̈":{"ha":0,"x_min":42,"x_max":469,"o":"m 124 869 q 65 893 88 869 q 42 951 42 917 q 65 1010 42 986 q 124 1033 89 1033 q 182 1009 157 1033 q 207 951 207 985 q 182 893 207 917 q 124 869 157 869 m 388 869 q 331 893 354 869 q 308 951 308 917 q 331 1009 308 985 q 388 1033 354 1033 q 447 1009 424 1033 q 469 951 469 985 q 447 893 469 917 q 388 869 424 869 z "},"̇":{"ha":0,"x_min":60,"x_max":228,"o":"m 143 860 q 85 885 110 860 q 60 942 60 910 q 84 1002 60 978 q 143 1026 108 1026 q 203 1003 179 1026 q 228 942 228 979 q 203 885 228 910 q 143 860 179 860 z "},"̀":{"ha":0,"x_min":33,"x_max":296,"o":"m 208 856 l 33 1035 l 164 1063 l 296 856 l 208 856 z "},"́":{"ha":0,"x_min":32,"x_max":292,"o":"m 32 856 l 158 1063 l 292 1035 l 114 856 l 32 856 z "},"̋":{"ha":0,"x_min":33,"x_max":510,"o":"m 246 842 l 386 1049 l 510 1024 l 335 842 l 246 842 m 33 842 l 174 1049 l 297 1026 l 125 842 l 33 842 z "},"̂":{"ha":0,"x_min":43,"x_max":440,"o":"m 43 868 l 192 1064 l 293 1064 l 440 868 l 349 868 l 240 982 l 135 868 l 43 868 z "},"̌":{"ha":0,"x_min":33,"x_max":447,"o":"m 189 842 l 33 1040 l 133 1040 l 240 921 l 349 1040 l 447 1040 l 293 842 l 189 842 z "},"̆":{"ha":0,"x_min":36,"x_max":451,"o":"m 242 836 q 141 860 185 836 q 71 927 97 883 q 36 1029 44 971 l 111 1029 q 159 954 124 981 q 246 928 194 928 q 330 954 296 928 q 376 1029 364 981 l 451 1029 q 418 927 446 971 q 345 860 390 883 q 242 836 300 836 z "},"̊":{"ha":0,"x_min":43,"x_max":325,"o":"m 182 850 q 114 868 146 850 q 63 917 82 886 q 43 988 43 949 q 63 1058 43 1026 q 114 1109 82 1090 q 182 1128 146 1128 q 254 1108 222 1128 q 306 1057 286 1089 q 325 985 325 1025 q 306 915 325 946 q 254 867 286 885 q 182 850 222 850 m 185 911 q 242 933 221 911 q 264 988 264 956 q 241 1044 264 1021 q 185 1067 218 1067 q 127 1044 150 1067 q 104 989 104 1021 q 128 932 104 953 q 185 911 151 911 z "},"̃":{"ha":0,"x_min":43,"x_max":501,"o":"m 118 844 l 43 858 q 100 964 63 925 q 192 1003 138 1003 q 255 990 225 1003 q 311 965 285 978 q 363 951 338 951 q 401 967 386 951 q 428 1014 417 983 l 501 1000 q 451 895 482 933 q 371 857 419 857 q 313 870 342 857 q 257 896 285 883 q 200 908 229 908 q 152 894 175 908 q 118 844 129 879 z "},"̄":{"ha":0,"x_min":67,"x_max":485,"o":"m 67 849 l 67 928 l 485 928 l 485 849 l 67 849 z "},"̏":{"ha":0,"x_min":33,"x_max":476,"o":"m 389 856 l 214 1035 l 344 1063 l 476 856 l 389 856 m 208 856 l 33 1035 l 164 1063 l 296 856 l 208 856 z "},"̑":{"ha":0,"x_min":36,"x_max":451,"o":"m 246 1029 q 347 1006 304 1029 q 417 938 390 982 q 451 836 444 894 l 376 836 q 328 911 364 885 q 242 938 293 938 q 158 911 192 938 q 111 836 124 885 l 36 836 q 69 938 42 894 q 143 1006 97 982 q 246 1029 189 1029 z "},"̒":{"ha":0,"x_min":90,"x_max":289,"o":"m 90 765 l 193 1125 l 289 1125 l 228 765 l 90 765 z "},"̦":{"ha":0,"x_min":147,"x_max":303,"o":"m 147 -318 l 188 -85 l 303 -85 l 236 -318 l 147 -318 z "},"̧":{"ha":0,"x_min":42,"x_max":324,"o":"m 157 -307 q 96 -299 124 -307 q 42 -279 68 -292 l 57 -222 q 93 -233 76 -229 q 125 -236 110 -236 q 163 -231 142 -236 q 199 -211 183 -225 q 215 -174 215 -197 q 199 -141 215 -151 q 158 -131 183 -131 q 138 -133 147 -131 q 115 -140 128 -135 l 92 -122 l 175 0 l 265 0 l 208 -97 l 213 -97 q 260 -105 235 -97 q 305 -132 286 -112 q 324 -187 324 -151 q 297 -257 324 -231 q 231 -295 269 -283 q 157 -307 193 -307 z "},"̨":{"ha":0,"x_min":132,"x_max":382,"o":"m 288 -274 q 176 -240 221 -274 q 132 -144 132 -207 q 154 -67 132 -104 q 200 0 176 -31 l 283 0 q 242 -67 258 -40 q 226 -128 226 -94 q 249 -183 226 -161 q 307 -204 271 -204 q 335 -201 321 -204 q 368 -193 349 -199 l 382 -253 q 333 -269 356 -264 q 288 -274 310 -274 z "},"¨":{"ha":511,"x_min":42,"x_max":469,"o":"m 124 869 q 65 893 88 869 q 42 953 42 917 q 66 1010 42 988 q 124 1033 90 1033 q 182 1009 157 1033 q 207 951 207 985 q 182 893 207 917 q 124 869 157 869 m 388 869 q 331 893 354 869 q 308 953 308 917 q 331 1010 308 986 q 388 1033 353 1033 q 447 1009 424 1033 q 469 951 469 985 q 447 893 469 917 q 388 869 424 869 z "},"˙":{"ha":285,"x_min":60,"x_max":228,"o":"m 143 860 q 85 885 110 860 q 60 942 60 910 q 84 1002 60 978 q 143 1026 108 1026 q 203 1003 179 1026 q 228 942 228 979 q 203 885 228 910 q 143 860 179 860 z "},"`":{"ha":329,"x_min":33,"x_max":296,"o":"m 208 842 l 33 1021 l 164 1049 l 296 842 l 208 842 z "},"´":{"ha":324,"x_min":32,"x_max":292,"o":"m 32 842 l 158 1049 l 292 1021 l 114 842 l 32 842 z "},"˝":{"ha":535,"x_min":33,"x_max":510,"o":"m 246 842 l 386 1049 l 510 1024 l 335 842 l 246 842 m 33 842 l 174 1049 l 297 1026 l 125 842 l 33 842 z "},"ˆ":{"ha":485,"x_min":43,"x_max":440,"o":"m 43 868 l 192 1064 l 293 1064 l 440 868 l 349 868 l 240 982 l 135 868 l 43 868 z "},"ˉ":{"ha":549,"x_min":67,"x_max":485,"o":"m 67 849 l 67 928 l 485 928 l 485 849 l 67 849 z "},"ˇ":{"ha":482,"x_min":33,"x_max":447,"o":"m 189 842 l 33 1040 l 133 1040 l 240 921 l 349 1040 l 447 1040 l 293 842 l 189 842 z "},"˘":{"ha":488,"x_min":36,"x_max":451,"o":"m 242 836 q 141 860 185 836 q 71 927 97 883 q 36 1029 44 971 l 111 1029 q 159 954 124 981 q 246 928 194 928 q 330 954 296 928 q 376 1029 364 981 l 451 1029 q 418 927 446 971 q 345 860 390 883 q 242 836 300 836 z "},"˚":{"ha":368,"x_min":43,"x_max":325,"o":"m 182 850 q 114 868 146 850 q 63 917 82 886 q 43 988 43 949 q 63 1058 43 1026 q 114 1109 82 1090 q 182 1128 146 1128 q 254 1108 222 1128 q 306 1057 286 1089 q 325 985 325 1025 q 306 915 325 946 q 254 867 286 885 q 182 850 222 850 m 185 911 q 242 933 221 911 q 264 988 264 956 q 241 1044 264 1021 q 185 1067 218 1067 q 127 1044 150 1067 q 104 989 104 1021 q 128 932 104 953 q 185 911 151 911 z "},"˜":{"ha":544,"x_min":43,"x_max":501,"o":"m 118 844 l 43 858 q 100 964 63 925 q 192 1003 138 1003 q 255 990 225 1003 q 311 965 285 978 q 363 951 338 951 q 401 967 386 951 q 428 1014 417 983 l 501 1000 q 451 895 482 933 q 371 857 419 857 q 313 870 342 857 q 257 896 285 883 q 200 908 229 908 q 152 894 175 908 q 118 844 129 879 z "},"¯":{"ha":549,"x_min":67,"x_max":485,"o":"m 67 849 l 67 928 l 485 928 l 485 849 l 67 849 z "},"¸":{"ha":379,"x_min":42,"x_max":324,"o":"m 157 -307 q 96 -299 124 -307 q 42 -279 68 -292 l 57 -222 q 93 -233 76 -229 q 125 -236 110 -236 q 163 -231 142 -236 q 199 -211 183 -225 q 215 -174 215 -197 q 199 -141 215 -151 q 158 -131 183 -131 q 138 -133 147 -131 q 115 -140 128 -135 l 92 -122 l 175 0 l 265 0 l 208 -97 l 213 -97 q 260 -105 235 -97 q 305 -132 286 -112 q 324 -187 324 -151 q 297 -257 324 -231 q 231 -295 269 -283 q 157 -307 193 -307 z "},"˛":{"ha":513,"x_min":132,"x_max":382,"o":"m 288 -274 q 176 -240 221 -274 q 132 -144 132 -207 q 154 -67 132 -104 q 200 0 176 -31 l 283 0 q 242 -67 258 -40 q 226 -128 226 -94 q 249 -183 226 -161 q 307 -204 271 -204 q 335 -201 321 -204 q 368 -193 349 -199 l 382 -253 q 333 -269 356 -264 q 288 -274 310 -274 z "}}}
